SplineFontDB: 3.0
FontName: AvantGardeMdITC-Bold
FullName: AvantGardeMdITC-Bold
FamilyName: AvantGardeMdITC
Weight: Bold
Copyright: \\(c\\) Copyright 1998 E+F Designstudio. ITC Avant Garde is a registered trademark of International Typeface Corporation.
Version: 001.000
ItalicAngle: 0
UnderlinePosition: -146
UnderlineWidth: 20
Ascent: 800
Descent: 200
LayerCount: 2
Layer: 0 1 "Arri+AOgA-re"  1
Layer: 1 1 "Avant"  0
NeedsXUIDChange: 1
XUID: [1021 36 774964712 1425711]
FSType: 0
OS2Version: 2
OS2_WeightWidthSlopeOnly: 0
OS2_UseTypoMetrics: 1
CreationTime: 1146597017
ModificationTime: 1410530242
PfmFamily: 17
TTFWeight: 700
TTFWidth: 5
LineGap: 63
VLineGap: 0
Panose: 2 0 8 3 2 0 0 2 0 4
OS2TypoAscent: -133
OS2TypoAOffset: 1
OS2TypoDescent: 33
OS2TypoDOffset: 1
OS2TypoLinegap: 63
OS2WinAscent: 0
OS2WinAOffset: 1
OS2WinDescent: 0
OS2WinDOffset: 1
HheadAscent: -275
HheadAOffset: 1
HheadDescent: 83
HheadDOffset: 1
OS2SubXSize: 700
OS2SubYSize: 650
OS2SubXOff: 0
OS2SubYOff: 140
OS2SupXSize: 700
OS2SupYSize: 650
OS2SupXOff: 0
OS2SupYOff: 477
OS2StrikeYSize: 50
OS2StrikeYPos: 250
OS2Vendor: 'pyrs'
OS2CodePages: 00000001.00000000
OS2UnicodeRanges: 00000001.00000000.00000000.00000000
Lookup: 258 0 0 "'kern' Cr+AOkA-nage horizontal dans Latin lookup 0"  {"sous-table 'kern' Cr+AOkA-nage horizontal dans Latin lookup 0"  } ['kern' ('DFLT' <'dflt' > 'latn' <'dflt' > ) ]
DEI: 91125
TtTable: prep
PUSHW_1
 0
CALL
SVTCA[y-axis]
PUSHW_3
 1
 2
 2
CALL
SVTCA[x-axis]
PUSHW_3
 3
 2
 2
CALL
SVTCA[x-axis]
PUSHW_7
 3
 37
 29
 24
 17
 10
 8
CALL
PUSHW_7
 4
 33
 29
 24
 17
 10
 8
CALL
SVTCA[y-axis]
PUSHW_7
 1
 37
 29
 24
 17
 10
 8
CALL
PUSHW_7
 2
 40
 33
 24
 17
 10
 8
CALL
SVTCA[y-axis]
PUSHW_3
 5
 4
 7
CALL
PUSHW_1
 0
DUP
RCVT
RDTG
ROUND[Black]
RTG
WCVTP
EndTTInstrs
TtTable: fpgm
PUSHW_1
 0
FDEF
MPPEM
PUSHW_1
 9
LT
IF
PUSHB_2
 1
 1
INSTCTRL
EIF
PUSHW_1
 511
SCANCTRL
PUSHW_1
 68
SCVTCI
PUSHW_2
 9
 3
SDS
SDB
ENDF
PUSHW_1
 1
FDEF
DUP
DUP
RCVT
ROUND[Black]
WCVTP
PUSHB_1
 1
ADD
ENDF
PUSHW_1
 2

StartChar: exclam
Encoding: 65538 -1 2
Width: 295
Flags: W
LayerCount: 2
Fore
SplineSet
225 667 m 1,0,-1
 225 220 l 1,1,-1
 70 220 l 1,2,-1
 70 667 l 1,3,-1
 225 667 l 1,0,-1
225 153 m 1,4,-1
 225 0 l 1,5,-1
 70 0 l 1,6,-1
 70 153 l 1,7,-1
 225 153 l 1,4,-1
EndSplineSet
Validated: 1
EndChar

StartChar: quotedbl
Encoding: 34 34 4
Width: 408
Flags: W
LayerCount: 2
Fore
SplineSet
158 399 m 1,0,-1
 65 399 l 1,1,-1
 41 667 l 1,2,-1
 182 667 l 1,3,-1
 158 399 l 1,0,-1
343 399 m 1,4,-1
 250 399 l 1,5,-1
 226 667 l 1,6,-1
 367 667 l 1,7,-1
 343 399 l 1,4,-1
EndSplineSet
Validated: 1
EndChar

StartChar: numbersign
Encoding: 35 35 5
Width: 600
Flags: W
LayerCount: 2
Fore
SplineSet
575 297 m 1,0,-1
 557 183 l 1,1,-1
 455 183 l 1,2,-1
 426 0 l 1,3,-1
 296 0 l 1,4,-1
 325 183 l 1,5,-1
 238 183 l 1,6,-1
 209 0 l 1,7,-1
 80 0 l 1,8,-1
 110 183 l 1,9,-1
 8 183 l 1,10,-1
 25 297 l 1,11,-1
 127 297 l 1,12,-1
 141 383 l 1,13,-1
 40 383 l 1,14,-1
 57 497 l 1,15,-1
 158 497 l 1,16,-1
 186 667 l 1,17,-1
 314 667 l 1,18,-1
 287 497 l 1,19,-1
 374 497 l 1,20,-1
 401 667 l 1,21,-1
 531 667 l 1,22,-1
 504 497 l 1,23,-1
 604 497 l 1,24,-1
 587 383 l 1,25,-1
 486 383 l 1,26,-1
 473 297 l 1,27,-1
 575 297 l 1,0,-1
356 383 m 1,28,-1
 269 383 l 1,29,-1
 256 297 l 1,30,-1
 343 297 l 1,31,-1
 356 383 l 1,28,-1
EndSplineSet
Validated: 1
EndChar

StartChar: dollar
Encoding: 36 36 6
Width: 550
Flags: W
LayerCount: 2
Fore
SplineSet
337 731 m 1,0,-1
 337 640 l 1,1,2
 368 632 368 632 387.5 620 c 128,-1,3
 407 608 407 608 426 584 c 0,4,5
 446 558 446 558 454.5 534 c 128,-1,6
 463 510 463 510 463 478 c 2,7,-1
 463 469 l 1,8,-1
 323 469 l 1,9,10
 318 526 318 526 274 526 c 0,11,12
 252 526 252 526 238.5 512 c 128,-1,13
 225 498 225 498 225 475 c 0,14,15
 225 449 225 449 244.5 430.5 c 128,-1,16
 264 412 264 412 315 394 c 2,17,-1
 346 383 l 2,18,19
 409 360 409 360 444 313.5 c 128,-1,20
 479 267 479 267 479 209 c 0,21,22
 479 146 479 146 441 97 c 128,-1,23
 403 48 403 48 337 27 c 1,24,-1
 337 -68 l 1,25,-1
 215 -68 l 1,26,-1
 215 23 l 1,27,28
 175 31 175 31 150.5 45 c 128,-1,29
 126 59 126 59 106 84 c 0,30,31
 88 107 88 107 77 136.5 c 128,-1,32
 66 166 66 166 66 192 c 2,33,-1
 66 202 l 1,34,-1
 220 202 l 1,35,36
 226 138 226 138 273 138 c 0,37,38
 295 138 295 138 310 153.5 c 128,-1,39
 325 169 325 169 325 192 c 0,40,41
 325 218 325 218 306 236 c 128,-1,42
 287 254 287 254 242 271 c 2,43,-1
 212 282 l 2,44,45
 71 334 71 334 71 458 c 0,46,47
 71 527 71 527 108.5 574 c 128,-1,48
 146 621 146 621 215 640 c 1,49,-1
 215 731 l 1,50,-1
 337 731 l 1,0,-1
EndSplineSet
Validated: 1
EndChar

StartChar: percent
Encoding: 37 37 7
Width: 800
Flags: W
LayerCount: 2
Fore
SplineSet
194 357 m 0,0,1
 158 357 158 357 128 369 c 128,-1,2
 98 381 98 381 76.5 402.5 c 128,-1,3
 55 424 55 424 42.5 453 c 128,-1,4
 30 482 30 482 30 517 c 256,5,6
 30 552 30 552 42 582 c 128,-1,7
 54 612 54 612 76 633.5 c 128,-1,8
 98 655 98 655 128 667.5 c 128,-1,9
 158 680 158 680 193 680 c 256,10,11
 228 680 228 680 258 668 c 128,-1,12
 288 656 288 656 310 634 c 128,-1,13
 332 612 332 612 344.5 582.5 c 128,-1,14
 357 553 357 553 357 519 c 0,15,16
 357 484 357 484 344.5 454.5 c 128,-1,17
 332 425 332 425 310.5 403 c 128,-1,18
 289 381 289 381 259 369 c 128,-1,19
 229 357 229 357 194 357 c 0,0,1
607 -13 m 0,20,21
 571 -13 571 -13 541 -1 c 128,-1,22
 511 11 511 11 489.5 32 c 128,-1,23
 468 53 468 53 455.5 82 c 128,-1,24
 443 111 443 111 443 146 c 0,25,26
 443 182 443 182 455.5 212 c 128,-1,27
 468 242 468 242 489.5 263.5 c 128,-1,28
 511 285 511 285 541 297.5 c 128,-1,29
 571 310 571 310 607 310 c 0,30,31
 642 310 642 310 672 298 c 128,-1,32
 702 286 702 286 723.5 264 c 128,-1,33
 745 242 745 242 757.5 212.5 c 128,-1,34
 770 183 770 183 770 148 c 256,35,36
 770 113 770 113 757.5 84 c 128,-1,37
 745 55 745 55 723.5 33 c 128,-1,38
 702 11 702 11 672 -1 c 128,-1,39
 642 -13 642 -13 607 -13 c 0,20,21
487 667 m 1,40,-1
 593 667 l 1,41,-1
 313 0 l 1,42,-1
 207 0 l 1,43,-1
 487 667 l 1,40,-1
194 580 m 0,44,45
 168 580 168 580 151 562.5 c 128,-1,46
 134 545 134 545 134 519 c 256,47,48
 134 493 134 493 151 475 c 128,-1,49
 168 457 168 457 194 457 c 0,50,51
 219 457 219 457 236 475 c 128,-1,52
 253 493 253 493 253 519 c 256,53,54
 253 545 253 545 235.5 562.5 c 128,-1,55
 218 580 218 580 194 580 c 0,44,45
607 210 m 256,56,57
 582 210 582 210 564.5 192.5 c 128,-1,58
 547 175 547 175 547 149 c 0,59,60
 547 122 547 122 564 104 c 128,-1,61
 581 86 581 86 607 86 c 256,62,63
 633 86 633 86 649.5 104 c 128,-1,64
 666 122 666 122 666 148 c 256,65,66
 666 174 666 174 649 192 c 128,-1,67
 632 210 632 210 607 210 c 256,56,57
EndSplineSet
Validated: 1
EndChar

StartChar: ampersand
Encoding: 38 38 8
Width: 660
Flags: W
LayerCount: 2
Fore
SplineSet
486 393 m 1,0,-1
 643 393 l 1,1,-1
 592 269 l 2,2,3
 581 244 581 244 569.5 222.5 c 128,-1,4
 558 201 558 201 542 180 c 1,5,-1
 633 87 l 1,6,-1
 531 -13 l 1,7,-1
 452 68 l 1,8,9
 437 55 437 55 425.5 45.5 c 128,-1,10
 414 36 414 36 403 29.5 c 128,-1,11
 392 23 392 23 381 17.5 c 128,-1,12
 370 12 370 12 355 6 c 0,13,14
 330 -4 330 -4 304.5 -8.5 c 128,-1,15
 279 -13 279 -13 253 -13 c 0,16,17
 206 -13 206 -13 165.5 2 c 128,-1,18
 125 17 125 17 95 43 c 128,-1,19
 65 69 65 69 47.5 104 c 128,-1,20
 30 139 30 139 30 180 c 0,21,22
 30 224 30 224 51.5 262.5 c 128,-1,23
 73 301 73 301 112 333 c 0,24,25
 121 340 121 340 131 348 c 128,-1,26
 141 356 141 356 153 364 c 1,27,28
 121 396 121 396 105.5 431 c 128,-1,29
 90 466 90 466 90 508 c 0,30,31
 90 544 90 544 104.5 575.5 c 128,-1,32
 119 607 119 607 143.5 630.5 c 128,-1,33
 168 654 168 654 202 667 c 128,-1,34
 236 680 236 680 275 680 c 0,35,36
 312 680 312 680 344.5 667.5 c 128,-1,37
 377 655 377 655 400.5 633 c 128,-1,38
 424 611 424 611 437.5 581 c 128,-1,39
 451 551 451 551 451 516 c 0,40,41
 451 469 451 469 429 433.5 c 128,-1,42
 407 398 407 398 358 363 c 1,43,-1
 437 284 l 1,44,-1
 486 393 l 1,0,-1
245 274 m 1,45,46
 216 251 216 251 205 233.5 c 128,-1,47
 194 216 194 216 194 196 c 0,48,49
 194 167 194 167 215.5 148.5 c 128,-1,50
 237 130 237 130 271 130 c 0,51,52
 297 130 297 130 315.5 138 c 128,-1,53
 334 146 334 146 352 166 c 1,54,-1
 245 274 l 1,45,46
235 515 m 0,55,56
 235 497 235 497 243.5 481.5 c 128,-1,57
 252 466 252 466 273 443 c 1,58,59
 297 466 297 466 306 482 c 128,-1,60
 315 498 315 498 315 517 c 0,61,62
 315 537 315 537 304.5 548.5 c 128,-1,63
 294 560 294 560 276 560 c 0,64,65
 259 560 259 560 247 547.5 c 128,-1,66
 235 535 235 535 235 515 c 0,55,56
EndSplineSet
Validated: 1
EndChar

StartChar: quotesingle
Encoding: 39 39 9
Width: 223
Flags: W
LayerCount: 2
Fore
SplineSet
158 399 m 1,0,-1
 65 399 l 1,1,-1
 41 667 l 1,2,-1
 182 667 l 1,3,-1
 158 399 l 1,0,-1
EndSplineSet
Validated: 1
EndChar

StartChar: parenleft
Encoding: 40 40 10
Width: 372
Flags: W
LayerCount: 2
Fore
SplineSet
187 249 m 256,0,1
 187 204 187 204 198.5 160.5 c 128,-1,2
 210 117 210 117 231 79 c 128,-1,3
 252 41 252 41 281 10.5 c 128,-1,4
 310 -20 310 -20 345 -38 c 1,5,-1
 345 -187 l 1,6,7
 305 -172 305 -172 275 -156 c 128,-1,8
 245 -140 245 -140 216 -119 c 0,9,10
 172 -86 172 -86 137.5 -45 c 128,-1,11
 103 -4 103 -4 79 43.5 c 128,-1,12
 55 91 55 91 42.5 143.5 c 128,-1,13
 30 196 30 196 30 250 c 0,14,15
 30 360 30 360 79 456.5 c 128,-1,16
 128 553 128 553 216 619 c 0,17,18
 245 640 245 640 275 656 c 128,-1,19
 305 672 305 672 345 687 c 1,20,-1
 345 538 l 1,21,22
 310 519 310 519 281 488.5 c 128,-1,23
 252 458 252 458 231 420 c 128,-1,24
 210 382 210 382 198.5 338 c 128,-1,25
 187 294 187 294 187 249 c 256,0,1
EndSplineSet
Validated: 1
EndChar

StartChar: parenright
Encoding: 41 41 11
Width: 372
Flags: W
LayerCount: 2
Fore
SplineSet
185 251 m 256,0,1
 185 296 185 296 173.5 339.5 c 128,-1,2
 162 383 162 383 141 421 c 128,-1,3
 120 459 120 459 91 489.5 c 128,-1,4
 62 520 62 520 27 538 c 1,5,-1
 27 687 l 1,6,7
 67 672 67 672 97 656 c 128,-1,8
 127 640 127 640 156 619 c 0,9,10
 200 586 200 586 234.5 545 c 128,-1,11
 269 504 269 504 293 456.5 c 128,-1,12
 317 409 317 409 329.5 356.5 c 128,-1,13
 342 304 342 304 342 250 c 0,14,15
 342 140 342 140 293 43.5 c 128,-1,16
 244 -53 244 -53 156 -119 c 0,17,18
 127 -140 127 -140 97 -156 c 128,-1,19
 67 -172 67 -172 27 -187 c 1,20,-1
 27 -38 l 1,21,22
 62 -20 62 -20 91 10.5 c 128,-1,23
 120 41 120 41 141 79.5 c 128,-1,24
 162 118 162 118 173.5 162 c 128,-1,25
 185 206 185 206 185 251 c 256,0,1
EndSplineSet
Validated: 1
EndChar

StartChar: asterisk
Encoding: 42 42 12
Width: 550
Flags: W
LayerCount: 2
Fore
SplineSet
221 667 m 1,0,-1
 329 667 l 1,1,-1
 323 541 l 1,2,-1
 439 584 l 1,3,-1
 474 485 l 1,4,-1
 355 449 l 1,5,-1
 430 350 l 1,6,-1
 346 286 l 1,7,-1
 273 390 l 1,8,-1
 201 286 l 1,9,-1
 117 350 l 1,10,-1
 195 449 l 1,11,-1
 76 485 l 1,12,-1
 109 584 l 1,13,-1
 224 541 l 1,14,-1
 221 667 l 1,0,-1
EndSplineSet
Validated: 1
EndChar

StartChar: plus
Encoding: 43 43 13
Width: 500
Flags: W
LayerCount: 2
Fore
SplineSet
33 398 m 1,0,-1
 187 398 l 1,1,-1
 187 552 l 1,2,-1
 313 552 l 1,3,-1
 313 398 l 1,4,-1
 467 398 l 1,5,-1
 467 281 l 1,6,-1
 313 281 l 1,7,-1
 313 127 l 1,8,-1
 187 127 l 1,9,-1
 187 281 l 1,10,-1
 33 281 l 1,11,-1
 33 398 l 1,0,-1
EndSplineSet
Validated: 1
EndChar

StartChar: comma
Encoding: 44 44 14
Width: 262
Flags: W
LayerCount: 2
Fore
SplineSet
209 153 m 1,0,-1
 209 -36 l 2,1,2
 209 -85 209 -85 184 -115 c 128,-1,3
 159 -145 159 -145 117 -145 c 2,4,-1
 53 -145 l 1,5,-1
 53 -65 l 1,6,-1
 84 -65 l 2,7,8
 101 -65 101 -65 112 -55.5 c 128,-1,9
 123 -46 123 -46 123 -31 c 2,10,-1
 123 0 l 1,11,-1
 53 0 l 1,12,-1
 53 153 l 1,13,-1
 209 153 l 1,0,-1
EndSplineSet
Validated: 1
EndChar

StartChar: hyphen
Encoding: 45 45 15
Width: 253
Flags: W
LayerCount: 2
Fore
SplineSet
253 320 m 1,0,-1
 253 193 l 1,1,-1
 0 193 l 1,2,-1
 0 320 l 1,3,-1
 253 320 l 1,0,-1
EndSplineSet
Validated: 1
EndChar

StartChar: period
Encoding: 46 46 16
Width: 262
Flags: W
LayerCount: 2
Fore
SplineSet
209 153 m 1,0,-1
 209 0 l 1,1,-1
 53 0 l 1,2,-1
 53 153 l 1,3,-1
 209 153 l 1,0,-1
EndSplineSet
Validated: 1
EndChar

StartChar: slash
Encoding: 47 47 17
Width: 422
Flags: W
LayerCount: 2
Fore
SplineSet
242 667 m 1,0,-1
 389 667 l 1,1,-1
 128 -167 l 1,2,-1
 -19 -167 l 1,3,-1
 242 667 l 1,0,-1
EndSplineSet
Validated: 1
EndChar

StartChar: zero
Encoding: 48 48 18
Width: 550
Flags: W
LayerCount: 2
Fore
SplineSet
50 126 m 0,0,1
 39 149 39 149 32.5 179.5 c 128,-1,2
 26 210 26 210 26 236 c 2,3,-1
 26 430 l 2,4,5
 26 553 26 553 117 623 c 0,6,7
 152 650 152 650 194 665 c 128,-1,8
 236 680 236 680 277 680 c 0,9,10
 312 680 312 680 346.5 669 c 128,-1,11
 381 658 381 658 411.5 639 c 128,-1,12
 442 620 442 620 466 593.5 c 128,-1,13
 490 567 490 567 503 537 c 0,14,15
 512 515 512 515 518 486 c 128,-1,16
 524 457 524 457 524 430 c 2,17,-1
 524 236 l 2,18,19
 524 183 524 183 505 137.5 c 128,-1,20
 486 92 486 92 453 58.5 c 128,-1,21
 420 25 420 25 375 6 c 128,-1,22
 330 -13 330 -13 278 -13 c 0,23,24
 243 -13 243 -13 208.5 -2.5 c 128,-1,25
 174 8 174 8 143.5 26.5 c 128,-1,26
 113 45 113 45 88.5 70.5 c 128,-1,27
 64 96 64 96 50 126 c 0,0,1
275 137 m 0,28,29
 354 137 354 137 354 236 c 2,30,-1
 354 431 l 2,31,32
 354 530 354 530 275 530 c 0,33,34
 237 530 237 530 216.5 504 c 128,-1,35
 196 478 196 478 196 431 c 2,36,-1
 196 236 l 2,37,38
 196 188 196 188 216.5 162.5 c 128,-1,39
 237 137 237 137 275 137 c 0,28,29
EndSplineSet
Validated: 1
EndChar

StartChar: one
Encoding: 49 49 19
Width: 550
Flags: W
LayerCount: 2
Fore
SplineSet
383 667 m 1,0,-1
 383 0 l 1,1,-1
 213 0 l 1,2,-1
 213 523 l 1,3,-1
 104 523 l 1,4,-1
 104 667 l 1,5,-1
 383 667 l 1,0,-1
EndSplineSet
Validated: 1
EndChar

StartChar: two
Encoding: 50 50 20
Width: 550
Flags: W
LayerCount: 2
Fore
SplineSet
404 257 m 0,0,1
 392 243 392 243 381 232 c 128,-1,2
 370 221 370 221 357 208 c 128,-1,3
 344 195 344 195 326.5 179.5 c 128,-1,4
 309 164 309 164 285 143 c 1,5,-1
 511 143 l 1,6,-1
 511 0 l 1,7,-1
 41 0 l 1,8,-1
 41 133 l 1,9,-1
 67 149 l 2,10,11
 96 167 96 167 116.5 180.5 c 128,-1,12
 137 194 137 194 153 207 c 128,-1,13
 169 220 169 220 183 233 c 128,-1,14
 197 246 197 246 213 261 c 0,15,16
 230 278 230 278 245.5 295 c 128,-1,17
 261 312 261 312 275 331 c 0,18,19
 337 409 337 409 337 465 c 0,20,21
 337 494 337 494 320 512 c 128,-1,22
 303 530 303 530 274 530 c 0,23,24
 237 530 237 530 218.5 505 c 128,-1,25
 200 480 200 480 197 424 c 1,26,-1
 35 424 l 1,27,28
 36 454 36 454 38.5 475.5 c 128,-1,29
 41 497 41 497 45.5 514 c 128,-1,30
 50 531 50 531 56.5 546 c 128,-1,31
 63 561 63 561 74 577 c 0,32,33
 106 626 106 626 160 653 c 128,-1,34
 214 680 214 680 281 680 c 0,35,36
 329 680 329 680 370.5 665.5 c 128,-1,37
 412 651 412 651 442.5 624.5 c 128,-1,38
 473 598 473 598 490 562.5 c 128,-1,39
 507 527 507 527 507 485 c 0,40,41
 507 428 507 428 482 372.5 c 128,-1,42
 457 317 457 317 404 257 c 0,0,1
EndSplineSet
Validated: 1
EndChar

StartChar: three
Encoding: 51 51 21
Width: 547
Flags: W
LayerCount: 2
Fore
SplineSet
42 112 m 0,0,1
 37 123 37 123 34.5 132 c 128,-1,2
 32 141 32 141 29.5 150.5 c 128,-1,3
 27 160 27 160 25.5 171 c 128,-1,4
 24 182 24 182 23 198 c 1,5,-1
 195 198 l 1,6,7
 210 137 210 137 271 137 c 0,8,9
 304 137 304 137 324.5 155 c 128,-1,10
 345 173 345 173 345 203 c 0,11,12
 345 270 345 270 255 270 c 2,13,-1
 195 270 l 1,14,-1
 195 395 l 1,15,-1
 223 395 l 2,16,17
 307 395 307 395 307 472 c 0,18,19
 307 498 307 498 294.5 514 c 128,-1,20
 282 530 282 530 260 530 c 0,21,22
 211 530 211 530 208 473 c 1,23,-1
 40 473 l 1,24,25
 41 519 41 519 57.5 557.5 c 128,-1,26
 74 596 74 596 104 623 c 128,-1,27
 134 650 134 650 175.5 665 c 128,-1,28
 217 680 217 680 268 680 c 0,29,30
 313 680 313 680 351 666 c 128,-1,31
 389 652 389 652 417 628 c 128,-1,32
 445 604 445 604 461 570.5 c 128,-1,33
 477 537 477 537 477 498 c 0,34,35
 477 405 477 405 389 357 c 1,36,37
 451 337 451 337 483 296 c 128,-1,38
 515 255 515 255 515 196 c 0,39,40
 515 153 515 153 495.5 115 c 128,-1,41
 476 77 476 77 442.5 48.5 c 128,-1,42
 409 20 409 20 364 3.5 c 128,-1,43
 319 -13 319 -13 268 -13 c 0,44,45
 228 -13 228 -13 192 -4 c 128,-1,46
 156 5 156 5 126.5 21 c 128,-1,47
 97 37 97 37 75.5 60 c 128,-1,48
 54 83 54 83 42 112 c 0,0,1
EndSplineSet
Validated: 1
EndChar

StartChar: four
Encoding: 52 52 22
Width: 550
Flags: W
LayerCount: 2
Fore
SplineSet
303 117 m 1,0,-1
 10 117 l 1,1,-1
 10 242 l 1,2,-1
 308 667 l 1,3,-1
 467 667 l 1,4,-1
 467 251 l 1,5,-1
 540 251 l 1,6,-1
 540 117 l 1,7,-1
 467 117 l 1,8,-1
 467 0 l 1,9,-1
 303 0 l 1,10,-1
 303 117 l 1,0,-1
314 251 m 1,11,-1
 314 460 l 1,12,-1
 180 251 l 1,13,-1
 314 251 l 1,11,-1
EndSplineSet
Validated: 1
EndChar

StartChar: five
Encoding: 53 53 23
Width: 550
Flags: W
LayerCount: 2
Fore
SplineSet
41 289 m 1,0,-1
 98 667 l 1,1,-1
 467 667 l 1,2,-1
 467 523 l 1,3,-1
 229 523 l 1,4,-1
 214 432 l 1,5,6
 235 443 235 443 255 448 c 128,-1,7
 275 453 275 453 304 453 c 0,8,9
 352 453 352 453 392.5 436 c 128,-1,10
 433 419 433 419 463 389 c 128,-1,11
 493 359 493 359 510 318 c 128,-1,12
 527 277 527 277 527 229 c 0,13,14
 527 177 527 177 507.5 133 c 128,-1,15
 488 89 488 89 453.5 56.5 c 128,-1,16
 419 24 419 24 372 5.5 c 128,-1,17
 325 -13 325 -13 270 -13 c 0,18,19
 221 -13 221 -13 178.5 0.5 c 128,-1,20
 136 14 136 14 103 39 c 128,-1,21
 70 64 70 64 47.5 99.5 c 128,-1,22
 25 135 25 135 17 179 c 1,23,-1
 188 179 l 1,24,25
 219 137 219 137 267 137 c 0,26,27
 285 137 285 137 301.5 144 c 128,-1,28
 318 151 318 151 330 163 c 128,-1,29
 342 175 342 175 349.5 191 c 128,-1,30
 357 207 357 207 357 225 c 0,31,32
 357 263 357 263 331 288 c 128,-1,33
 305 313 305 313 265 313 c 0,34,35
 235 313 235 313 212.5 298.5 c 128,-1,36
 190 284 190 284 178 255 c 1,37,-1
 41 289 l 1,0,-1
EndSplineSet
Validated: 1
EndChar

StartChar: six
Encoding: 54 54 24
Width: 550
Flags: W
LayerCount: 2
Fore
SplineSet
438 667 m 1,0,-1
 291 464 l 1,1,2
 306 466 306 466 314.5 467 c 128,-1,3
 323 468 323 468 333 468 c 0,4,5
 376 468 376 468 413 450.5 c 128,-1,6
 450 433 450 433 477.5 403 c 128,-1,7
 505 373 505 373 520.5 331.5 c 128,-1,8
 536 290 536 290 536 242 c 0,9,10
 536 187 536 187 516.5 140 c 128,-1,11
 497 93 497 93 462 59 c 128,-1,12
 427 25 427 25 379.5 6 c 128,-1,13
 332 -13 332 -13 276 -13 c 0,14,15
 221 -13 221 -13 173 7 c 128,-1,16
 125 27 125 27 89.5 61.5 c 128,-1,17
 54 96 54 96 33.5 143 c 128,-1,18
 13 190 13 190 13 244 c 0,19,20
 13 285 13 285 29.5 332.5 c 128,-1,21
 46 380 46 380 75 423 c 2,22,-1
 241 667 l 1,23,-1
 438 667 l 1,0,-1
272 318 m 0,24,25
 233 318 233 318 207 292.5 c 128,-1,26
 181 267 181 267 181 229 c 0,27,28
 181 190 181 190 208 163.5 c 128,-1,29
 235 137 235 137 274 137 c 0,30,31
 312 137 312 137 338.5 163 c 128,-1,32
 365 189 365 189 365 227 c 0,33,34
 365 246 365 246 358 262.5 c 128,-1,35
 351 279 351 279 338.5 291.5 c 128,-1,36
 326 304 326 304 309 311 c 128,-1,37
 292 318 292 318 272 318 c 0,24,25
EndSplineSet
Validated: 1
EndChar

StartChar: seven
Encoding: 55 55 25
Width: 550
Flags: W
LayerCount: 2
Fore
SplineSet
61 667 m 1,0,-1
 496 667 l 1,1,-1
 496 536 l 1,2,-1
 261 0 l 1,3,-1
 74 0 l 1,4,-1
 320 523 l 1,5,-1
 61 523 l 1,6,-1
 61 667 l 1,0,-1
EndSplineSet
Validated: 1
EndChar

StartChar: eight
Encoding: 56 56 26
Width: 550
Flags: W
LayerCount: 2
Fore
SplineSet
478 494 m 0,0,1
 478 455 478 455 462.5 424.5 c 128,-1,2
 447 394 447 394 413 367 c 1,3,4
 463 346 463 346 490.5 302 c 128,-1,5
 518 258 518 258 518 201 c 0,6,7
 518 156 518 156 499 117 c 128,-1,8
 480 78 480 78 447 49 c 128,-1,9
 414 20 414 20 370 3.5 c 128,-1,10
 326 -13 326 -13 276 -13 c 256,11,12
 226 -13 226 -13 181.5 4 c 128,-1,13
 137 21 137 21 104 50 c 128,-1,14
 71 79 71 79 51.5 118 c 128,-1,15
 32 157 32 157 32 201 c 0,16,17
 32 258 32 258 59.5 302 c 128,-1,18
 87 346 87 346 136 367 c 1,19,20
 101 395 101 395 86 424 c 128,-1,21
 71 453 71 453 71 492 c 0,22,23
 71 532 71 532 86.5 566.5 c 128,-1,24
 102 601 102 601 129 626.5 c 128,-1,25
 156 652 156 652 193.5 666 c 128,-1,26
 231 680 231 680 275 680 c 0,27,28
 318 680 318 680 355.5 666 c 128,-1,29
 393 652 393 652 420 627 c 128,-1,30
 447 602 447 602 462.5 568 c 128,-1,31
 478 534 478 534 478 494 c 0,0,1
276 542 m 0,32,33
 250 542 250 542 231.5 524.5 c 128,-1,34
 213 507 213 507 213 481 c 2,35,-1
 213 478 l 2,36,37
 213 453 213 453 230.5 436 c 128,-1,38
 248 419 248 419 274 419 c 256,39,40
 300 419 300 419 318 437.5 c 128,-1,41
 336 456 336 456 336 482 c 0,42,43
 336 507 336 507 318.5 524.5 c 128,-1,44
 301 542 301 542 276 542 c 0,32,33
275 289 m 0,45,46
 243 289 243 289 222.5 267.5 c 128,-1,47
 202 246 202 246 202 214 c 0,48,49
 202 180 202 180 223.5 158.5 c 128,-1,50
 245 137 245 137 277 137 c 0,51,52
 306 137 306 137 327 159 c 128,-1,53
 348 181 348 181 348 213 c 256,54,55
 348 245 348 245 327 267 c 128,-1,56
 306 289 306 289 275 289 c 0,45,46
EndSplineSet
Validated: 1
EndChar

StartChar: nine
Encoding: 57 57 27
Width: 550
Flags: W
LayerCount: 2
Fore
SplineSet
126 0 m 1,0,-1
 276 207 l 1,1,2
 261 202 261 202 252.5 201 c 128,-1,3
 244 200 244 200 231 200 c 0,4,5
 184 200 184 200 144.5 217.5 c 128,-1,6
 105 235 105 235 76 266 c 128,-1,7
 47 297 47 297 30.5 339.5 c 128,-1,8
 14 382 14 382 14 432 c 0,9,10
 14 485 14 485 33.5 530.5 c 128,-1,11
 53 576 53 576 88 609 c 128,-1,12
 123 642 123 642 170 661 c 128,-1,13
 217 680 217 680 273 680 c 0,14,15
 331 680 331 680 379.5 660.5 c 128,-1,16
 428 641 428 641 463 606.5 c 128,-1,17
 498 572 498 572 517.5 524 c 128,-1,18
 537 476 537 476 537 419 c 0,19,20
 537 372 537 372 526.5 338 c 128,-1,21
 516 304 516 304 490 264 c 2,22,-1
 320 0 l 1,23,-1
 126 0 l 1,0,-1
274 530 m 0,24,25
 257 530 257 530 241 523.5 c 128,-1,26
 225 517 225 517 213 505.5 c 128,-1,27
 201 494 201 494 193 479 c 128,-1,28
 185 464 185 464 184 447 c 0,29,30
 184 445 184 445 183.5 444 c 128,-1,31
 183 443 183 443 183 442 c 0,32,33
 183 404 183 404 210 377.5 c 128,-1,34
 237 351 237 351 275 351 c 256,35,36
 313 351 313 351 339.5 377 c 128,-1,37
 366 403 366 403 366 441 c 0,38,39
 366 459 366 459 359 475.5 c 128,-1,40
 352 492 352 492 339.5 504 c 128,-1,41
 327 516 327 516 310 523 c 128,-1,42
 293 530 293 530 274 530 c 0,24,25
EndSplineSet
Validated: 1
EndChar

StartChar: colon
Encoding: 58 58 28
Width: 262
Flags: W
LayerCount: 2
Fore
SplineSet
209 153 m 1,0,-1
 209 0 l 1,1,-1
 53 0 l 1,2,-1
 53 153 l 1,3,-1
 209 153 l 1,0,-1
209 500 m 1,4,-1
 209 347 l 1,5,-1
 53 347 l 1,6,-1
 53 500 l 1,7,-1
 209 500 l 1,4,-1
EndSplineSet
Validated: 1
EndChar

StartChar: semicolon
Encoding: 59 59 29
Width: 262
Flags: W
LayerCount: 2
Fore
SplineSet
209 153 m 1,0,-1
 209 -36 l 2,1,2
 209 -85 209 -85 184 -115 c 128,-1,3
 159 -145 159 -145 117 -145 c 2,4,-1
 53 -145 l 1,5,-1
 53 -65 l 1,6,-1
 84 -65 l 2,7,8
 101 -65 101 -65 112 -55.5 c 128,-1,9
 123 -46 123 -46 123 -31 c 2,10,-1
 123 0 l 1,11,-1
 53 0 l 1,12,-1
 53 153 l 1,13,-1
 209 153 l 1,0,-1
209 500 m 1,14,-1
 209 347 l 1,15,-1
 53 347 l 1,16,-1
 53 500 l 1,17,-1
 209 500 l 1,14,-1
EndSplineSet
Validated: 1
EndChar

StartChar: less
Encoding: 60 60 30
Width: 500
Flags: W
LayerCount: 2
Fore
SplineSet
467 607 m 1,0,-1
 467 481 l 1,1,-1
 167 333 l 1,2,-1
 466 185 l 1,3,-1
 467 61 l 1,4,-1
 33 281 l 1,5,-1
 33 387 l 1,6,-1
 467 607 l 1,0,-1
EndSplineSet
Validated: 1
EndChar

StartChar: equal
Encoding: 61 61 31
Width: 500
Flags: W
LayerCount: 2
Fore
SplineSet
33 481 m 1,0,-1
 467 481 l 1,1,-1
 467 371 l 1,2,-1
 33 371 l 1,3,-1
 33 481 l 1,0,-1
33 309 m 1,4,-1
 467 309 l 1,5,-1
 467 199 l 1,6,-1
 33 199 l 1,7,-1
 33 309 l 1,4,-1
EndSplineSet
Validated: 1
EndChar

StartChar: greater
Encoding: 62 62 32
Width: 500
Flags: W
LayerCount: 2
Fore
SplineSet
33 61 m 1,0,-1
 33 186 l 1,1,-1
 333 334 l 1,2,-1
 34 482 l 1,3,-1
 33 607 l 1,4,-1
 467 387 l 1,5,-1
 467 280 l 1,6,-1
 33 61 l 1,0,-1
EndSplineSet
Validated: 1
EndChar

StartChar: question
Encoding: 63 63 33
Width: 496
Flags: W
LayerCount: 2
Fore
SplineSet
241 526 m 0,0,1
 208 526 208 526 194 506.5 c 128,-1,2
 180 487 180 487 179 439 c 1,3,-1
 14 439 l 1,4,5
 13 445 13 445 13 449 c 128,-1,6
 13 453 13 453 13 456 c 0,7,8
 13 505 13 505 30.5 546 c 128,-1,9
 48 587 48 587 79.5 617 c 128,-1,10
 111 647 111 647 154.5 663.5 c 128,-1,11
 198 680 198 680 250 680 c 0,12,13
 295 680 295 680 334.5 665 c 128,-1,14
 374 650 374 650 403.5 624.5 c 128,-1,15
 433 599 433 599 449.5 564 c 128,-1,16
 466 529 466 529 466 489 c 0,17,18
 466 465 466 465 459 440.5 c 128,-1,19
 452 416 452 416 440 396 c 0,20,21
 433 385 433 385 427 377 c 128,-1,22
 421 369 421 369 413 360 c 128,-1,23
 405 351 405 351 393.5 339.5 c 128,-1,24
 382 328 382 328 364 312 c 0,25,26
 344 294 344 294 331 280.5 c 128,-1,27
 318 267 318 267 310.5 255.5 c 128,-1,28
 303 244 303 244 299.5 234 c 128,-1,29
 296 224 296 224 295 212 c 1,30,-1
 139 212 l 1,31,32
 139 233 139 233 143.5 250 c 128,-1,33
 148 267 148 267 158.5 285 c 128,-1,34
 169 303 169 303 186.5 323.5 c 128,-1,35
 204 344 204 344 232 371 c 0,36,37
 266 403 266 403 279.5 425.5 c 128,-1,38
 293 448 293 448 293 470 c 0,39,40
 293 526 293 526 241 526 c 0,0,1
295 153 m 1,41,-1
 295 0 l 1,42,-1
 139 0 l 1,43,-1
 139 153 l 1,44,-1
 295 153 l 1,41,-1
EndSplineSet
Validated: 1
EndChar

StartChar: at
Encoding: 64 64 34
Width: 733
Flags: W
LayerCount: 2
Fore
SplineSet
473 492 m 1,0,-1
 560 491 l 1,1,-1
 523 301 l 2,2,3
 519 281 519 281 518 272 c 128,-1,4
 517 263 517 263 517 257 c 0,5,6
 517 225 517 225 540 225 c 0,7,8
 564 225 564 225 586 257 c 0,9,10
 604 283 604 283 613.5 316 c 128,-1,11
 623 349 623 349 623 384 c 0,12,13
 623 432 623 432 606 471.5 c 128,-1,14
 589 511 589 511 558 539.5 c 128,-1,15
 527 568 527 568 484 584 c 128,-1,16
 441 600 441 600 389 600 c 0,17,18
 332 600 332 600 282.5 579 c 128,-1,19
 233 558 233 558 196.5 521 c 128,-1,20
 160 484 160 484 139 434 c 128,-1,21
 118 384 118 384 118 326 c 0,22,23
 118 284 118 284 129.5 245 c 128,-1,24
 141 206 141 206 162 174 c 128,-1,25
 183 142 183 142 212.5 118 c 128,-1,26
 242 94 242 94 277 82 c 0,27,28
 326 66 326 66 389 66 c 0,29,30
 484 66 484 66 571 97 c 1,31,-1
 591 19 l 1,32,33
 548 4 548 4 495.5 -4 c 128,-1,34
 443 -12 443 -12 387 -12 c 0,35,36
 232 -12 232 -12 138 78 c 0,37,38
 88 125 88 125 60.5 190.5 c 128,-1,39
 33 256 33 256 33 328 c 0,40,41
 33 401 33 401 60.5 465 c 128,-1,42
 88 529 88 529 135 576.5 c 128,-1,43
 182 624 182 624 246 651 c 128,-1,44
 310 678 310 678 384 678 c 0,45,46
 452 678 452 678 510 656 c 128,-1,47
 568 634 568 634 610 594.5 c 128,-1,48
 652 555 652 555 676 501 c 128,-1,49
 700 447 700 447 700 384 c 0,50,51
 700 339 700 339 686.5 297 c 128,-1,52
 673 255 673 255 650.5 223 c 128,-1,53
 628 191 628 191 598 172 c 128,-1,54
 568 153 568 153 536 153 c 0,55,56
 507 153 507 153 486 168.5 c 128,-1,57
 465 184 465 184 458 208 c 1,58,59
 438 179 438 179 405 162 c 128,-1,60
 372 145 372 145 334 145 c 0,61,62
 304 145 304 145 278 157 c 128,-1,63
 252 169 252 169 233.5 190 c 128,-1,64
 215 211 215 211 204 240 c 128,-1,65
 193 269 193 269 193 302 c 0,66,67
 193 342 193 342 207 378.5 c 128,-1,68
 221 415 221 415 245 442.5 c 128,-1,69
 269 470 269 470 301 486 c 128,-1,70
 333 502 333 502 368 502 c 0,71,72
 400 502 400 502 426 489 c 128,-1,73
 452 476 452 476 466 453 c 1,74,-1
 473 492 l 1,0,-1
444 345 m 2,75,76
 444 374 444 374 425.5 392.5 c 128,-1,77
 407 411 407 411 380 411 c 0,78,79
 362 411 362 411 346 402.5 c 128,-1,80
 330 394 330 394 318 380 c 128,-1,81
 306 366 306 366 299 346.5 c 128,-1,82
 292 327 292 327 292 306 c 0,83,84
 292 274 292 274 310.5 254 c 128,-1,85
 329 234 329 234 358 234 c 0,86,87
 375 234 375 234 390.5 242.5 c 128,-1,88
 406 251 406 251 418 265.5 c 128,-1,89
 430 280 430 280 437 299.5 c 128,-1,90
 444 319 444 319 444 341 c 2,91,-1
 444 345 l 2,75,76
EndSplineSet
Validated: 1
EndChar

StartChar: A
Encoding: 65 65 35
Width: 660
Flags: W
LayerCount: 2
Fore
SplineSet
447 97 m 1,0,-1
 215 97 l 1,1,-1
 180 0 l 1,2,-1
 -3 0 l 1,3,-1
 264 667 l 1,4,-1
 399 667 l 1,5,-1
 664 0 l 1,6,-1
 479 0 l 1,7,-1
 447 97 l 1,0,-1
262 232 m 1,8,-1
 401 232 l 1,9,-1
 332 460 l 1,10,-1
 262 232 l 1,8,-1
EndSplineSet
Validated: 1
EndChar

StartChar: B
Encoding: 66 66 36
Width: 577
Flags: W
LayerCount: 2
Fore
SplineSet
57 0 m 1,0,-1
 57 667 l 1,1,-1
 262 667 l 2,2,3
 304 667 304 667 334 665 c 128,-1,4
 364 663 364 663 385.5 659 c 128,-1,5
 407 655 407 655 423 647.5 c 128,-1,6
 439 640 439 640 452 630 c 0,7,8
 481 607 481 607 498 570 c 128,-1,9
 515 533 515 533 515 492 c 0,10,11
 515 448 515 448 495.5 413.5 c 128,-1,12
 476 379 476 379 438 357 c 1,13,14
 548 320 548 320 548 202 c 0,15,16
 548 160 548 160 532 122.5 c 128,-1,17
 516 85 516 85 487 58 c 0,18,19
 468 40 468 40 449.5 29 c 128,-1,20
 431 18 431 18 406 11.5 c 128,-1,21
 381 5 381 5 348 2.5 c 128,-1,22
 315 0 315 0 268 0 c 2,23,-1
 57 0 l 1,0,-1
220 413 m 1,24,-1
 280 413 l 2,25,26
 318 413 318 413 335 426 c 128,-1,27
 352 439 352 439 352 466 c 256,28,29
 352 493 352 493 335.5 505 c 128,-1,30
 319 517 319 517 280 517 c 2,31,-1
 220 517 l 1,32,-1
 220 413 l 1,24,-1
220 150 m 1,33,-1
 300 150 l 2,34,35
 385 150 385 150 385 213 c 0,36,37
 385 244 385 244 365 257.5 c 128,-1,38
 345 271 345 271 300 271 c 2,39,-1
 220 271 l 1,40,-1
 220 150 l 1,33,-1
EndSplineSet
Validated: 1
EndChar

StartChar: C
Encoding: 67 67 37
Width: 736
Flags: W
LayerCount: 2
Fore
SplineSet
378 137 m 0,0,1
 485 137 485 137 539 249 c 1,2,-1
 717 249 l 1,3,4
 703 190 703 190 671.5 142 c 128,-1,5
 640 94 640 94 595.5 59.5 c 128,-1,6
 551 25 551 25 496 6 c 128,-1,7
 441 -13 441 -13 380 -13 c 0,8,9
 306 -13 306 -13 242 14 c 128,-1,10
 178 41 178 41 131 88 c 128,-1,11
 84 135 84 135 56.5 198.5 c 128,-1,12
 29 262 29 262 29 335 c 0,13,14
 29 407 29 407 56 470 c 128,-1,15
 83 533 83 533 130 579.5 c 128,-1,16
 177 626 177 626 240.5 653 c 128,-1,17
 304 680 304 680 378 680 c 0,18,19
 472 680 472 680 548.5 638.5 c 128,-1,20
 625 597 625 597 674 519 c 0,21,22
 685 502 685 502 692 489.5 c 128,-1,23
 699 477 699 477 703.5 465.5 c 128,-1,24
 708 454 708 454 711 441.5 c 128,-1,25
 714 429 714 429 717 413 c 1,26,-1
 539 413 l 1,27,28
 519 467 519 467 475.5 498.5 c 128,-1,29
 432 530 432 530 377 530 c 0,30,31
 339 530 339 530 306.5 515 c 128,-1,32
 274 500 274 500 250 474 c 128,-1,33
 226 448 226 448 212.5 412.5 c 128,-1,34
 199 377 199 377 199 335 c 256,35,36
 199 293 199 293 213 257 c 128,-1,37
 227 221 227 221 251 194 c 128,-1,38
 275 167 275 167 307.5 152 c 128,-1,39
 340 137 340 137 378 137 c 0,0,1
EndSplineSet
Validated: 1
EndChar

StartChar: D
Encoding: 68 68 38
Width: 662
Flags: W
LayerCount: 2
Fore
SplineSet
57 0 m 1,0,-1
 57 667 l 1,1,-1
 281 667 l 2,2,3
 319 667 319 667 348.5 664.5 c 128,-1,4
 378 662 378 662 402.5 656.5 c 128,-1,5
 427 651 427 651 448.5 641.5 c 128,-1,6
 470 632 470 632 491 619 c 0,7,8
 538 590 538 590 572 542 c 0,9,10
 633 457 633 457 633 336 c 0,11,12
 633 260 633 260 610.5 198 c 128,-1,13
 588 136 588 136 547 92 c 128,-1,14
 506 48 506 48 448 24 c 128,-1,15
 390 0 390 0 319 0 c 2,16,-1
 57 0 l 1,0,-1
227 150 m 1,17,-1
 300 150 l 2,18,19
 380 150 380 150 421.5 196.5 c 128,-1,20
 463 243 463 243 463 331 c 0,21,22
 463 421 463 421 421 469 c 128,-1,23
 379 517 379 517 301 517 c 2,24,-1
 227 517 l 1,25,-1
 227 150 l 1,17,-1
EndSplineSet
Validated: 1
EndChar

StartChar: E
Encoding: 69 69 39
Width: 469
Flags: W
LayerCount: 2
Fore
SplineSet
57 0 m 1,0,-1
 57 667 l 1,1,-1
 427 667 l 1,2,-1
 427 517 l 1,3,-1
 220 517 l 1,4,-1
 220 414 l 1,5,-1
 421 414 l 1,6,-1
 421 264 l 1,7,-1
 220 264 l 1,8,-1
 220 150 l 1,9,-1
 427 150 l 1,10,-1
 427 0 l 1,11,-1
 57 0 l 1,0,-1
EndSplineSet
Validated: 1
EndChar

StartChar: F
Encoding: 70 70 40
Width: 444
Flags: W
LayerCount: 2
Fore
SplineSet
57 0 m 1,0,-1
 57 667 l 1,1,-1
 421 667 l 1,2,-1
 421 517 l 1,3,-1
 220 517 l 1,4,-1
 220 404 l 1,5,-1
 414 404 l 1,6,-1
 414 254 l 1,7,-1
 220 254 l 1,8,-1
 220 0 l 1,9,-1
 57 0 l 1,0,-1
EndSplineSet
Validated: 1
EndChar

StartChar: G
Encoding: 71 71 41
Width: 767
Flags: W
LayerCount: 2
Fore
SplineSet
342 379 m 1,0,-1
 737 379 l 1,1,2
 738 367 738 367 738.5 360 c 128,-1,3
 739 353 739 353 739 345 c 0,4,5
 739 268 739 268 712 202.5 c 128,-1,6
 685 137 685 137 637 89 c 128,-1,7
 589 41 589 41 523.5 14 c 128,-1,8
 458 -13 458 -13 382 -13 c 0,9,10
 308 -13 308 -13 243.5 14 c 128,-1,11
 179 41 179 41 131.5 88.5 c 128,-1,12
 84 136 84 136 56.5 199.5 c 128,-1,13
 29 263 29 263 29 336 c 256,14,15
 29 409 29 409 56.5 471.5 c 128,-1,16
 84 534 84 534 132 580.5 c 128,-1,17
 180 627 180 627 245 653.5 c 128,-1,18
 310 680 310 680 386 680 c 0,19,20
 443 680 443 680 496.5 662 c 128,-1,21
 550 644 550 644 594.5 612.5 c 128,-1,22
 639 581 639 581 671.5 537.5 c 128,-1,23
 704 494 704 494 718 443 c 1,24,-1
 527 443 l 1,25,26
 504 485 504 485 466.5 507.5 c 128,-1,27
 429 530 429 530 381 530 c 0,28,29
 342 530 342 530 308.5 516 c 128,-1,30
 275 502 275 502 251 477 c 128,-1,31
 227 452 227 452 213 417.5 c 128,-1,32
 199 383 199 383 199 343 c 0,33,34
 199 296 199 296 213 258 c 128,-1,35
 227 220 227 220 252.5 193 c 128,-1,36
 278 166 278 166 313.5 151 c 128,-1,37
 349 136 349 136 393 136 c 0,38,39
 450 136 450 136 489 164.5 c 128,-1,40
 528 193 528 193 540 243 c 1,41,-1
 342 243 l 1,42,-1
 342 379 l 1,0,-1
EndSplineSet
Validated: 1
EndChar

StartChar: H
Encoding: 72 72 42
Width: 671
Flags: W
LayerCount: 2
Fore
SplineSet
57 0 m 1,0,-1
 57 667 l 1,1,-1
 227 667 l 1,2,-1
 227 417 l 1,3,-1
 445 417 l 1,4,-1
 445 667 l 1,5,-1
 615 667 l 1,6,-1
 615 0 l 1,7,-1
 445 0 l 1,8,-1
 445 267 l 1,9,-1
 227 267 l 1,10,-1
 227 0 l 1,11,-1
 57 0 l 1,0,-1
EndSplineSet
Validated: 1
EndChar

StartChar: I
Encoding: 73 73 43
Width: 283
Flags: W
LayerCount: 2
Fore
SplineSet
57 0 m 1,0,-1
 57 667 l 1,1,-1
 227 667 l 1,2,-1
 227 0 l 1,3,-1
 57 0 l 1,0,-1
EndSplineSet
Validated: 1
EndChar

StartChar: J
Encoding: 74 74 44
Width: 504
Flags: W
LayerCount: 2
Fore
SplineSet
284 667 m 1,0,-1
 454 667 l 1,1,-1
 454 263 l 2,2,3
 454 224 454 224 452 195 c 128,-1,4
 450 166 450 166 445.5 144.5 c 128,-1,5
 441 123 441 123 433 106 c 128,-1,6
 425 89 425 89 413 74 c 0,7,8
 381 33 381 33 331 10 c 128,-1,9
 281 -13 281 -13 224 -13 c 0,10,11
 188 -13 188 -13 155 -3.5 c 128,-1,12
 122 6 122 6 94.5 23 c 128,-1,13
 67 40 67 40 46.5 63.5 c 128,-1,14
 26 87 26 87 16 116 c 0,15,16
 11 129 11 129 8 139.5 c 128,-1,17
 5 150 5 150 3 160.5 c 128,-1,18
 1 171 1 171 0.5 183.5 c 128,-1,19
 0 196 0 196 0 214 c 1,20,-1
 181 214 l 1,21,22
 183 173 183 173 195 155 c 128,-1,23
 207 137 207 137 233 137 c 0,24,25
 261 137 261 137 272.5 156 c 128,-1,26
 284 175 284 175 284 221 c 2,27,-1
 284 667 l 1,0,-1
EndSplineSet
Validated: 1
EndChar

StartChar: K
Encoding: 75 75 45
Width: 603
Flags: W
LayerCount: 2
Fore
SplineSet
57 0 m 1,0,-1
 57 667 l 1,1,-1
 227 667 l 1,2,-1
 227 366 l 1,3,-1
 417 667 l 1,4,-1
 596 667 l 1,5,-1
 374 334 l 1,6,-1
 610 0 l 1,7,-1
 410 0 l 1,8,-1
 227 288 l 1,9,-1
 227 0 l 1,10,-1
 57 0 l 1,0,-1
EndSplineSet
Validated: 1
EndChar

StartChar: L
Encoding: 76 76 46
Width: 437
Flags: W
LayerCount: 2
Fore
SplineSet
57 0 m 1,0,-1
 57 667 l 1,1,-1
 227 667 l 1,2,-1
 227 150 l 1,3,-1
 424 150 l 1,4,-1
 424 0 l 1,5,-1
 57 0 l 1,0,-1
EndSplineSet
Validated: 1
EndChar

StartChar: M
Encoding: 77 77 47
Width: 817
Flags: W
LayerCount: 2
Fore
SplineSet
57 0 m 1,0,-1
 57 667 l 1,1,-1
 276 667 l 1,2,-1
 408 228 l 1,3,-1
 540 667 l 1,4,-1
 760 667 l 1,5,-1
 760 0 l 1,6,-1
 603 0 l 1,7,-1
 609 501 l 1,8,-1
 465 0 l 1,9,-1
 352 0 l 1,10,-1
 208 501 l 1,11,-1
 213 0 l 1,12,-1
 57 0 l 1,0,-1
EndSplineSet
Validated: 1
EndChar

StartChar: N
Encoding: 78 78 48
Width: 676
Flags: W
LayerCount: 2
Fore
SplineSet
57 0 m 1,0,-1
 57 667 l 1,1,-1
 203 667 l 1,2,-1
 463 247 l 1,3,-1
 456 667 l 1,4,-1
 619 667 l 1,5,-1
 619 0 l 1,6,-1
 471 0 l 1,7,-1
 213 405 l 1,8,-1
 220 0 l 1,9,-1
 57 0 l 1,0,-1
EndSplineSet
Validated: 1
EndChar

StartChar: O
Encoding: 79 79 49
Width: 761
Flags: W
LayerCount: 2
Fore
SplineSet
379 -13 m 0,0,1
 305 -13 305 -13 241 13.5 c 128,-1,2
 177 40 177 40 130 86.5 c 128,-1,3
 83 133 83 133 56 196 c 128,-1,4
 29 259 29 259 29 332 c 0,5,6
 29 406 29 406 56 469.5 c 128,-1,7
 83 533 83 533 130 580 c 128,-1,8
 177 627 177 627 241 653.5 c 128,-1,9
 305 680 305 680 379 680 c 0,10,11
 454 680 454 680 518.5 653 c 128,-1,12
 583 626 583 626 630.5 579.5 c 128,-1,13
 678 533 678 533 705.5 469.5 c 128,-1,14
 733 406 733 406 733 333 c 256,15,16
 733 260 733 260 705.5 197 c 128,-1,17
 678 134 678 134 630.5 87.5 c 128,-1,18
 583 41 583 41 518.5 14 c 128,-1,19
 454 -13 454 -13 379 -13 c 0,0,1
381 530 m 256,20,21
 342 530 342 530 308.5 515 c 128,-1,22
 275 500 275 500 251 474 c 128,-1,23
 227 448 227 448 213 412.5 c 128,-1,24
 199 377 199 377 199 335 c 256,25,26
 199 293 199 293 213 256.5 c 128,-1,27
 227 220 227 220 251.5 193.5 c 128,-1,28
 276 167 276 167 310 152 c 128,-1,29
 344 137 344 137 383 137 c 0,30,31
 421 137 421 137 454 152 c 128,-1,32
 487 167 487 167 511 193 c 128,-1,33
 535 219 535 219 549 255 c 128,-1,34
 563 291 563 291 563 332 c 0,35,36
 563 374 563 374 549 410 c 128,-1,37
 535 446 535 446 510.5 473 c 128,-1,38
 486 500 486 500 453 515 c 128,-1,39
 420 530 420 530 381 530 c 256,20,21
EndSplineSet
Validated: 1
EndChar

StartChar: P
Encoding: 80 80 50
Width: 578
Flags: W
LayerCount: 2
Fore
SplineSet
57 0 m 1,0,-1
 57 667 l 1,1,-1
 275 667 l 2,2,3
 315 667 315 667 346 664.5 c 128,-1,4
 377 662 377 662 401 656 c 128,-1,5
 425 650 425 650 444 640.5 c 128,-1,6
 463 631 463 631 480 617 c 0,7,8
 518 586 518 586 538 540 c 128,-1,9
 558 494 558 494 558 440 c 0,10,11
 558 389 558 389 539 343 c 128,-1,12
 520 297 520 297 488 267 c 0,13,14
 454 235 454 235 409 222 c 128,-1,15
 364 209 364 209 293 209 c 2,16,-1
 220 209 l 1,17,-1
 220 0 l 1,18,-1
 57 0 l 1,0,-1
220 360 m 1,19,-1
 289 360 l 2,20,21
 395 360 395 360 395 438 c 0,22,23
 395 480 395 480 368.5 498.5 c 128,-1,24
 342 517 342 517 282 517 c 2,25,-1
 220 517 l 1,26,-1
 220 360 l 1,19,-1
EndSplineSet
Validated: 1
EndChar

StartChar: Q
Encoding: 81 81 51
Width: 765
Flags: W
LayerCount: 2
Fore
SplineSet
753 122 m 0,0,1
 756 122 756 122 759 122.5 c 128,-1,2
 762 123 762 123 767 123 c 1,3,-1
 767 -12 l 1,4,5
 751 -13 751 -13 743.5 -13.5 c 128,-1,6
 736 -14 736 -14 725 -14 c 0,7,8
 674 -14 674 -14 633 0 c 128,-1,9
 592 14 592 14 569 39 c 1,10,11
 483 -13 483 -13 388 -13 c 0,12,13
 312 -13 312 -13 246.5 13.5 c 128,-1,14
 181 40 181 40 132.5 86 c 128,-1,15
 84 132 84 132 56.5 195 c 128,-1,16
 29 258 29 258 29 330 c 0,17,18
 29 403 29 403 56 467 c 128,-1,19
 83 531 83 531 130.5 578.5 c 128,-1,20
 178 626 178 626 241.5 653 c 128,-1,21
 305 680 305 680 379 680 c 0,22,23
 454 680 454 680 519.5 653 c 128,-1,24
 585 626 585 626 633.5 579 c 128,-1,25
 682 532 682 532 709.5 468 c 128,-1,26
 737 404 737 404 737 330 c 0,27,28
 737 279 737 279 723.5 235 c 128,-1,29
 710 191 710 191 680 146 c 1,30,31
 706 122 706 122 753 122 c 0,0,1
452 328 m 0,32,33
 467 317 467 317 478 308.5 c 128,-1,34
 489 300 489 300 499.5 290.5 c 128,-1,35
 510 281 510 281 520 269 c 128,-1,36
 530 257 530 257 544 241 c 1,37,38
 557 274 557 274 562 294 c 128,-1,39
 567 314 567 314 567 340 c 0,40,41
 567 381 567 381 553 416 c 128,-1,42
 539 451 539 451 514 476.5 c 128,-1,43
 489 502 489 502 454.5 516 c 128,-1,44
 420 530 420 530 379 530 c 0,45,46
 309 530 309 530 261 485 c 128,-1,47
 213 440 213 440 200 362 c 1,48,49
 230 375 230 375 250 379.5 c 128,-1,50
 270 384 270 384 295 384 c 0,51,52
 372 384 372 384 452 328 c 0,32,33
377 137 m 0,53,54
 398 137 398 137 412 142 c 128,-1,55
 426 147 426 147 448 162 c 1,56,57
 423 194 423 194 402 212 c 128,-1,58
 381 230 381 230 352 243 c 0,59,60
 317 260 317 260 277 260 c 0,61,62
 260 260 260 260 247.5 257.5 c 128,-1,63
 235 255 235 255 217 249 c 1,64,65
 238 198 238 198 282 167.5 c 128,-1,66
 326 137 326 137 377 137 c 0,53,54
EndSplineSet
Validated: 1
EndChar

StartChar: R
Encoding: 82 82 52
Width: 586
Flags: W
LayerCount: 2
Fore
SplineSet
57 0 m 1,0,-1
 57 667 l 1,1,-1
 268 667 l 2,2,3
 310 667 310 667 341 664.5 c 128,-1,4
 372 662 372 662 396 656.5 c 128,-1,5
 420 651 420 651 438 642 c 128,-1,6
 456 633 456 633 473 619 c 0,7,8
 511 587 511 587 533 539 c 128,-1,9
 555 491 555 491 555 436 c 0,10,11
 555 353 555 353 510 296.5 c 128,-1,12
 465 240 465 240 389 227 c 1,13,-1
 570 0 l 1,14,-1
 375 0 l 1,15,-1
 220 216 l 1,16,-1
 220 0 l 1,17,-1
 57 0 l 1,0,-1
220 332 m 1,18,-1
 280 332 l 2,19,20
 334 332 334 332 362.5 356.5 c 128,-1,21
 391 381 391 381 391 426 c 256,22,23
 391 471 391 471 363 494 c 128,-1,24
 335 517 335 517 282 517 c 2,25,-1
 220 517 l 1,26,-1
 220 332 l 1,18,-1
EndSplineSet
Validated: 1
EndChar

StartChar: S
Encoding: 83 83 53
Width: 516
Flags: W
LayerCount: 2
Fore
SplineSet
439 604 m 0,0,1
 451 589 451 589 459 576 c 128,-1,2
 467 563 467 563 472 548 c 128,-1,3
 477 533 477 533 479.5 515 c 128,-1,4
 482 497 482 497 484 473 c 1,5,-1
 315 473 l 1,6,7
 310 507 310 507 295.5 522 c 128,-1,8
 281 537 281 537 254 537 c 0,9,10
 230 537 230 537 212.5 522 c 128,-1,11
 195 507 195 507 195 486 c 0,12,13
 195 446 195 446 252 420 c 2,14,-1
 334 383 l 2,15,16
 418 345 418 345 453.5 300.5 c 128,-1,17
 489 256 489 256 489 191 c 0,18,19
 489 94 489 94 427.5 40.5 c 128,-1,20
 366 -13 366 -13 256 -13 c 0,21,22
 200 -13 200 -13 155.5 1.5 c 128,-1,23
 111 16 111 16 79.5 43.5 c 128,-1,24
 48 71 48 71 31 110 c 128,-1,25
 14 149 14 149 14 198 c 2,26,-1
 14 220 l 1,27,-1
 185 220 l 1,28,29
 185 178 185 178 203.5 154 c 128,-1,30
 222 130 222 130 254 130 c 0,31,32
 282 130 282 130 301 148.5 c 128,-1,33
 320 167 320 167 320 194 c 0,34,35
 320 217 320 217 303.5 234 c 128,-1,36
 287 251 287 251 249 266 c 1,37,38
 219 279 219 279 199.5 286.5 c 128,-1,39
 180 294 180 294 172 298 c 0,40,41
 149 308 149 308 129 319.5 c 128,-1,42
 109 331 109 331 92 345 c 0,43,44
 61 370 61 370 43 406.5 c 128,-1,45
 25 443 25 443 25 483 c 0,46,47
 25 525 25 525 43 561 c 128,-1,48
 61 597 61 597 92.5 623.5 c 128,-1,49
 124 650 124 650 167 665 c 128,-1,50
 210 680 210 680 259 680 c 0,51,52
 313 680 313 680 361.5 659.5 c 128,-1,53
 410 639 410 639 439 604 c 0,0,1
EndSplineSet
Validated: 1
EndChar

StartChar: T
Encoding: 84 84 54
Width: 447
Flags: W
LayerCount: 2
Fore
SplineSet
139 0 m 1,0,-1
 139 517 l 1,1,-1
 7 517 l 1,2,-1
 7 667 l 1,3,-1
 441 667 l 1,4,-1
 441 517 l 1,5,-1
 309 517 l 1,6,-1
 309 0 l 1,7,-1
 139 0 l 1,0,-1
EndSplineSet
Validated: 1
EndChar

StartChar: U
Encoding: 85 85 55
Width: 612
Flags: W
LayerCount: 2
Fore
SplineSet
50 667 m 1,0,-1
 220 667 l 1,1,-1
 220 263 l 2,2,3
 220 197 220 197 240.5 167 c 128,-1,4
 261 137 261 137 307 137 c 0,5,6
 354 137 354 137 373 165 c 128,-1,7
 392 193 392 193 392 263 c 2,8,-1
 392 667 l 1,9,-1
 562 667 l 1,10,-1
 562 263 l 2,11,12
 562 189 562 189 547 142.5 c 128,-1,13
 532 96 532 96 496 59 c 0,14,15
 425 -13 425 -13 307 -13 c 0,16,17
 248 -13 248 -13 200 5 c 128,-1,18
 152 23 152 23 117 58 c 0,19,20
 98 77 98 77 85 96.5 c 128,-1,21
 72 116 72 116 64.5 140 c 128,-1,22
 57 164 57 164 53.5 193.5 c 128,-1,23
 50 223 50 223 50 263 c 2,24,-1
 50 667 l 1,0,-1
EndSplineSet
Validated: 1
EndChar

StartChar: V
Encoding: 86 86 56
Width: 602
Flags: W
LayerCount: 2
Fore
SplineSet
-10 667 m 1,0,-1
 166 667 l 1,1,-1
 301 199 l 1,2,-1
 436 667 l 1,3,-1
 612 667 l 1,4,-1
 388 0 l 1,5,-1
 213 0 l 1,6,-1
 -10 667 l 1,0,-1
EndSplineSet
Validated: 1
EndChar

StartChar: W
Encoding: 87 87 57
Width: 868
Flags: W
LayerCount: 2
Fore
SplineSet
7 667 m 1,0,-1
 180 667 l 1,1,-1
 269 233 l 1,2,-1
 368 667 l 1,3,-1
 499 667 l 1,4,-1
 597 231 l 1,5,-1
 688 667 l 1,6,-1
 861 667 l 1,7,-1
 684 0 l 1,8,-1
 534 0 l 1,9,-1
 433 431 l 1,10,-1
 332 0 l 1,11,-1
 179 0 l 1,12,-1
 7 667 l 1,0,-1
EndSplineSet
Validated: 1
EndChar

StartChar: X
Encoding: 88 88 58
Width: 644
Flags: W
LayerCount: 2
Fore
SplineSet
435 667 m 1,0,-1
 627 667 l 1,1,-1
 423 352 l 1,2,-1
 654 0 l 1,3,-1
 461 0 l 1,4,-1
 317 236 l 1,5,-1
 180 0 l 1,6,-1
 -10 0 l 1,7,-1
 223 355 l 1,8,-1
 17 667 l 1,9,-1
 210 667 l 1,10,-1
 324 476 l 1,11,-1
 435 667 l 1,0,-1
EndSplineSet
Validated: 1
EndChar

StartChar: Y
Encoding: 89 89 59
Width: 547
Flags: W
LayerCount: 2
Fore
SplineSet
189 0 m 1,0,-1
 189 243 l 1,1,-1
 -10 667 l 1,2,-1
 175 667 l 1,3,-1
 274 399 l 1,4,-1
 374 667 l 1,5,-1
 557 667 l 1,6,-1
 359 243 l 1,7,-1
 359 0 l 1,8,-1
 189 0 l 1,0,-1
EndSplineSet
Validated: 1
EndChar

StartChar: Z
Encoding: 90 90 60
Width: 457
Flags: W
LayerCount: 2
Fore
SplineSet
17 0 m 1,0,-1
 17 112 l 1,1,-1
 247 517 l 1,2,-1
 17 517 l 1,3,-1
 17 667 l 1,4,-1
 437 667 l 1,5,-1
 437 529 l 1,6,-1
 224 150 l 1,7,-1
 437 150 l 1,8,-1
 437 0 l 1,9,-1
 17 0 l 1,0,-1
EndSplineSet
Validated: 1
EndChar

StartChar: bracketleft
Encoding: 91 91 61
Width: 372
Flags: W
LayerCount: 2
Fore
SplineSet
295 677 m 0,0,1
 302 679 302 679 312 680 c 1,2,-1
 312 533 l 1,3,4
 258 531 258 531 235.5 503.5 c 128,-1,5
 213 476 213 476 213 413 c 2,6,-1
 213 30 l 2,7,8
 213 -33 213 -33 235.5 -61 c 128,-1,9
 258 -89 258 -89 312 -91 c 1,10,-1
 312 -238 l 1,11,-1
 297 -235 l 2,12,13
 272 -230 272 -230 253.5 -225.5 c 128,-1,14
 235 -221 235 -221 219.5 -215.5 c 128,-1,15
 204 -210 204 -210 190 -202.5 c 128,-1,16
 176 -195 176 -195 160 -184 c 0,17,18
 118 -153 118 -153 94 -112 c 0,19,20
 76 -80 76 -80 68 -43.5 c 128,-1,21
 60 -7 60 -7 60 47 c 2,22,-1
 60 396 l 2,23,24
 60 480 60 480 83.5 533 c 128,-1,25
 107 586 107 586 160 626 c 0,26,27
 176 638 176 638 188.5 645.5 c 128,-1,28
 201 653 201 653 215.5 658.5 c 128,-1,29
 230 664 230 664 248.5 668 c 128,-1,30
 267 672 267 672 295 677 c 0,0,1
EndSplineSet
Validated: 1
EndChar

StartChar: backslash
Encoding: 92 92 62
Width: 500
Flags: W
LayerCount: 2
Fore
SplineSet
151 750 m 1,0,-1
 457 -83 l 1,1,-1
 334 -83 l 1,2,-1
 27 750 l 1,3,-1
 151 750 l 1,0,-1
EndSplineSet
Validated: 1
EndChar

StartChar: bracketright
Encoding: 93 93 63
Width: 372
Flags: W
LayerCount: 2
Fore
SplineSet
77 -235 m 0,0,1
 72 -235 72 -235 60 -238 c 1,2,-1
 60 -91 l 1,3,4
 114 -89 114 -89 136.5 -61 c 128,-1,5
 159 -33 159 -33 159 30 c 2,6,-1
 159 413 l 2,7,8
 159 476 159 476 136.5 503.5 c 128,-1,9
 114 531 114 531 60 533 c 1,10,-1
 60 680 l 1,11,-1
 75 678 l 2,12,13
 100 675 100 675 118.5 670.5 c 128,-1,14
 137 666 137 666 152.5 660 c 128,-1,15
 168 654 168 654 182 646 c 128,-1,16
 196 638 196 638 212 626 c 0,17,18
 254 595 254 595 278 554 c 0,19,20
 296 522 296 522 304 486 c 128,-1,21
 312 450 312 450 312 396 c 2,22,-1
 312 47 l 2,23,24
 312 -37 312 -37 288.5 -90.5 c 128,-1,25
 265 -144 265 -144 212 -184 c 0,26,27
 196 -196 196 -196 183.5 -203.5 c 128,-1,28
 171 -211 171 -211 156.5 -216.5 c 128,-1,29
 142 -222 142 -222 123.5 -226 c 128,-1,30
 105 -230 105 -230 77 -235 c 0,0,1
EndSplineSet
Validated: 1
EndChar

StartChar: asciicircum
Encoding: 94 94 64
Width: 500
Flags: W
LayerCount: 2
Fore
SplineSet
138 336 m 1,0,-1
 6 336 l 1,1,-1
 167 670 l 1,2,-1
 333 670 l 1,3,-1
 494 336 l 1,4,-1
 362 336 l 1,5,-1
 250 569 l 1,6,-1
 138 336 l 1,0,-1
EndSplineSet
Validated: 1
EndChar

StartChar: underscore
Encoding: 95 95 65
Width: 500
Flags: W
LayerCount: 2
Fore
SplineSet
0 -47 m 1,0,-1
 500 -47 l 1,1,-1
 500 -161 l 1,2,-1
 0 -161 l 1,3,-1
 0 -47 l 1,0,-1
EndSplineSet
Validated: 1
EndChar

StartChar: grave
Encoding: 96 96 66
Width: 500
Flags: W
LayerCount: 2
Fore
SplineSet
149 765 m 1,0,-1
 344 617 l 1,1,-1
 293 543 l 1,2,-1
 89 674 l 1,3,-1
 149 765 l 1,0,-1
EndSplineSet
Validated: 1
EndChar

StartChar: a
Encoding: 97 97 67
Width: 627
Flags: W
LayerCount: 2
Fore
SplineSet
577 500 m 1,0,-1
 577 0 l 1,1,-1
 436 0 l 1,2,-1
 436 54 l 1,3,4
 400 -17 400 -17 281 -17 c 0,5,6
 224 -17 224 -17 177.5 2.5 c 128,-1,7
 131 22 131 22 97.5 57 c 128,-1,8
 64 92 64 92 45.5 141 c 128,-1,9
 27 190 27 190 27 250 c 0,10,11
 27 309 27 309 46 358.5 c 128,-1,12
 65 408 65 408 99 443.5 c 128,-1,13
 133 479 133 479 180 498.5 c 128,-1,14
 227 518 227 518 284 518 c 256,15,16
 341 518 341 518 378 501 c 128,-1,17
 415 484 415 484 436 447 c 1,18,-1
 436 500 l 1,19,-1
 577 500 l 1,0,-1
301 377 m 0,20,21
 275 377 275 377 252 367.5 c 128,-1,22
 229 358 229 358 212.5 340.5 c 128,-1,23
 196 323 196 323 186.5 300 c 128,-1,24
 177 277 177 277 177 250 c 256,25,26
 177 223 177 223 186.5 200 c 128,-1,27
 196 177 196 177 213 159.5 c 128,-1,28
 230 142 230 142 253 132.5 c 128,-1,29
 276 123 276 123 302 123 c 0,30,31
 329 123 329 123 352 132.5 c 128,-1,32
 375 142 375 142 391.5 159 c 128,-1,33
 408 176 408 176 417.5 199.5 c 128,-1,34
 427 223 427 223 427 251 c 0,35,36
 427 278 427 278 417.5 301 c 128,-1,37
 408 324 408 324 391.5 341 c 128,-1,38
 375 358 375 358 351.5 367.5 c 128,-1,39
 328 377 328 377 301 377 c 0,20,21
EndSplineSet
Validated: 1
EndChar

StartChar: b
Encoding: 98 98 68
Width: 618
Flags: W
LayerCount: 2
Fore
SplineSet
50 0 m 1,0,-1
 50 667 l 1,1,-1
 200 667 l 1,2,-1
 200 460 l 1,3,4
 254 517 254 517 344 517 c 0,5,6
 398 517 398 517 443 497.5 c 128,-1,7
 488 478 488 478 521 442.5 c 128,-1,8
 554 407 554 407 572.5 358.5 c 128,-1,9
 591 310 591 310 591 253 c 0,10,11
 591 194 591 194 572.5 144.5 c 128,-1,12
 554 95 554 95 520 59 c 128,-1,13
 486 23 486 23 439.5 3 c 128,-1,14
 393 -17 393 -17 338 -17 c 0,15,16
 315 -17 315 -17 297 -13.5 c 128,-1,17
 279 -10 279 -10 262 -2 c 128,-1,18
 245 6 245 6 228 20 c 128,-1,19
 211 34 211 34 192 54 c 1,20,-1
 192 0 l 1,21,-1
 50 0 l 1,0,-1
318 377 m 0,22,23
 291 377 291 377 268.5 367.5 c 128,-1,24
 246 358 246 358 229.5 340.5 c 128,-1,25
 213 323 213 323 203.5 300 c 128,-1,26
 194 277 194 277 194 250 c 256,27,28
 194 223 194 223 203 199.5 c 128,-1,29
 212 176 212 176 228.5 159 c 128,-1,30
 245 142 245 142 267.5 132.5 c 128,-1,31
 290 123 290 123 316 123 c 0,32,33
 343 123 343 123 365.5 132.5 c 128,-1,34
 388 142 388 142 405 159.5 c 128,-1,35
 422 177 422 177 431.5 200 c 128,-1,36
 441 223 441 223 441 250 c 256,37,38
 441 277 441 277 431.5 300 c 128,-1,39
 422 323 422 323 405.5 340 c 128,-1,40
 389 357 389 357 366.5 367 c 128,-1,41
 344 377 344 377 318 377 c 0,22,23
EndSplineSet
Validated: 1
EndChar

StartChar: c
Encoding: 99 99 69
Width: 574
Flags: W
LayerCount: 2
Fore
SplineSet
296 123 m 0,0,1
 331 123 331 123 357 139 c 128,-1,2
 383 155 383 155 406 190 c 1,3,-1
 557 190 l 1,4,5
 546 144 546 144 521.5 106 c 128,-1,6
 497 68 497 68 462.5 40.5 c 128,-1,7
 428 13 428 13 385 -2 c 128,-1,8
 342 -17 342 -17 295 -17 c 0,9,10
 239 -17 239 -17 190 4 c 128,-1,11
 141 25 141 25 105 61 c 128,-1,12
 69 97 69 97 48 146 c 128,-1,13
 27 195 27 195 27 251 c 256,14,15
 27 307 27 307 47.5 355.5 c 128,-1,16
 68 404 68 404 103.5 440 c 128,-1,17
 139 476 139 476 187 496.5 c 128,-1,18
 235 517 235 517 291 517 c 0,19,20
 340 517 340 517 384 502 c 128,-1,21
 428 487 428 487 463 459 c 128,-1,22
 498 431 498 431 522 392.5 c 128,-1,23
 546 354 546 354 556 307 c 1,24,-1
 405 307 l 1,25,26
 391 340 391 340 362 358.5 c 128,-1,27
 333 377 333 377 296 377 c 0,28,29
 270 377 270 377 248 367.5 c 128,-1,30
 226 358 226 358 210.5 340.5 c 128,-1,31
 195 323 195 323 186 299.5 c 128,-1,32
 177 276 177 276 177 248 c 0,33,34
 177 193 177 193 210.5 158 c 128,-1,35
 244 123 244 123 296 123 c 0,0,1
EndSplineSet
Validated: 1
EndChar

StartChar: d
Encoding: 100 100 70
Width: 623
Flags: W
LayerCount: 2
Fore
SplineSet
573 667 m 1,0,-1
 573 0 l 1,1,-1
 431 0 l 1,2,-1
 431 53 l 1,3,4
 401 16 401 16 365.5 -0.5 c 128,-1,5
 330 -17 330 -17 278 -17 c 0,6,7
 223 -17 223 -17 177 3 c 128,-1,8
 131 23 131 23 97.5 58.5 c 128,-1,9
 64 94 64 94 45.5 143 c 128,-1,10
 27 192 27 192 27 251 c 0,11,12
 27 308 27 308 46 357 c 128,-1,13
 65 406 65 406 98 441.5 c 128,-1,14
 131 477 131 477 176.5 497 c 128,-1,15
 222 517 222 517 275 517 c 0,16,17
 322 517 322 517 357 502.5 c 128,-1,18
 392 488 392 488 423 458 c 1,19,-1
 423 667 l 1,20,-1
 573 667 l 1,0,-1
305 377 m 0,21,22
 277 377 277 377 253.5 367.5 c 128,-1,23
 230 358 230 358 213 341.5 c 128,-1,24
 196 325 196 325 186.5 301.5 c 128,-1,25
 177 278 177 278 177 251 c 0,26,27
 177 223 177 223 186.5 199.5 c 128,-1,28
 196 176 196 176 212.5 159 c 128,-1,29
 229 142 229 142 252.5 132.5 c 128,-1,30
 276 123 276 123 303 123 c 0,31,32
 359 123 359 123 395 159 c 128,-1,33
 431 195 431 195 431 252 c 0,34,35
 431 279 431 279 421.5 301.5 c 128,-1,36
 412 324 412 324 395 341 c 128,-1,37
 378 358 378 358 355 367.5 c 128,-1,38
 332 377 332 377 305 377 c 0,21,22
EndSplineSet
Validated: 1
EndChar

StartChar: e
Encoding: 101 101 71
Width: 578
Flags: W
LayerCount: 2
Fore
SplineSet
374 149 m 0,0,1
 375 151 375 151 377 152.5 c 128,-1,2
 379 154 379 154 381 156 c 1,3,-1
 533 156 l 1,4,5
 498 75 498 75 434 29 c 128,-1,6
 370 -17 370 -17 290 -17 c 0,7,8
 235 -17 235 -17 187 3.5 c 128,-1,9
 139 24 139 24 103.5 60 c 128,-1,10
 68 96 68 96 47.5 144.5 c 128,-1,11
 27 193 27 193 27 249 c 256,12,13
 27 305 27 305 47.5 354 c 128,-1,14
 68 403 68 403 103 439 c 128,-1,15
 138 475 138 475 185.5 496 c 128,-1,16
 233 517 233 517 287 517 c 0,17,18
 343 517 343 517 391.5 496 c 128,-1,19
 440 475 440 475 475.5 438.5 c 128,-1,20
 511 402 511 402 531 352 c 128,-1,21
 551 302 551 302 551 244 c 0,22,23
 551 231 551 231 550 223.5 c 128,-1,24
 549 216 549 216 547 203 c 1,25,-1
 172 203 l 1,26,27
 177 161 177 161 207 135.5 c 128,-1,28
 237 110 237 110 282 110 c 0,29,30
 310 110 310 110 330 118 c 128,-1,31
 350 126 350 126 374 149 c 0,0,1
401 303 m 1,32,33
 393 342 393 342 362.5 366 c 128,-1,34
 332 390 332 390 288 390 c 256,35,36
 244 390 244 390 214.5 367.5 c 128,-1,37
 185 345 185 345 176 303 c 1,38,-1
 401 303 l 1,32,33
EndSplineSet
Validated: 1
EndChar

StartChar: f
Encoding: 102 102 72
Width: 294
Flags: W
LayerCount: 2
Fore
SplineSet
63 0 m 1,0,-1
 63 387 l 1,1,-1
 8 387 l 1,2,-1
 8 500 l 1,3,-1
 63 500 l 1,4,-1
 63 526 l 2,5,6
 63 564 63 564 75 594 c 128,-1,7
 87 624 87 624 110 642 c 0,8,9
 137 663 137 663 169 671.5 c 128,-1,10
 201 680 201 680 254 680 c 2,11,-1
 277 680 l 1,12,-1
 277 567 l 1,13,-1
 259 567 l 2,14,15
 213 567 213 567 213 520 c 2,16,-1
 213 500 l 1,17,-1
 277 500 l 1,18,-1
 277 387 l 1,19,-1
 213 387 l 1,20,-1
 213 0 l 1,21,-1
 63 0 l 1,0,-1
EndSplineSet
Validated: 1
EndChar

StartChar: g
Encoding: 103 103 73
Width: 620
Flags: W
LayerCount: 2
Fore
SplineSet
570 500 m 1,0,-1
 570 60 l 2,1,2
 570 18 570 18 568.5 -10 c 128,-1,3
 567 -38 567 -38 562 -58 c 128,-1,4
 557 -78 557 -78 548.5 -93.5 c 128,-1,5
 540 -109 540 -109 526 -125 c 0,6,7
 484 -173 484 -173 423 -198 c 128,-1,8
 362 -223 362 -223 287 -223 c 0,9,10
 236 -223 236 -223 192.5 -210.5 c 128,-1,11
 149 -198 149 -198 116 -175 c 128,-1,12
 83 -152 83 -152 62.5 -119.5 c 128,-1,13
 42 -87 42 -87 37 -47 c 1,14,-1
 210 -47 l 1,15,16
 231 -96 231 -96 298 -96 c 0,17,18
 356 -96 356 -96 387.5 -60.5 c 128,-1,19
 419 -25 419 -25 419 39 c 2,20,-1
 419 55 l 1,21,22
 411 40 411 40 396 26.5 c 128,-1,23
 381 13 381 13 361 3.5 c 128,-1,24
 341 -6 341 -6 317.5 -11.5 c 128,-1,25
 294 -17 294 -17 270 -17 c 0,26,27
 219 -17 219 -17 174.5 3.5 c 128,-1,28
 130 24 130 24 97.5 60 c 128,-1,29
 65 96 65 96 46 144 c 128,-1,30
 27 192 27 192 27 247 c 0,31,32
 27 305 27 305 46.5 354.5 c 128,-1,33
 66 404 66 404 100 440 c 128,-1,34
 134 476 134 476 180.5 496.5 c 128,-1,35
 227 517 227 517 282 517 c 0,36,37
 377 517 377 517 428 454 c 1,38,-1
 428 500 l 1,39,-1
 570 500 l 1,0,-1
299 377 m 0,40,41
 273 377 273 377 251 367.5 c 128,-1,42
 229 358 229 358 212.5 341 c 128,-1,43
 196 324 196 324 186.5 301 c 128,-1,44
 177 278 177 278 177 252 c 0,45,46
 177 196 177 196 211 159.5 c 128,-1,47
 245 123 245 123 298 123 c 0,48,49
 352 123 352 123 386 158 c 128,-1,50
 420 193 420 193 420 248 c 0,51,52
 420 305 420 305 386.5 341 c 128,-1,53
 353 377 353 377 299 377 c 0,40,41
EndSplineSet
Validated: 1
EndChar

StartChar: h
Encoding: 104 104 74
Width: 560
Flags: W
LayerCount: 2
Fore
SplineSet
50 0 m 1,0,-1
 50 667 l 1,1,-1
 200 667 l 1,2,-1
 200 455 l 1,3,4
 237 517 237 517 331 517 c 0,5,6
 372 517 372 517 407.5 503 c 128,-1,7
 443 489 443 489 466 463 c 0,8,9
 480 448 480 448 489 432 c 128,-1,10
 498 416 498 416 503.5 395.5 c 128,-1,11
 509 375 509 375 511 347 c 128,-1,12
 513 319 513 319 513 279 c 2,13,-1
 513 0 l 1,14,-1
 363 0 l 1,15,-1
 363 273 l 2,16,17
 363 377 363 377 283 377 c 0,18,19
 200 377 200 377 200 277 c 2,20,-1
 200 0 l 1,21,-1
 50 0 l 1,0,-1
EndSplineSet
Validated: 1
EndChar

StartChar: i
Encoding: 105 105 75
Width: 250
Flags: W
LayerCount: 2
Fore
SplineSet
200 500 m 1,0,-1
 200 0 l 1,1,-1
 50 0 l 1,2,-1
 50 500 l 1,3,-1
 200 500 l 1,0,-1
200 667 m 1,4,-1
 200 553 l 1,5,-1
 50 553 l 1,6,-1
 50 667 l 1,7,-1
 200 667 l 1,4,-1
EndSplineSet
Validated: 1
EndChar

StartChar: j
Encoding: 106 106 76
Width: 250
Flags: W
LayerCount: 2
Fore
SplineSet
200 500 m 1,0,-1
 200 11 l 2,1,2
 200 -47 200 -47 191 -81.5 c 128,-1,3
 182 -116 182 -116 161 -138 c 0,4,5
 137 -163 137 -163 104 -173 c 128,-1,6
 71 -183 71 -183 14 -183 c 2,7,-1
 -23 -183 l 1,8,-1
 -23 -70 l 1,9,-1
 -3 -70 l 2,10,11
 27 -70 27 -70 38.5 -53.5 c 128,-1,12
 50 -37 50 -37 50 6 c 2,13,-1
 50 500 l 1,14,-1
 200 500 l 1,0,-1
200 667 m 1,15,-1
 200 553 l 1,16,-1
 50 553 l 1,17,-1
 50 667 l 1,18,-1
 200 667 l 1,15,-1
EndSplineSet
Validated: 1
EndChar

StartChar: k
Encoding: 107 107 77
Width: 511
Flags: W
LayerCount: 2
Fore
SplineSet
50 0 m 1,0,-1
 50 667 l 1,1,-1
 200 667 l 1,2,-1
 200 319 l 1,3,-1
 341 500 l 1,4,-1
 518 500 l 1,5,-1
 329 281 l 1,6,-1
 513 0 l 1,7,-1
 343 0 l 1,8,-1
 200 241 l 1,9,-1
 200 0 l 1,10,-1
 50 0 l 1,0,-1
EndSplineSet
Validated: 1
EndChar

StartChar: l
Encoding: 108 108 78
Width: 250
Flags: W
LayerCount: 2
Fore
SplineSet
50 0 m 1,0,-1
 50 667 l 1,1,-1
 200 667 l 1,2,-1
 200 0 l 1,3,-1
 50 0 l 1,0,-1
EndSplineSet
Validated: 1
EndChar

StartChar: m
Encoding: 109 109 79
Width: 864
Flags: W
LayerCount: 2
Fore
SplineSet
50 0 m 1,0,-1
 50 500 l 1,1,-1
 192 500 l 1,2,-1
 192 447 l 1,3,4
 237 517 237 517 329 517 c 0,5,6
 425 517 425 517 474 428 c 1,7,8
 529 517 529 517 633 517 c 0,9,10
 710 517 710 517 762 467 c 0,11,12
 779 450 779 450 790 434.5 c 128,-1,13
 801 419 801 419 807 397.5 c 128,-1,14
 813 376 813 376 815 346.5 c 128,-1,15
 817 317 817 317 817 273 c 2,16,-1
 817 0 l 1,17,-1
 667 0 l 1,18,-1
 667 266 l 2,19,20
 667 326 667 326 650 351.5 c 128,-1,21
 633 377 633 377 593 377 c 0,22,23
 511 377 511 377 511 273 c 2,24,-1
 511 0 l 1,25,-1
 361 0 l 1,26,-1
 361 273 l 2,27,28
 361 377 361 377 284 377 c 0,29,30
 200 377 200 377 200 273 c 2,31,-1
 200 0 l 1,32,-1
 50 0 l 1,0,-1
EndSplineSet
Validated: 1
EndChar

StartChar: n
Encoding: 110 110 80
Width: 560
Flags: W
LayerCount: 2
Fore
SplineSet
50 0 m 1,0,-1
 50 500 l 1,1,-1
 192 500 l 1,2,-1
 192 447 l 1,3,4
 218 484 218 484 249.5 500.5 c 128,-1,5
 281 517 281 517 329 517 c 0,6,7
 369 517 369 517 404 503.5 c 128,-1,8
 439 490 439 490 463 466 c 0,9,10
 478 452 478 452 487.5 437.5 c 128,-1,11
 497 423 497 423 502.5 405.5 c 128,-1,12
 508 388 508 388 510.5 365.5 c 128,-1,13
 513 343 513 343 513 313 c 2,14,-1
 513 0 l 1,15,-1
 363 0 l 1,16,-1
 363 273 l 2,17,18
 363 327 363 327 344.5 352 c 128,-1,19
 326 377 326 377 285 377 c 0,20,21
 200 377 200 377 200 279 c 2,22,-1
 200 0 l 1,23,-1
 50 0 l 1,0,-1
EndSplineSet
Validated: 1
EndChar

StartChar: o
Encoding: 111 111 81
Width: 595
Flags: W
LayerCount: 2
Fore
SplineSet
298 -17 m 0,0,1
 239 -17 239 -17 189.5 3 c 128,-1,2
 140 23 140 23 104 58 c 128,-1,3
 68 93 68 93 47.5 141.5 c 128,-1,4
 27 190 27 190 27 247 c 0,5,6
 27 305 27 305 47 354.5 c 128,-1,7
 67 404 67 404 103 440 c 128,-1,8
 139 476 139 476 188.5 496.5 c 128,-1,9
 238 517 238 517 297 517 c 0,10,11
 355 517 355 517 404.5 497 c 128,-1,12
 454 477 454 477 490 441 c 128,-1,13
 526 405 526 405 546.5 356 c 128,-1,14
 567 307 567 307 567 250 c 256,15,16
 567 193 567 193 546.5 144 c 128,-1,17
 526 95 526 95 490 59 c 128,-1,18
 454 23 454 23 405 3 c 128,-1,19
 356 -17 356 -17 298 -17 c 0,0,1
298 377 m 0,20,21
 272 377 272 377 250 367 c 128,-1,22
 228 357 228 357 212 340 c 128,-1,23
 196 323 196 323 186.5 300 c 128,-1,24
 177 277 177 277 177 251 c 0,25,26
 177 224 177 224 186 200.5 c 128,-1,27
 195 177 195 177 211.5 159.5 c 128,-1,28
 228 142 228 142 250 132.5 c 128,-1,29
 272 123 272 123 298 123 c 0,30,31
 323 123 323 123 345 132.5 c 128,-1,32
 367 142 367 142 383 159.5 c 128,-1,33
 399 177 399 177 408 200 c 128,-1,34
 417 223 417 223 417 250 c 256,35,36
 417 277 417 277 407.5 300 c 128,-1,37
 398 323 398 323 382 340 c 128,-1,38
 366 357 366 357 344.5 367 c 128,-1,39
 323 377 323 377 298 377 c 0,20,21
EndSplineSet
Validated: 1
EndChar

StartChar: p
Encoding: 112 112 82
Width: 623
Flags: W
LayerCount: 2
Fore
SplineSet
50 -167 m 1,0,-1
 50 500 l 1,1,-1
 191 500 l 1,2,-1
 191 445 l 1,3,4
 220 483 220 483 257.5 500 c 128,-1,5
 295 517 295 517 349 517 c 256,6,7
 403 517 403 517 448 497 c 128,-1,8
 493 477 493 477 525.5 441 c 128,-1,9
 558 405 558 405 576 355 c 128,-1,10
 594 305 594 305 594 246 c 0,11,12
 594 190 594 190 575.5 141.5 c 128,-1,13
 557 93 557 93 524 58 c 128,-1,14
 491 23 491 23 446.5 3 c 128,-1,15
 402 -17 402 -17 350 -17 c 0,16,17
 302 -17 302 -17 266 -2 c 128,-1,18
 230 13 230 13 200 46 c 1,19,-1
 200 -167 l 1,20,-1
 50 -167 l 1,0,-1
318 377 m 0,21,22
 292 377 292 377 269.5 367 c 128,-1,23
 247 357 247 357 230 340 c 128,-1,24
 213 323 213 323 203 300.5 c 128,-1,25
 193 278 193 278 193 252 c 0,26,27
 193 225 193 225 202.5 201.5 c 128,-1,28
 212 178 212 178 229 160.5 c 128,-1,29
 246 143 246 143 269 133 c 128,-1,30
 292 123 292 123 319 123 c 0,31,32
 345 123 345 123 368 132.5 c 128,-1,33
 391 142 391 142 408 159.5 c 128,-1,34
 425 177 425 177 434.5 200 c 128,-1,35
 444 223 444 223 444 250 c 256,36,37
 444 277 444 277 434.5 300 c 128,-1,38
 425 323 425 323 408 340.5 c 128,-1,39
 391 358 391 358 368 367.5 c 128,-1,40
 345 377 345 377 318 377 c 0,21,22
EndSplineSet
Validated: 1
EndChar

StartChar: q
Encoding: 113 113 83
Width: 623
Flags: W
LayerCount: 2
Fore
SplineSet
573 500 m 1,0,-1
 573 -167 l 1,1,-1
 423 -167 l 1,2,-1
 423 51 l 1,3,4
 391 15 391 15 355.5 -1 c 128,-1,5
 320 -17 320 -17 269 -17 c 0,6,7
 217 -17 217 -17 172.5 2.5 c 128,-1,8
 128 22 128 22 96 56.5 c 128,-1,9
 64 91 64 91 45.5 138 c 128,-1,10
 27 185 27 185 27 241 c 0,11,12
 27 301 27 301 45.5 352 c 128,-1,13
 64 403 64 403 98 439.5 c 128,-1,14
 132 476 132 476 178 496.5 c 128,-1,15
 224 517 224 517 280 517 c 0,16,17
 378 517 378 517 431 445 c 1,18,-1
 431 500 l 1,19,-1
 573 500 l 1,0,-1
302 377 m 256,20,21
 275 377 275 377 252.5 367.5 c 128,-1,22
 230 358 230 358 213 340.5 c 128,-1,23
 196 323 196 323 186.5 299.5 c 128,-1,24
 177 276 177 276 177 249 c 256,25,26
 177 222 177 222 187 199 c 128,-1,27
 197 176 197 176 214 159 c 128,-1,28
 231 142 231 142 254 132.5 c 128,-1,29
 277 123 277 123 304 123 c 0,30,31
 330 123 330 123 352.5 133 c 128,-1,32
 375 143 375 143 392 160 c 128,-1,33
 409 177 409 177 419 200 c 128,-1,34
 429 223 429 223 429 249 c 0,35,36
 429 276 429 276 419.5 299.5 c 128,-1,37
 410 323 410 323 392.5 340.5 c 128,-1,38
 375 358 375 358 352 367.5 c 128,-1,39
 329 377 329 377 302 377 c 256,20,21
EndSplineSet
Validated: 1
EndChar

StartChar: r
Encoding: 114 114 84
Width: 323
Flags: W
LayerCount: 2
Fore
SplineSet
50 0 m 1,0,-1
 50 500 l 1,1,-1
 192 500 l 1,2,-1
 192 447 l 1,3,4
 213 484 213 484 241 500.5 c 128,-1,5
 269 517 269 517 313 517 c 2,6,-1
 317 517 l 1,7,-1
 317 367 l 1,8,9
 252 365 252 365 225.5 344.5 c 128,-1,10
 199 324 199 324 199 276 c 2,11,-1
 199 0 l 1,12,-1
 50 0 l 1,0,-1
EndSplineSet
Validated: 1
EndChar

StartChar: s
Encoding: 115 115 85
Width: 445
Flags: W
LayerCount: 2
Fore
SplineSet
223 517 m 0,0,1
 302 517 302 517 351 475 c 128,-1,2
 400 433 400 433 407 360 c 1,3,-1
 261 360 l 1,4,5
 257 397 257 397 218 397 c 0,6,7
 197 397 197 397 184 388 c 128,-1,8
 171 379 171 379 171 365 c 0,9,10
 171 348 171 348 189 334.5 c 128,-1,11
 207 321 207 321 248 310 c 0,12,13
 287 299 287 299 311.5 291 c 128,-1,14
 336 283 336 283 352 275 c 128,-1,15
 368 267 368 267 378.5 256.5 c 128,-1,16
 389 246 389 246 400 231 c 0,17,18
 423 197 423 197 423 153 c 0,19,20
 423 117 423 117 407 85.5 c 128,-1,21
 391 54 391 54 363 31.5 c 128,-1,22
 335 9 335 9 297 -4 c 128,-1,23
 259 -17 259 -17 215 -17 c 0,24,25
 173 -17 173 -17 138 -5.5 c 128,-1,26
 103 6 103 6 77 27.5 c 128,-1,27
 51 49 51 49 35 79.5 c 128,-1,28
 19 110 19 110 15 149 c 1,29,-1
 164 149 l 1,30,31
 170 103 170 103 221 103 c 0,32,33
 242 103 242 103 257.5 114 c 128,-1,34
 273 125 273 125 273 141 c 0,35,36
 273 175 273 175 215 191 c 2,37,-1
 127 214 l 2,38,39
 104 220 104 220 84.5 233.5 c 128,-1,40
 65 247 65 247 51 265 c 128,-1,41
 37 283 37 283 29 305.5 c 128,-1,42
 21 328 21 328 21 352 c 0,43,44
 21 386 21 386 36.5 416.5 c 128,-1,45
 52 447 52 447 79.5 469 c 128,-1,46
 107 491 107 491 144 504 c 128,-1,47
 181 517 181 517 223 517 c 0,0,1
EndSplineSet
Validated: 1
EndChar

StartChar: t
Encoding: 116 116 86
Width: 293
Flags: W
HStem: 1 124<212.613 285> 387 113<-10 63 212 284> 647 20G<159.719 212>
VStem: 63 149<125.857 387 500 610>
LayerCount: 2
Fore
SplineSet
212 667 m 1,0,-1
 212 500 l 1,1,-1
 284 500 l 1,2,-1
 284 387 l 1,3,-1
 212 387 l 1,4,-1
 212 154 l 2,5,6
 212 125 212 125 243 125 c 2,7,-1
 285 125 l 1,8,-1
 285 1 l 1,9,-1
 199 1 l 2,10,11
 128 1 128 1 97 36 c 0,12,13
 63 74 63 74 63 124 c 2,14,-1
 63 387 l 1,15,-1
 -10 387 l 1,16,-1
 -10 500 l 1,17,-1
 63 500 l 1,18,-1
 63 610 l 1,19,-1
 212 667 l 1,0,-1
EndSplineSet
Validated: 1
EndChar

StartChar: u
Encoding: 117 117 87
Width: 562
Flags: W
LayerCount: 2
Fore
SplineSet
512 500 m 1,0,-1
 512 0 l 1,1,-1
 370 0 l 1,2,-1
 370 53 l 1,3,4
 335 -17 335 -17 238 -17 c 0,5,6
 147 -17 147 -17 92 46 c 0,7,8
 79 61 79 61 70.5 76 c 128,-1,9
 62 91 62 91 56.5 109 c 128,-1,10
 51 127 51 127 49 149 c 128,-1,11
 47 171 47 171 47 201 c 2,12,-1
 47 500 l 1,13,-1
 197 500 l 1,14,-1
 197 221 l 2,15,16
 197 169 197 169 216 146 c 128,-1,17
 235 123 235 123 277 123 c 0,18,19
 318 123 318 123 340 148.5 c 128,-1,20
 362 174 362 174 362 221 c 2,21,-1
 362 500 l 1,22,-1
 512 500 l 1,0,-1
EndSplineSet
Validated: 1
EndChar

StartChar: v
Encoding: 118 118 88
Width: 483
Flags: W
LayerCount: 2
Fore
SplineSet
493 500 m 1,0,-1
 313 0 l 1,1,-1
 170 0 l 1,2,-1
 -10 500 l 1,3,-1
 145 500 l 1,4,-1
 241 188 l 1,5,-1
 338 500 l 1,6,-1
 493 500 l 1,0,-1
EndSplineSet
Validated: 1
EndChar

StartChar: w
Encoding: 119 119 89
Width: 753
Flags: W
LayerCount: 2
Fore
SplineSet
0 500 m 1,0,-1
 154 500 l 1,1,-1
 230 189 l 1,2,-1
 313 500 l 1,3,-1
 440 500 l 1,4,-1
 523 189 l 1,5,-1
 599 500 l 1,6,-1
 753 500 l 1,7,-1
 600 0 l 1,8,-1
 461 0 l 1,9,-1
 376 323 l 1,10,-1
 292 0 l 1,11,-1
 153 0 l 1,12,-1
 0 500 l 1,0,-1
EndSplineSet
Validated: 1
EndChar

StartChar: x
Encoding: 120 120 90
Width: 545
Flags: W
LayerCount: 2
Fore
SplineSet
352 500 m 1,0,-1
 529 500 l 1,1,-1
 361 268 l 1,2,-1
 555 0 l 1,3,-1
 372 0 l 1,4,-1
 272 155 l 1,5,-1
 169 0 l 1,6,-1
 -10 0 l 1,7,-1
 180 268 l 1,8,-1
 12 500 l 1,9,-1
 191 500 l 1,10,-1
 272 369 l 1,11,-1
 352 500 l 1,0,-1
EndSplineSet
Validated: 1
EndChar

StartChar: y
Encoding: 121 121 91
Width: 496
Flags: W
LayerCount: 2
Fore
SplineSet
347 500 m 1,0,-1
 506 500 l 1,1,-1
 255 -167 l 1,2,-1
 97 -167 l 1,3,-1
 176 25 l 1,4,-1
 -10 500 l 1,5,-1
 149 500 l 1,6,-1
 250 210 l 1,7,-1
 347 500 l 1,0,-1
EndSplineSet
Validated: 1
EndChar

StartChar: z
Encoding: 122 122 92
Width: 405
Flags: W
LayerCount: 2
Fore
SplineSet
193 113 m 1,0,-1
 389 113 l 1,1,-1
 389 0 l 1,2,-1
 17 0 l 1,3,-1
 17 103 l 1,4,-1
 227 387 l 1,5,-1
 17 387 l 1,6,-1
 17 500 l 1,7,-1
 389 500 l 1,8,-1
 389 386 l 1,9,-1
 193 113 l 1,0,-1
EndSplineSet
Validated: 1
EndChar

StartChar: braceleft
Encoding: 123 123 93
Width: 500
Flags: W
HStem: -193 112<307.242 402> 561 114<309.631 402>
VStem: 176 126<-73.2886 165.401 322.567 554.276>
LayerCount: 2
Fore
SplineSet
302 366 m 1,0,1
 302 340 302 340 299.5 322 c 128,-1,2
 297 304 297 304 290 290 c 128,-1,3
 283 276 283 276 271.5 264 c 128,-1,4
 260 252 260 252 242 240 c 1,5,6
 259 229 259 229 270.5 217 c 128,-1,7
 282 205 282 205 289 190.5 c 128,-1,8
 296 176 296 176 299 157.5 c 128,-1,9
 302 139 302 139 302 114 c 2,10,-1
 302 -11 l 1,11,-1
 302 -24 l 2,12,13
 302 -42 302 -42 305 -53.5 c 128,-1,14
 308 -65 308 -65 317 -71 c 128,-1,15
 326 -77 326 -77 341.5 -79 c 128,-1,16
 357 -81 357 -81 382 -81 c 2,17,-1
 402 -81 l 1,18,-1
 402 -193 l 1,19,-1
 369 -193 l 1,20,-1
 337 -195 l 1,21,-1
 327 -195 l 2,22,23
 245 -195 245 -195 210.5 -161.5 c 128,-1,24
 176 -128 176 -128 176 -50 c 2,25,-1
 176 105 l 2,26,27
 176 147 176 147 163.5 166 c 128,-1,28
 151 185 151 185 121 191 c 1,29,-1
 121 298 l 1,30,31
 150 304 150 304 163 322 c 128,-1,32
 176 340 176 340 176 375 c 2,33,-1
 176 531 l 2,34,35
 176 609 176 609 210.5 642 c 128,-1,36
 245 675 245 675 327 675 c 2,37,-1
 337 675 l 1,38,39
 339 674 339 674 347 674 c 128,-1,40
 355 674 355 674 369 673 c 1,41,-1
 402 673 l 1,42,-1
 402 561 l 1,43,-1
 382 561 l 2,44,45
 357 561 357 561 341.5 559 c 128,-1,46
 326 557 326 557 317 550.5 c 128,-1,47
 308 544 308 544 305 533 c 128,-1,48
 302 522 302 522 302 504 c 2,49,-1
 302 491 l 1,50,-1
 302 366 l 1,0,1
EndSplineSet
Validated: 1
EndChar

StartChar: bar
Encoding: 124 124 94
Width: 500
Flags: W
LayerCount: 2
Fore
SplineSet
187 750 m 1,0,-1
 313 750 l 1,1,-1
 313 -250 l 1,2,-1
 187 -250 l 1,3,-1
 187 750 l 1,0,-1
EndSplineSet
Validated: 1
EndChar

StartChar: braceright
Encoding: 125 125 95
Width: 500
Flags: W
HStem: -193 112<121 213.992> 561 112<121 214.758>
VStem: 220 126<-74.2764 157.433 314.599 553.289>
LayerCount: 2
Fore
SplineSet
220 114 m 1,0,1
 220 139 220 139 222.5 157.5 c 128,-1,2
 225 176 225 176 232 190 c 128,-1,3
 239 204 239 204 250.5 216 c 128,-1,4
 262 228 262 228 280 240 c 1,5,6
 263 251 263 251 251.5 263 c 128,-1,7
 240 275 240 275 233 289.5 c 128,-1,8
 226 304 226 304 223 322.5 c 128,-1,9
 220 341 220 341 220 366 c 2,10,-1
 220 491 l 1,11,-1
 220 504 l 2,12,13
 220 522 220 522 217 533.5 c 128,-1,14
 214 545 214 545 205 551 c 128,-1,15
 196 557 196 557 180 559 c 128,-1,16
 164 561 164 561 139 561 c 2,17,-1
 121 561 l 1,18,-1
 121 673 l 1,19,-1
 153 673 l 1,20,-1
 185 675 l 1,21,-1
 195 675 l 2,22,23
 277 675 277 675 311.5 641.5 c 128,-1,24
 346 608 346 608 346 530 c 2,25,-1
 346 375 l 2,26,27
 346 333 346 333 358.5 314 c 128,-1,28
 371 295 371 295 401 289 c 1,29,-1
 401 182 l 1,30,31
 372 176 372 176 359 158 c 128,-1,32
 346 140 346 140 346 105 c 2,33,-1
 346 -51 l 2,34,35
 346 -129 346 -129 311.5 -162 c 128,-1,36
 277 -195 277 -195 194 -195 c 2,37,-1
 185 -195 l 1,38,-1
 153 -193 l 1,39,-1
 121 -193 l 1,40,-1
 121 -81 l 1,41,-1
 141 -81 l 2,42,43
 166 -81 166 -81 181.5 -79 c 128,-1,44
 197 -77 197 -77 205.5 -70.5 c 128,-1,45
 214 -64 214 -64 217 -53 c 128,-1,46
 220 -42 220 -42 220 -24 c 2,47,-1
 220 -11 l 1,48,-1
 220 114 l 1,0,1
EndSplineSet
Validated: 1
EndChar

StartChar: asciitilde
Encoding: 126 126 96
Width: 667
Flags: W
LayerCount: 2
Fore
SplineSet
233 623 m 0,0,1
 208 623 208 623 193.5 610.5 c 128,-1,2
 179 598 179 598 160 561 c 1,3,-1
 90 607 l 1,4,5
 93 612 93 612 94.5 616.5 c 128,-1,6
 96 621 96 621 98 624 c 0,7,8
 113 658 113 658 127.5 681 c 128,-1,9
 142 704 142 704 159 718.5 c 128,-1,10
 176 733 176 733 195.5 739 c 128,-1,11
 215 745 215 745 241 745 c 0,12,13
 259 745 259 745 283 738.5 c 128,-1,14
 307 732 307 732 345 718 c 0,15,16
 368 710 368 710 381.5 705 c 128,-1,17
 395 700 395 700 403.5 697.5 c 128,-1,18
 412 695 412 695 418 694.5 c 128,-1,19
 424 694 424 694 432 694 c 0,20,21
 457 694 457 694 472 705 c 128,-1,22
 487 716 487 716 505 747 c 1,23,-1
 577 705 l 1,24,25
 564 678 564 678 553 659.5 c 128,-1,26
 542 641 542 641 531.5 627.5 c 128,-1,27
 521 614 521 614 510 605 c 128,-1,28
 499 596 499 596 484 589 c 0,29,30
 452 572 452 572 418 572 c 0,31,32
 403 572 403 572 382 577.5 c 128,-1,33
 361 583 361 583 317 600 c 0,34,35
 295 608 295 608 281.5 612.5 c 128,-1,36
 268 617 268 617 259.5 619.5 c 128,-1,37
 251 622 251 622 245.5 622.5 c 128,-1,38
 240 623 240 623 233 623 c 0,0,1
EndSplineSet
Validated: 1
EndChar

StartChar: Adieresis
Encoding: 196 196 97
Width: 660
Flags: W
LayerCount: 2
Fore
SplineSet
447 97 m 1,0,-1
 215 97 l 1,1,-1
 180 0 l 1,2,-1
 -3 0 l 1,3,-1
 264 667 l 1,4,-1
 399 667 l 1,5,-1
 664 0 l 1,6,-1
 479 0 l 1,7,-1
 447 97 l 1,0,-1
143 733 m 1,8,-1
 143 883 l 1,9,-1
 300 883 l 1,10,-1
 300 733 l 1,11,-1
 143 733 l 1,8,-1
360 733 m 1,12,-1
 360 883 l 1,13,-1
 517 883 l 1,14,-1
 517 733 l 1,15,-1
 360 733 l 1,12,-1
262 232 m 1,16,-1
 401 232 l 1,17,-1
 332 460 l 1,18,-1
 262 232 l 1,16,-1
EndSplineSet
Validated: 1
EndChar

StartChar: Aring
Encoding: 197 197 98
Width: 660
Flags: W
HStem: 0 21G<-3 187.216 472.402 664> 97 135<262 401> 647 20G<255.994 406.946> 713 72<297.854 362.727> 871 71<297.031 362.727>
VStem: 215 74<797.892 857.655> 372 74<794.271 861.729>
LayerCount: 2
Fore
SplineSet
447 97 m 1,0,-1
 215 97 l 1,1,-1
 180 0 l 1,2,-1
 -3 0 l 1,3,-1
 264 667 l 1,4,-1
 399 667 l 1,5,-1
 664 0 l 1,6,-1
 479 0 l 1,7,-1
 447 97 l 1,0,-1
215 828 m 256,8,9
 215 852 215 852 224 872.5 c 128,-1,10
 233 893 233 893 248.5 908.5 c 128,-1,11
 264 924 264 924 285 933 c 128,-1,12
 306 942 306 942 330 942 c 256,13,14
 354 942 354 942 375 933 c 128,-1,15
 396 924 396 924 412 908.5 c 128,-1,16
 428 893 428 893 437 872.5 c 128,-1,17
 446 852 446 852 446 828 c 256,18,19
 446 804 446 804 436.5 783.5 c 128,-1,20
 427 763 427 763 411.5 747 c 128,-1,21
 396 731 396 731 375 722 c 128,-1,22
 354 713 354 713 330 713 c 256,23,24
 306 713 306 713 285 722 c 128,-1,25
 264 731 264 731 248.5 747 c 128,-1,26
 233 763 233 763 224 783.5 c 128,-1,27
 215 804 215 804 215 828 c 256,8,9
262 232 m 1,28,-1
 401 232 l 1,29,-1
 332 460 l 1,30,-1
 262 232 l 1,28,-1
372 828 m 256,31,32
 372 846 372 846 359.5 858.5 c 128,-1,33
 347 871 347 871 330 871 c 256,34,35
 313 871 313 871 300 858 c 0,36,37
 289 847 289 847 289 831 c 0,38,39
 289 829 289 829 289 828 c 0,40,41
 289 810 289 810 301 797.5 c 128,-1,42
 313 785 313 785 330 785 c 256,43,44
 347 785 347 785 359.5 797.5 c 128,-1,45
 372 810 372 810 372 828 c 256,31,32
EndSplineSet
Validated: 1
EndChar

StartChar: Ccedilla
Encoding: 199 199 99
Width: 736
Flags: W
LayerCount: 2
Fore
SplineSet
401 -13 m 1,0,-1
 383 -47 l 1,1,2
 390 -45 390 -45 393.5 -45 c 128,-1,3
 397 -45 397 -45 402 -45 c 0,4,5
 436 -45 436 -45 458 -67 c 128,-1,6
 480 -89 480 -89 480 -123 c 0,7,8
 480 -169 480 -169 449 -199 c 128,-1,9
 418 -229 418 -229 370 -229 c 0,10,11
 325 -229 325 -229 299.5 -205.5 c 128,-1,12
 274 -182 274 -182 269 -138 c 1,13,-1
 339 -138 l 1,14,15
 346 -152 346 -152 353 -157.5 c 128,-1,16
 360 -163 360 -163 375 -163 c 0,17,18
 389 -163 389 -163 398.5 -153.5 c 128,-1,19
 408 -144 408 -144 408 -130 c 256,20,21
 408 -116 408 -116 398 -106.5 c 128,-1,22
 388 -97 388 -97 374 -97 c 0,23,24
 365 -97 365 -97 359 -100 c 128,-1,25
 353 -103 353 -103 345 -111 c 1,26,-1
 294 -80 l 1,27,-1
 330 -10 l 1,28,-1
 327 -10 l 1,29,30
 263 -1 263 -1 208.5 29.5 c 128,-1,31
 154 60 154 60 114 106 c 128,-1,32
 74 152 74 152 51.5 211 c 128,-1,33
 29 270 29 270 29 335 c 0,34,35
 29 407 29 407 56 470 c 128,-1,36
 83 533 83 533 130 579.5 c 128,-1,37
 177 626 177 626 240.5 653 c 128,-1,38
 304 680 304 680 378 680 c 0,39,40
 472 680 472 680 548.5 638.5 c 128,-1,41
 625 597 625 597 674 519 c 0,42,43
 685 502 685 502 692 489.5 c 128,-1,44
 699 477 699 477 703.5 465.5 c 128,-1,45
 708 454 708 454 711 441.5 c 128,-1,46
 714 429 714 429 717 413 c 1,47,-1
 539 413 l 1,48,49
 519 467 519 467 475.5 498.5 c 128,-1,50
 432 530 432 530 377 530 c 0,51,52
 339 530 339 530 306.5 515 c 128,-1,53
 274 500 274 500 250 474 c 128,-1,54
 226 448 226 448 212.5 412.5 c 128,-1,55
 199 377 199 377 199 335 c 256,56,57
 199 293 199 293 213 257 c 128,-1,58
 227 221 227 221 251 194 c 128,-1,59
 275 167 275 167 307.5 152 c 128,-1,60
 340 137 340 137 378 137 c 0,61,62
 485 137 485 137 539 249 c 1,63,-1
 717 249 l 1,64,65
 703 193 703 193 674 145.5 c 128,-1,66
 645 98 645 98 604 62.5 c 128,-1,67
 563 27 563 27 512 7 c 128,-1,68
 461 -13 461 -13 404 -13 c 2,69,-1
 401 -13 l 1,0,-1
EndSplineSet
Validated: 1
EndChar

StartChar: Eacute
Encoding: 201 201 100
Width: 469
Flags: W
LayerCount: 2
Fore
SplineSet
57 0 m 1,0,-1
 57 667 l 1,1,-1
 427 667 l 1,2,-1
 427 517 l 1,3,-1
 220 517 l 1,4,-1
 220 414 l 1,5,-1
 421 414 l 1,6,-1
 421 264 l 1,7,-1
 220 264 l 1,8,-1
 220 150 l 1,9,-1
 427 150 l 1,10,-1
 427 0 l 1,11,-1
 57 0 l 1,0,-1
337 932 m 1,12,-1
 387 818 l 1,13,-1
 141 710 l 1,14,-1
 97 802 l 1,15,-1
 337 932 l 1,12,-1
EndSplineSet
Validated: 1
EndChar

StartChar: Ntilde
Encoding: 209 209 101
Width: 676
Flags: W
LayerCount: 2
Fore
SplineSet
57 0 m 1,0,-1
 57 667 l 1,1,-1
 203 667 l 1,2,-1
 463 247 l 1,3,-1
 456 667 l 1,4,-1
 619 667 l 1,5,-1
 619 0 l 1,6,-1
 471 0 l 1,7,-1
 213 405 l 1,8,-1
 220 0 l 1,9,-1
 57 0 l 1,0,-1
400 853 m 0,10,11
 421 853 421 853 438 857.5 c 128,-1,12
 455 862 455 862 480 874 c 1,13,-1
 544 786 l 1,14,15
 515 767 515 767 483 756 c 128,-1,16
 451 745 451 745 422 745 c 0,17,18
 400 745 400 745 373 751 c 2,19,-1
 341 758 l 2,20,21
 321 763 321 763 304 765.5 c 128,-1,22
 287 768 287 768 276 768 c 0,23,24
 259 768 259 768 244 763.5 c 128,-1,25
 229 759 229 759 202 745 c 1,26,-1
 132 834 l 1,27,28
 191 874 191 874 251 874 c 0,29,30
 266 874 266 874 281 872 c 128,-1,31
 296 870 296 870 326 864 c 0,32,33
 356 857 356 857 371 855 c 128,-1,34
 386 853 386 853 400 853 c 0,10,11
EndSplineSet
Validated: 1
EndChar

StartChar: Odieresis
Encoding: 214 214 102
Width: 761
Flags: W
LayerCount: 2
Fore
SplineSet
379 -13 m 0,0,1
 305 -13 305 -13 241 13.5 c 128,-1,2
 177 40 177 40 130 86.5 c 128,-1,3
 83 133 83 133 56 196 c 128,-1,4
 29 259 29 259 29 332 c 0,5,6
 29 406 29 406 56 469.5 c 128,-1,7
 83 533 83 533 130 580 c 128,-1,8
 177 627 177 627 241 653.5 c 128,-1,9
 305 680 305 680 379 680 c 0,10,11
 454 680 454 680 518.5 653 c 128,-1,12
 583 626 583 626 630.5 579.5 c 128,-1,13
 678 533 678 533 705.5 469.5 c 128,-1,14
 733 406 733 406 733 333 c 256,15,16
 733 260 733 260 705.5 197 c 128,-1,17
 678 134 678 134 630.5 87.5 c 128,-1,18
 583 41 583 41 518.5 14 c 128,-1,19
 454 -13 454 -13 379 -13 c 0,0,1
194 733 m 1,20,-1
 194 883 l 1,21,-1
 351 883 l 1,22,-1
 351 733 l 1,23,-1
 194 733 l 1,20,-1
411 733 m 1,24,-1
 411 883 l 1,25,-1
 567 883 l 1,26,-1
 567 733 l 1,27,-1
 411 733 l 1,24,-1
381 530 m 256,28,29
 342 530 342 530 308.5 515 c 128,-1,30
 275 500 275 500 251 474 c 128,-1,31
 227 448 227 448 213 412.5 c 128,-1,32
 199 377 199 377 199 335 c 256,33,34
 199 293 199 293 213 256.5 c 128,-1,35
 227 220 227 220 251.5 193.5 c 128,-1,36
 276 167 276 167 310 152 c 128,-1,37
 344 137 344 137 383 137 c 0,38,39
 421 137 421 137 454 152 c 128,-1,40
 487 167 487 167 511 193 c 128,-1,41
 535 219 535 219 549 255 c 128,-1,42
 563 291 563 291 563 332 c 0,43,44
 563 374 563 374 549 410 c 128,-1,45
 535 446 535 446 510.5 473 c 128,-1,46
 486 500 486 500 453 515 c 128,-1,47
 420 530 420 530 381 530 c 256,28,29
EndSplineSet
Validated: 1
EndChar

StartChar: Udieresis
Encoding: 220 220 103
Width: 612
Flags: W
LayerCount: 2
Fore
SplineSet
50 667 m 1,0,-1
 220 667 l 1,1,-1
 220 263 l 2,2,3
 220 197 220 197 240.5 167 c 128,-1,4
 261 137 261 137 307 137 c 0,5,6
 354 137 354 137 373 165 c 128,-1,7
 392 193 392 193 392 263 c 2,8,-1
 392 667 l 1,9,-1
 562 667 l 1,10,-1
 562 263 l 2,11,12
 562 189 562 189 547 142.5 c 128,-1,13
 532 96 532 96 496 59 c 0,14,15
 425 -13 425 -13 307 -13 c 0,16,17
 248 -13 248 -13 200 5 c 128,-1,18
 152 23 152 23 117 58 c 0,19,20
 98 77 98 77 85 96.5 c 128,-1,21
 72 116 72 116 64.5 140 c 128,-1,22
 57 164 57 164 53.5 193.5 c 128,-1,23
 50 223 50 223 50 263 c 2,24,-1
 50 667 l 1,0,-1
119 733 m 1,25,-1
 119 883 l 1,26,-1
 276 883 l 1,27,-1
 276 733 l 1,28,-1
 119 733 l 1,25,-1
336 733 m 1,29,-1
 336 883 l 1,30,-1
 493 883 l 1,31,-1
 493 733 l 1,32,-1
 336 733 l 1,29,-1
EndSplineSet
Validated: 1
EndChar

StartChar: aacute
Encoding: 225 225 104
Width: 627
Flags: W
LayerCount: 2
Fore
SplineSet
577 500 m 1,0,-1
 577 0 l 1,1,-1
 436 0 l 1,2,-1
 436 54 l 1,3,4
 400 -17 400 -17 281 -17 c 0,5,6
 224 -17 224 -17 177.5 2.5 c 128,-1,7
 131 22 131 22 97.5 57 c 128,-1,8
 64 92 64 92 45.5 141 c 128,-1,9
 27 190 27 190 27 250 c 0,10,11
 27 309 27 309 46 358.5 c 128,-1,12
 65 408 65 408 99 443.5 c 128,-1,13
 133 479 133 479 180 498.5 c 128,-1,14
 227 518 227 518 284 518 c 256,15,16
 341 518 341 518 378 501 c 128,-1,17
 415 484 415 484 436 447 c 1,18,-1
 436 500 l 1,19,-1
 577 500 l 1,0,-1
383 765 m 1,20,-1
 442 674 l 1,21,-1
 239 543 l 1,22,-1
 188 617 l 1,23,-1
 383 765 l 1,20,-1
301 377 m 0,24,25
 275 377 275 377 252 367.5 c 128,-1,26
 229 358 229 358 212.5 340.5 c 128,-1,27
 196 323 196 323 186.5 300 c 128,-1,28
 177 277 177 277 177 250 c 256,29,30
 177 223 177 223 186.5 200 c 128,-1,31
 196 177 196 177 213 159.5 c 128,-1,32
 230 142 230 142 253 132.5 c 128,-1,33
 276 123 276 123 302 123 c 0,34,35
 329 123 329 123 352 132.5 c 128,-1,36
 375 142 375 142 391.5 159 c 128,-1,37
 408 176 408 176 417.5 199.5 c 128,-1,38
 427 223 427 223 427 251 c 0,39,40
 427 278 427 278 417.5 301 c 128,-1,41
 408 324 408 324 391.5 341 c 128,-1,42
 375 358 375 358 351.5 367.5 c 128,-1,43
 328 377 328 377 301 377 c 0,24,25
EndSplineSet
Validated: 1
EndChar

StartChar: agrave
Encoding: 224 224 105
Width: 627
Flags: W
LayerCount: 2
Fore
SplineSet
577 500 m 1,0,-1
 577 0 l 1,1,-1
 436 0 l 1,2,-1
 436 54 l 1,3,4
 400 -17 400 -17 281 -17 c 0,5,6
 224 -17 224 -17 177.5 2.5 c 128,-1,7
 131 22 131 22 97.5 57 c 128,-1,8
 64 92 64 92 45.5 141 c 128,-1,9
 27 190 27 190 27 250 c 0,10,11
 27 309 27 309 46 358.5 c 128,-1,12
 65 408 65 408 99 443.5 c 128,-1,13
 133 479 133 479 180 498.5 c 128,-1,14
 227 518 227 518 284 518 c 256,15,16
 341 518 341 518 378 501 c 128,-1,17
 415 484 415 484 436 447 c 1,18,-1
 436 500 l 1,19,-1
 577 500 l 1,0,-1
244 765 m 1,20,-1
 440 617 l 1,21,-1
 389 543 l 1,22,-1
 185 674 l 1,23,-1
 244 765 l 1,20,-1
301 377 m 0,24,25
 275 377 275 377 252 367.5 c 128,-1,26
 229 358 229 358 212.5 340.5 c 128,-1,27
 196 323 196 323 186.5 300 c 128,-1,28
 177 277 177 277 177 250 c 256,29,30
 177 223 177 223 186.5 200 c 128,-1,31
 196 177 196 177 213 159.5 c 128,-1,32
 230 142 230 142 253 132.5 c 128,-1,33
 276 123 276 123 302 123 c 0,34,35
 329 123 329 123 352 132.5 c 128,-1,36
 375 142 375 142 391.5 159 c 128,-1,37
 408 176 408 176 417.5 199.5 c 128,-1,38
 427 223 427 223 427 251 c 0,39,40
 427 278 427 278 417.5 301 c 128,-1,41
 408 324 408 324 391.5 341 c 128,-1,42
 375 358 375 358 351.5 367.5 c 128,-1,43
 328 377 328 377 301 377 c 0,24,25
EndSplineSet
Validated: 1
EndChar

StartChar: acircumflex
Encoding: 226 226 106
Width: 627
Flags: W
LayerCount: 2
Fore
SplineSet
577 500 m 1,0,-1
 577 0 l 1,1,-1
 436 0 l 1,2,-1
 436 54 l 1,3,4
 400 -17 400 -17 281 -17 c 0,5,6
 224 -17 224 -17 177.5 2.5 c 128,-1,7
 131 22 131 22 97.5 57 c 128,-1,8
 64 92 64 92 45.5 141 c 128,-1,9
 27 190 27 190 27 250 c 0,10,11
 27 309 27 309 46 358.5 c 128,-1,12
 65 408 65 408 99 443.5 c 128,-1,13
 133 479 133 479 180 498.5 c 128,-1,14
 227 518 227 518 284 518 c 256,15,16
 341 518 341 518 378 501 c 128,-1,17
 415 484 415 484 436 447 c 1,18,-1
 436 500 l 1,19,-1
 577 500 l 1,0,-1
305 618 m 1,20,-1
 264 560 l 1,21,-1
 121 560 l 1,22,-1
 254 709 l 1,23,-1
 358 709 l 1,24,-1
 488 560 l 1,25,-1
 346 560 l 1,26,-1
 305 618 l 1,20,-1
301 377 m 0,27,28
 275 377 275 377 252 367.5 c 128,-1,29
 229 358 229 358 212.5 340.5 c 128,-1,30
 196 323 196 323 186.5 300 c 128,-1,31
 177 277 177 277 177 250 c 256,32,33
 177 223 177 223 186.5 200 c 128,-1,34
 196 177 196 177 213 159.5 c 128,-1,35
 230 142 230 142 253 132.5 c 128,-1,36
 276 123 276 123 302 123 c 0,37,38
 329 123 329 123 352 132.5 c 128,-1,39
 375 142 375 142 391.5 159 c 128,-1,40
 408 176 408 176 417.5 199.5 c 128,-1,41
 427 223 427 223 427 251 c 0,42,43
 427 278 427 278 417.5 301 c 128,-1,44
 408 324 408 324 391.5 341 c 128,-1,45
 375 358 375 358 351.5 367.5 c 128,-1,46
 328 377 328 377 301 377 c 0,27,28
EndSplineSet
Validated: 1
EndChar

StartChar: adieresis
Encoding: 228 228 107
Width: 627
Flags: W
LayerCount: 2
Fore
SplineSet
577 500 m 1,0,-1
 577 0 l 1,1,-1
 436 0 l 1,2,-1
 436 54 l 1,3,4
 400 -17 400 -17 281 -17 c 0,5,6
 224 -17 224 -17 177.5 2.5 c 128,-1,7
 131 22 131 22 97.5 57 c 128,-1,8
 64 92 64 92 45.5 141 c 128,-1,9
 27 190 27 190 27 250 c 0,10,11
 27 309 27 309 46 358.5 c 128,-1,12
 65 408 65 408 99 443.5 c 128,-1,13
 133 479 133 479 180 498.5 c 128,-1,14
 227 518 227 518 284 518 c 256,15,16
 341 518 341 518 378 501 c 128,-1,17
 415 484 415 484 436 447 c 1,18,-1
 436 500 l 1,19,-1
 577 500 l 1,0,-1
151 567 m 1,20,-1
 151 703 l 1,21,-1
 294 703 l 1,22,-1
 294 567 l 1,23,-1
 151 567 l 1,20,-1
351 567 m 1,24,-1
 351 703 l 1,25,-1
 494 703 l 1,26,-1
 494 567 l 1,27,-1
 351 567 l 1,24,-1
301 377 m 0,28,29
 275 377 275 377 252 367.5 c 128,-1,30
 229 358 229 358 212.5 340.5 c 128,-1,31
 196 323 196 323 186.5 300 c 128,-1,32
 177 277 177 277 177 250 c 256,33,34
 177 223 177 223 186.5 200 c 128,-1,35
 196 177 196 177 213 159.5 c 128,-1,36
 230 142 230 142 253 132.5 c 128,-1,37
 276 123 276 123 302 123 c 0,38,39
 329 123 329 123 352 132.5 c 128,-1,40
 375 142 375 142 391.5 159 c 128,-1,41
 408 176 408 176 417.5 199.5 c 128,-1,42
 427 223 427 223 427 251 c 0,43,44
 427 278 427 278 417.5 301 c 128,-1,45
 408 324 408 324 391.5 341 c 128,-1,46
 375 358 375 358 351.5 367.5 c 128,-1,47
 328 377 328 377 301 377 c 0,28,29
EndSplineSet
Validated: 1
EndChar

StartChar: atilde
Encoding: 227 227 108
Width: 627
Flags: W
LayerCount: 2
Fore
SplineSet
577 500 m 1,0,-1
 577 0 l 1,1,-1
 436 0 l 1,2,-1
 436 54 l 1,3,4
 400 -17 400 -17 281 -17 c 0,5,6
 224 -17 224 -17 177.5 2.5 c 128,-1,7
 131 22 131 22 97.5 57 c 128,-1,8
 64 92 64 92 45.5 141 c 128,-1,9
 27 190 27 190 27 250 c 0,10,11
 27 309 27 309 46 358.5 c 128,-1,12
 65 408 65 408 99 443.5 c 128,-1,13
 133 479 133 479 180 498.5 c 128,-1,14
 227 518 227 518 284 518 c 256,15,16
 341 518 341 518 378 501 c 128,-1,17
 415 484 415 484 436 447 c 1,18,-1
 436 500 l 1,19,-1
 577 500 l 1,0,-1
369 673 m 0,20,21
 390 673 390 673 404 676.5 c 128,-1,22
 418 680 418 680 443 691 c 1,23,-1
 500 615 l 1,24,25
 445 577 445 577 389 577 c 0,26,27
 378 577 378 577 367 578.5 c 128,-1,28
 356 580 356 580 344 582 c 2,29,-1
 315 588 l 2,30,31
 275 596 275 596 256 596 c 0,32,33
 240 596 240 596 225 591.5 c 128,-1,34
 210 587 210 587 185 576 c 1,35,-1
 127 656 l 1,36,37
 159 674 159 674 184 682.5 c 128,-1,38
 209 691 209 691 232 691 c 0,39,40
 246 691 246 691 261 689 c 128,-1,41
 276 687 276 687 301 682 c 0,42,43
 315 679 315 679 324 677.5 c 128,-1,44
 333 676 333 676 340.5 675 c 128,-1,45
 348 674 348 674 354.5 673.5 c 128,-1,46
 361 673 361 673 369 673 c 0,20,21
301 377 m 0,47,48
 275 377 275 377 252 367.5 c 128,-1,49
 229 358 229 358 212.5 340.5 c 128,-1,50
 196 323 196 323 186.5 300 c 128,-1,51
 177 277 177 277 177 250 c 256,52,53
 177 223 177 223 186.5 200 c 128,-1,54
 196 177 196 177 213 159.5 c 128,-1,55
 230 142 230 142 253 132.5 c 128,-1,56
 276 123 276 123 302 123 c 0,57,58
 329 123 329 123 352 132.5 c 128,-1,59
 375 142 375 142 391.5 159 c 128,-1,60
 408 176 408 176 417.5 199.5 c 128,-1,61
 427 223 427 223 427 251 c 0,62,63
 427 278 427 278 417.5 301 c 128,-1,64
 408 324 408 324 391.5 341 c 128,-1,65
 375 358 375 358 351.5 367.5 c 128,-1,66
 328 377 328 377 301 377 c 0,47,48
EndSplineSet
Validated: 1
EndChar

StartChar: aring
Encoding: 229 229 109
Width: 627
Flags: W
LayerCount: 2
Fore
SplineSet
577 500 m 1,0,-1
 577 0 l 1,1,-1
 436 0 l 1,2,-1
 436 54 l 1,3,4
 400 -17 400 -17 281 -17 c 0,5,6
 224 -17 224 -17 177.5 2.5 c 128,-1,7
 131 22 131 22 97.5 57 c 128,-1,8
 64 92 64 92 45.5 141 c 128,-1,9
 27 190 27 190 27 250 c 0,10,11
 27 309 27 309 46 358.5 c 128,-1,12
 65 408 65 408 99 443.5 c 128,-1,13
 133 479 133 479 180 498.5 c 128,-1,14
 227 518 227 518 284 518 c 256,15,16
 341 518 341 518 378 501 c 128,-1,17
 415 484 415 484 436 447 c 1,18,-1
 436 500 l 1,19,-1
 577 500 l 1,0,-1
200 662 m 256,20,21
 200 685 200 685 209 705 c 128,-1,22
 218 725 218 725 233 740 c 128,-1,23
 248 755 248 755 268.5 764 c 128,-1,24
 289 773 289 773 312 773 c 0,25,26
 336 773 336 773 356.5 764 c 128,-1,27
 377 755 377 755 392 740 c 128,-1,28
 407 725 407 725 416 705 c 128,-1,29
 425 685 425 685 425 662 c 256,30,31
 425 639 425 639 416 618.5 c 128,-1,32
 407 598 407 598 391.5 583 c 128,-1,33
 376 568 376 568 355.5 559 c 128,-1,34
 335 550 335 550 312 550 c 256,35,36
 289 550 289 550 268.5 559 c 128,-1,37
 248 568 248 568 233 583 c 128,-1,38
 218 598 218 598 209 618.5 c 128,-1,39
 200 639 200 639 200 662 c 256,20,21
301 377 m 0,40,41
 275 377 275 377 252 367.5 c 128,-1,42
 229 358 229 358 212.5 340.5 c 128,-1,43
 196 323 196 323 186.5 300 c 128,-1,44
 177 277 177 277 177 250 c 256,45,46
 177 223 177 223 186.5 200 c 128,-1,47
 196 177 196 177 213 159.5 c 128,-1,48
 230 142 230 142 253 132.5 c 128,-1,49
 276 123 276 123 302 123 c 0,50,51
 329 123 329 123 352 132.5 c 128,-1,52
 375 142 375 142 391.5 159 c 128,-1,53
 408 176 408 176 417.5 199.5 c 128,-1,54
 427 223 427 223 427 251 c 0,55,56
 427 278 427 278 417.5 301 c 128,-1,57
 408 324 408 324 391.5 341 c 128,-1,58
 375 358 375 358 351.5 367.5 c 128,-1,59
 328 377 328 377 301 377 c 0,40,41
355 662 m 0,60,61
 355 680 355 680 342.5 693 c 128,-1,62
 330 706 330 706 312 706 c 0,63,64
 295 706 295 706 282 693 c 128,-1,65
 269 680 269 680 269 662 c 0,66,67
 269 643 269 643 282 630 c 128,-1,68
 295 617 295 617 312 617 c 0,69,70
 330 617 330 617 342.5 630 c 128,-1,71
 355 643 355 643 355 662 c 0,60,61
EndSplineSet
Validated: 1
EndChar

StartChar: ccedilla
Encoding: 231 231 110
Width: 574
Flags: W
HStem: -213 52<268.065 320.029> -96 47<291 321.056> 377 140<226.89 366.179>
VStem: 27 150<173.047 324.873> 326 62<-154.913 -101.111>
LayerCount: 2
Fore
SplineSet
557 190 m 1,0,1
 547 146 547 146 524 109.5 c 128,-1,2
 501 73 501 73 469 46 c 128,-1,3
 437 19 437 19 397.5 3 c 128,-1,4
 358 -13 358 -13 314 -16 c 1,5,-1
 296 -52 l 1,6,7
 309 -49 309 -49 316 -49 c 0,8,9
 345 -49 345 -49 366.5 -71 c 128,-1,10
 388 -93 388 -93 388 -123 c 0,11,12
 388 -162 388 -162 360.5 -187.5 c 128,-1,13
 333 -213 333 -213 291 -213 c 0,14,15
 211 -213 211 -213 200 -136 c 1,16,-1
 261 -136 l 1,17,18
 266 -150 266 -150 272.5 -155.5 c 128,-1,19
 279 -161 279 -161 291 -161 c 0,20,21
 307 -161 307 -161 316.5 -151.5 c 128,-1,22
 326 -142 326 -142 326 -127 c 0,23,24
 326 -113 326 -113 317.5 -104.5 c 128,-1,25
 309 -96 309 -96 295 -96 c 0,26,27
 287 -96 287 -96 281.5 -99 c 128,-1,28
 276 -102 276 -102 268 -110 c 1,29,-1
 224 -78 l 1,30,-1
 255 -14 l 1,31,32
 205 -7 205 -7 163.5 16.5 c 128,-1,33
 122 40 122 40 91.5 75.5 c 128,-1,34
 61 111 61 111 44 156 c 128,-1,35
 27 201 27 201 27 251 c 0,36,37
 27 307 27 307 47.5 355.5 c 128,-1,38
 68 404 68 404 103.5 440 c 128,-1,39
 139 476 139 476 187 496.5 c 128,-1,40
 235 517 235 517 291 517 c 0,41,42
 340 517 340 517 384 502 c 128,-1,43
 428 487 428 487 463 459 c 128,-1,44
 498 431 498 431 522 392.5 c 128,-1,45
 546 354 546 354 556 307 c 1,46,-1
 405 307 l 1,47,48
 391 340 391 340 362 358.5 c 128,-1,49
 333 377 333 377 296 377 c 0,50,51
 270 377 270 377 248 367.5 c 128,-1,52
 226 358 226 358 210.5 340.5 c 128,-1,53
 195 323 195 323 186 299.5 c 128,-1,54
 177 276 177 276 177 248 c 0,55,56
 177 193 177 193 210.5 158 c 128,-1,57
 244 123 244 123 296 123 c 0,58,59
 331 123 331 123 357 139 c 128,-1,60
 383 155 383 155 406 190 c 1,61,-1
 557 190 l 1,0,1
EndSplineSet
Validated: 1
EndChar

StartChar: eacute
Encoding: 233 233 111
Width: 578
Flags: W
LayerCount: 2
Fore
SplineSet
374 149 m 0,0,1
 375 151 375 151 377 152.5 c 128,-1,2
 379 154 379 154 381 156 c 1,3,-1
 533 156 l 1,4,5
 498 75 498 75 434 29 c 128,-1,6
 370 -17 370 -17 290 -17 c 0,7,8
 235 -17 235 -17 187 3.5 c 128,-1,9
 139 24 139 24 103.5 60 c 128,-1,10
 68 96 68 96 47.5 144.5 c 128,-1,11
 27 193 27 193 27 249 c 256,12,13
 27 305 27 305 47.5 354 c 128,-1,14
 68 403 68 403 103 439 c 128,-1,15
 138 475 138 475 185.5 496 c 128,-1,16
 233 517 233 517 287 517 c 0,17,18
 343 517 343 517 391.5 496 c 128,-1,19
 440 475 440 475 475.5 438.5 c 128,-1,20
 511 402 511 402 531 352 c 128,-1,21
 551 302 551 302 551 244 c 0,22,23
 551 231 551 231 550 223.5 c 128,-1,24
 549 216 549 216 547 203 c 1,25,-1
 172 203 l 1,26,27
 177 161 177 161 207 135.5 c 128,-1,28
 237 110 237 110 282 110 c 0,29,30
 310 110 310 110 330 118 c 128,-1,31
 350 126 350 126 374 149 c 0,0,1
350 765 m 1,32,-1
 410 674 l 1,33,-1
 206 543 l 1,34,-1
 155 617 l 1,35,-1
 350 765 l 1,32,-1
401 303 m 1,36,37
 393 342 393 342 362.5 366 c 128,-1,38
 332 390 332 390 288 390 c 256,39,40
 244 390 244 390 214.5 367.5 c 128,-1,41
 185 345 185 345 176 303 c 1,42,-1
 401 303 l 1,36,37
EndSplineSet
Validated: 1
EndChar

StartChar: egrave
Encoding: 232 232 112
Width: 578
Flags: W
LayerCount: 2
Fore
SplineSet
374 149 m 0,0,1
 375 151 375 151 377 152.5 c 128,-1,2
 379 154 379 154 381 156 c 1,3,-1
 533 156 l 1,4,5
 498 75 498 75 434 29 c 128,-1,6
 370 -17 370 -17 290 -17 c 0,7,8
 235 -17 235 -17 187 3.5 c 128,-1,9
 139 24 139 24 103.5 60 c 128,-1,10
 68 96 68 96 47.5 144.5 c 128,-1,11
 27 193 27 193 27 249 c 256,12,13
 27 305 27 305 47.5 354 c 128,-1,14
 68 403 68 403 103 439 c 128,-1,15
 138 475 138 475 185.5 496 c 128,-1,16
 233 517 233 517 287 517 c 0,17,18
 343 517 343 517 391.5 496 c 128,-1,19
 440 475 440 475 475.5 438.5 c 128,-1,20
 511 402 511 402 531 352 c 128,-1,21
 551 302 551 302 551 244 c 0,22,23
 551 231 551 231 550 223.5 c 128,-1,24
 549 216 549 216 547 203 c 1,25,-1
 172 203 l 1,26,27
 177 161 177 161 207 135.5 c 128,-1,28
 237 110 237 110 282 110 c 0,29,30
 310 110 310 110 330 118 c 128,-1,31
 350 126 350 126 374 149 c 0,0,1
228 765 m 1,32,-1
 423 617 l 1,33,-1
 372 543 l 1,34,-1
 168 674 l 1,35,-1
 228 765 l 1,32,-1
401 303 m 1,36,37
 393 342 393 342 362.5 366 c 128,-1,38
 332 390 332 390 288 390 c 256,39,40
 244 390 244 390 214.5 367.5 c 128,-1,41
 185 345 185 345 176 303 c 1,42,-1
 401 303 l 1,36,37
EndSplineSet
Validated: 1
EndChar

StartChar: ecircumflex
Encoding: 234 234 113
Width: 578
Flags: W
LayerCount: 2
Fore
SplineSet
374 149 m 0,0,1
 375 151 375 151 377 152.5 c 128,-1,2
 379 154 379 154 381 156 c 1,3,-1
 533 156 l 1,4,5
 498 75 498 75 434 29 c 128,-1,6
 370 -17 370 -17 290 -17 c 0,7,8
 235 -17 235 -17 187 3.5 c 128,-1,9
 139 24 139 24 103.5 60 c 128,-1,10
 68 96 68 96 47.5 144.5 c 128,-1,11
 27 193 27 193 27 249 c 256,12,13
 27 305 27 305 47.5 354 c 128,-1,14
 68 403 68 403 103 439 c 128,-1,15
 138 475 138 475 185.5 496 c 128,-1,16
 233 517 233 517 287 517 c 0,17,18
 343 517 343 517 391.5 496 c 128,-1,19
 440 475 440 475 475.5 438.5 c 128,-1,20
 511 402 511 402 531 352 c 128,-1,21
 551 302 551 302 551 244 c 0,22,23
 551 231 551 231 550 223.5 c 128,-1,24
 549 216 549 216 547 203 c 1,25,-1
 172 203 l 1,26,27
 177 161 177 161 207 135.5 c 128,-1,28
 237 110 237 110 282 110 c 0,29,30
 310 110 310 110 330 118 c 128,-1,31
 350 126 350 126 374 149 c 0,0,1
289 618 m 1,32,-1
 248 560 l 1,33,-1
 106 560 l 1,34,-1
 239 709 l 1,35,-1
 343 709 l 1,36,-1
 472 560 l 1,37,-1
 331 560 l 1,38,-1
 289 618 l 1,32,-1
401 303 m 1,39,40
 393 342 393 342 362.5 366 c 128,-1,41
 332 390 332 390 288 390 c 256,42,43
 244 390 244 390 214.5 367.5 c 128,-1,44
 185 345 185 345 176 303 c 1,45,-1
 401 303 l 1,39,40
EndSplineSet
Validated: 1
EndChar

StartChar: edieresis
Encoding: 235 235 114
Width: 578
Flags: W
LayerCount: 2
Fore
SplineSet
374 149 m 0,0,1
 375 151 375 151 377 152.5 c 128,-1,2
 379 154 379 154 381 156 c 1,3,-1
 533 156 l 1,4,5
 498 75 498 75 434 29 c 128,-1,6
 370 -17 370 -17 290 -17 c 0,7,8
 235 -17 235 -17 187 3.5 c 128,-1,9
 139 24 139 24 103.5 60 c 128,-1,10
 68 96 68 96 47.5 144.5 c 128,-1,11
 27 193 27 193 27 249 c 256,12,13
 27 305 27 305 47.5 354 c 128,-1,14
 68 403 68 403 103 439 c 128,-1,15
 138 475 138 475 185.5 496 c 128,-1,16
 233 517 233 517 287 517 c 0,17,18
 343 517 343 517 391.5 496 c 128,-1,19
 440 475 440 475 475.5 438.5 c 128,-1,20
 511 402 511 402 531 352 c 128,-1,21
 551 302 551 302 551 244 c 0,22,23
 551 231 551 231 550 223.5 c 128,-1,24
 549 216 549 216 547 203 c 1,25,-1
 172 203 l 1,26,27
 177 161 177 161 207 135.5 c 128,-1,28
 237 110 237 110 282 110 c 0,29,30
 310 110 310 110 330 118 c 128,-1,31
 350 126 350 126 374 149 c 0,0,1
121 567 m 1,32,-1
 121 703 l 1,33,-1
 265 703 l 1,34,-1
 265 567 l 1,35,-1
 121 567 l 1,32,-1
321 567 m 1,36,-1
 321 703 l 1,37,-1
 465 703 l 1,38,-1
 465 567 l 1,39,-1
 321 567 l 1,36,-1
401 303 m 1,40,41
 393 342 393 342 362.5 366 c 128,-1,42
 332 390 332 390 288 390 c 256,43,44
 244 390 244 390 214.5 367.5 c 128,-1,45
 185 345 185 345 176 303 c 1,46,-1
 401 303 l 1,40,41
EndSplineSet
Validated: 1
EndChar

StartChar: iacute
Encoding: 237 237 115
Width: 250
Flags: W
LayerCount: 2
Fore
SplineSet
200 500 m 1,0,-1
 200 0 l 1,1,-1
 50 0 l 1,2,-1
 50 500 l 1,3,-1
 200 500 l 1,0,-1
193 765 m 1,4,-1
 252 674 l 1,5,-1
 49 543 l 1,6,-1
 -2 617 l 1,7,-1
 193 765 l 1,4,-1
EndSplineSet
Validated: 1
EndChar

StartChar: igrave
Encoding: 236 236 116
Width: 250
Flags: W
LayerCount: 2
Fore
SplineSet
200 500 m 1,0,-1
 200 0 l 1,1,-1
 50 0 l 1,2,-1
 50 500 l 1,3,-1
 200 500 l 1,0,-1
57 765 m 1,4,-1
 252 617 l 1,5,-1
 201 543 l 1,6,-1
 -2 674 l 1,7,-1
 57 765 l 1,4,-1
EndSplineSet
Validated: 1
EndChar

StartChar: icircumflex
Encoding: 238 238 117
Width: 250
Flags: W
LayerCount: 2
Fore
SplineSet
200 500 m 1,0,-1
 200 0 l 1,1,-1
 50 0 l 1,2,-1
 50 500 l 1,3,-1
 200 500 l 1,0,-1
90 709 m 1,4,-1
 162 709 l 1,5,-1
 252 560 l 1,6,-1
 161 560 l 1,7,-1
 125 631 l 1,8,-1
 90 560 l 1,9,-1
 -2 560 l 1,10,-1
 90 709 l 1,4,-1
EndSplineSet
Validated: 1
EndChar

StartChar: idieresis
Encoding: 239 239 118
Width: 250
Flags: W
LayerCount: 2
Fore
SplineSet
200 500 m 1,0,-1
 200 0 l 1,1,-1
 50 0 l 1,2,-1
 50 500 l 1,3,-1
 200 500 l 1,0,-1
1 573 m 1,4,-1
 1 696 l 1,5,-1
 101 696 l 1,6,-1
 101 573 l 1,7,-1
 1 573 l 1,4,-1
149 573 m 1,8,-1
 149 696 l 1,9,-1
 249 696 l 1,10,-1
 249 573 l 1,11,-1
 149 573 l 1,8,-1
EndSplineSet
Validated: 1
EndChar

StartChar: ntilde
Encoding: 241 241 119
Width: 560
Flags: W
LayerCount: 2
Fore
SplineSet
50 0 m 1,0,-1
 50 500 l 1,1,-1
 192 500 l 1,2,-1
 192 447 l 1,3,4
 218 484 218 484 249.5 500.5 c 128,-1,5
 281 517 281 517 329 517 c 0,6,7
 369 517 369 517 404 503.5 c 128,-1,8
 439 490 439 490 463 466 c 0,9,10
 478 452 478 452 487.5 437.5 c 128,-1,11
 497 423 497 423 502.5 405.5 c 128,-1,12
 508 388 508 388 510.5 365.5 c 128,-1,13
 513 343 513 343 513 313 c 2,14,-1
 513 0 l 1,15,-1
 363 0 l 1,16,-1
 363 273 l 2,17,18
 363 327 363 327 344.5 352 c 128,-1,19
 326 377 326 377 285 377 c 0,20,21
 200 377 200 377 200 279 c 2,22,-1
 200 0 l 1,23,-1
 50 0 l 1,0,-1
335 673 m 0,24,25
 357 673 357 673 371 676.5 c 128,-1,26
 385 680 385 680 409 691 c 1,27,-1
 467 615 l 1,28,29
 412 577 412 577 355 577 c 0,30,31
 345 577 345 577 334 578 c 128,-1,32
 323 579 323 579 310 582 c 2,33,-1
 282 588 l 2,34,35
 262 593 262 593 247.5 594.5 c 128,-1,36
 233 596 233 596 223 596 c 0,37,38
 206 596 206 596 191 591.5 c 128,-1,39
 176 587 176 587 151 576 c 1,40,-1
 93 656 l 1,41,42
 125 674 125 674 150 682.5 c 128,-1,43
 175 691 175 691 199 691 c 0,44,45
 212 691 212 691 227 689 c 128,-1,46
 242 687 242 687 267 682 c 0,47,48
 281 679 281 679 290.5 677 c 128,-1,49
 300 675 300 675 307 674.5 c 128,-1,50
 314 674 314 674 320.5 673.5 c 128,-1,51
 327 673 327 673 335 673 c 0,24,25
EndSplineSet
Validated: 1
EndChar

StartChar: oacute
Encoding: 243 243 120
Width: 595
Flags: W
LayerCount: 2
Fore
SplineSet
298 -17 m 0,0,1
 239 -17 239 -17 189.5 3 c 128,-1,2
 140 23 140 23 104 58 c 128,-1,3
 68 93 68 93 47.5 141.5 c 128,-1,4
 27 190 27 190 27 247 c 0,5,6
 27 305 27 305 47 354.5 c 128,-1,7
 67 404 67 404 103 440 c 128,-1,8
 139 476 139 476 188.5 496.5 c 128,-1,9
 238 517 238 517 297 517 c 0,10,11
 355 517 355 517 404.5 497 c 128,-1,12
 454 477 454 477 490 441 c 128,-1,13
 526 405 526 405 546.5 356 c 128,-1,14
 567 307 567 307 567 250 c 256,15,16
 567 193 567 193 546.5 144 c 128,-1,17
 526 95 526 95 490 59 c 128,-1,18
 454 23 454 23 405 3 c 128,-1,19
 356 -17 356 -17 298 -17 c 0,0,1
359 765 m 1,20,-1
 418 674 l 1,21,-1
 214 543 l 1,22,-1
 163 617 l 1,23,-1
 359 765 l 1,20,-1
298 377 m 0,24,25
 272 377 272 377 250 367 c 128,-1,26
 228 357 228 357 212 340 c 128,-1,27
 196 323 196 323 186.5 300 c 128,-1,28
 177 277 177 277 177 251 c 0,29,30
 177 224 177 224 186 200.5 c 128,-1,31
 195 177 195 177 211.5 159.5 c 128,-1,32
 228 142 228 142 250 132.5 c 128,-1,33
 272 123 272 123 298 123 c 0,34,35
 323 123 323 123 345 132.5 c 128,-1,36
 367 142 367 142 383 159.5 c 128,-1,37
 399 177 399 177 408 200 c 128,-1,38
 417 223 417 223 417 250 c 256,39,40
 417 277 417 277 407.5 300 c 128,-1,41
 398 323 398 323 382 340 c 128,-1,42
 366 357 366 357 344.5 367 c 128,-1,43
 323 377 323 377 298 377 c 0,24,25
EndSplineSet
Validated: 1
EndChar

StartChar: ograve
Encoding: 242 242 121
Width: 595
Flags: W
LayerCount: 2
Fore
SplineSet
298 -17 m 0,0,1
 239 -17 239 -17 189.5 3 c 128,-1,2
 140 23 140 23 104 58 c 128,-1,3
 68 93 68 93 47.5 141.5 c 128,-1,4
 27 190 27 190 27 247 c 0,5,6
 27 305 27 305 47 354.5 c 128,-1,7
 67 404 67 404 103 440 c 128,-1,8
 139 476 139 476 188.5 496.5 c 128,-1,9
 238 517 238 517 297 517 c 0,10,11
 355 517 355 517 404.5 497 c 128,-1,12
 454 477 454 477 490 441 c 128,-1,13
 526 405 526 405 546.5 356 c 128,-1,14
 567 307 567 307 567 250 c 256,15,16
 567 193 567 193 546.5 144 c 128,-1,17
 526 95 526 95 490 59 c 128,-1,18
 454 23 454 23 405 3 c 128,-1,19
 356 -17 356 -17 298 -17 c 0,0,1
236 765 m 1,20,-1
 431 617 l 1,21,-1
 380 543 l 1,22,-1
 177 674 l 1,23,-1
 236 765 l 1,20,-1
298 377 m 0,24,25
 272 377 272 377 250 367 c 128,-1,26
 228 357 228 357 212 340 c 128,-1,27
 196 323 196 323 186.5 300 c 128,-1,28
 177 277 177 277 177 251 c 0,29,30
 177 224 177 224 186 200.5 c 128,-1,31
 195 177 195 177 211.5 159.5 c 128,-1,32
 228 142 228 142 250 132.5 c 128,-1,33
 272 123 272 123 298 123 c 0,34,35
 323 123 323 123 345 132.5 c 128,-1,36
 367 142 367 142 383 159.5 c 128,-1,37
 399 177 399 177 408 200 c 128,-1,38
 417 223 417 223 417 250 c 256,39,40
 417 277 417 277 407.5 300 c 128,-1,41
 398 323 398 323 382 340 c 128,-1,42
 366 357 366 357 344.5 367 c 128,-1,43
 323 377 323 377 298 377 c 0,24,25
EndSplineSet
Validated: 1
EndChar

StartChar: ocircumflex
Encoding: 244 244 122
Width: 595
Flags: W
LayerCount: 2
Fore
SplineSet
298 -17 m 0,0,1
 239 -17 239 -17 189.5 3 c 128,-1,2
 140 23 140 23 104 58 c 128,-1,3
 68 93 68 93 47.5 141.5 c 128,-1,4
 27 190 27 190 27 247 c 0,5,6
 27 305 27 305 47 354.5 c 128,-1,7
 67 404 67 404 103 440 c 128,-1,8
 139 476 139 476 188.5 496.5 c 128,-1,9
 238 517 238 517 297 517 c 0,10,11
 355 517 355 517 404.5 497 c 128,-1,12
 454 477 454 477 490 441 c 128,-1,13
 526 405 526 405 546.5 356 c 128,-1,14
 567 307 567 307 567 250 c 256,15,16
 567 193 567 193 546.5 144 c 128,-1,17
 526 95 526 95 490 59 c 128,-1,18
 454 23 454 23 405 3 c 128,-1,19
 356 -17 356 -17 298 -17 c 0,0,1
298 618 m 1,20,-1
 257 560 l 1,21,-1
 114 560 l 1,22,-1
 247 709 l 1,23,-1
 351 709 l 1,24,-1
 481 560 l 1,25,-1
 339 560 l 1,26,-1
 298 618 l 1,20,-1
298 377 m 0,27,28
 272 377 272 377 250 367 c 128,-1,29
 228 357 228 357 212 340 c 128,-1,30
 196 323 196 323 186.5 300 c 128,-1,31
 177 277 177 277 177 251 c 0,32,33
 177 224 177 224 186 200.5 c 128,-1,34
 195 177 195 177 211.5 159.5 c 128,-1,35
 228 142 228 142 250 132.5 c 128,-1,36
 272 123 272 123 298 123 c 0,37,38
 323 123 323 123 345 132.5 c 128,-1,39
 367 142 367 142 383 159.5 c 128,-1,40
 399 177 399 177 408 200 c 128,-1,41
 417 223 417 223 417 250 c 256,42,43
 417 277 417 277 407.5 300 c 128,-1,44
 398 323 398 323 382 340 c 128,-1,45
 366 357 366 357 344.5 367 c 128,-1,46
 323 377 323 377 298 377 c 0,27,28
EndSplineSet
Validated: 1
EndChar

StartChar: odieresis
Encoding: 246 246 123
Width: 595
Flags: W
LayerCount: 2
Fore
SplineSet
298 -17 m 0,0,1
 239 -17 239 -17 189.5 3 c 128,-1,2
 140 23 140 23 104 58 c 128,-1,3
 68 93 68 93 47.5 141.5 c 128,-1,4
 27 190 27 190 27 247 c 0,5,6
 27 305 27 305 47 354.5 c 128,-1,7
 67 404 67 404 103 440 c 128,-1,8
 139 476 139 476 188.5 496.5 c 128,-1,9
 238 517 238 517 297 517 c 0,10,11
 355 517 355 517 404.5 497 c 128,-1,12
 454 477 454 477 490 441 c 128,-1,13
 526 405 526 405 546.5 356 c 128,-1,14
 567 307 567 307 567 250 c 256,15,16
 567 193 567 193 546.5 144 c 128,-1,17
 526 95 526 95 490 59 c 128,-1,18
 454 23 454 23 405 3 c 128,-1,19
 356 -17 356 -17 298 -17 c 0,0,1
126 567 m 1,20,-1
 126 703 l 1,21,-1
 269 703 l 1,22,-1
 269 567 l 1,23,-1
 126 567 l 1,20,-1
326 567 m 1,24,-1
 326 703 l 1,25,-1
 469 703 l 1,26,-1
 469 567 l 1,27,-1
 326 567 l 1,24,-1
298 377 m 0,28,29
 272 377 272 377 250 367 c 128,-1,30
 228 357 228 357 212 340 c 128,-1,31
 196 323 196 323 186.5 300 c 128,-1,32
 177 277 177 277 177 251 c 0,33,34
 177 224 177 224 186 200.5 c 128,-1,35
 195 177 195 177 211.5 159.5 c 128,-1,36
 228 142 228 142 250 132.5 c 128,-1,37
 272 123 272 123 298 123 c 0,38,39
 323 123 323 123 345 132.5 c 128,-1,40
 367 142 367 142 383 159.5 c 128,-1,41
 399 177 399 177 408 200 c 128,-1,42
 417 223 417 223 417 250 c 256,43,44
 417 277 417 277 407.5 300 c 128,-1,45
 398 323 398 323 382 340 c 128,-1,46
 366 357 366 357 344.5 367 c 128,-1,47
 323 377 323 377 298 377 c 0,28,29
EndSplineSet
Validated: 1
EndChar

StartChar: otilde
Encoding: 245 245 124
Width: 595
Flags: W
LayerCount: 2
Fore
SplineSet
298 -17 m 0,0,1
 239 -17 239 -17 189.5 3 c 128,-1,2
 140 23 140 23 104 58 c 128,-1,3
 68 93 68 93 47.5 141.5 c 128,-1,4
 27 190 27 190 27 247 c 0,5,6
 27 305 27 305 47 354.5 c 128,-1,7
 67 404 67 404 103 440 c 128,-1,8
 139 476 139 476 188.5 496.5 c 128,-1,9
 238 517 238 517 297 517 c 0,10,11
 355 517 355 517 404.5 497 c 128,-1,12
 454 477 454 477 490 441 c 128,-1,13
 526 405 526 405 546.5 356 c 128,-1,14
 567 307 567 307 567 250 c 256,15,16
 567 193 567 193 546.5 144 c 128,-1,17
 526 95 526 95 490 59 c 128,-1,18
 454 23 454 23 405 3 c 128,-1,19
 356 -17 356 -17 298 -17 c 0,0,1
353 673 m 0,20,21
 374 673 374 673 388 676.5 c 128,-1,22
 402 680 402 680 426 691 c 1,23,-1
 484 615 l 1,24,25
 429 577 429 577 373 577 c 0,26,27
 362 577 362 577 351 578.5 c 128,-1,28
 340 580 340 580 328 582 c 2,29,-1
 299 588 l 2,30,31
 279 592 279 592 264.5 594 c 128,-1,32
 250 596 250 596 240 596 c 0,33,34
 223 596 223 596 208 591.5 c 128,-1,35
 193 587 193 587 169 576 c 1,36,-1
 111 656 l 1,37,38
 143 674 143 674 167.5 682.5 c 128,-1,39
 192 691 192 691 216 691 c 0,40,41
 229 691 229 691 244.5 689 c 128,-1,42
 260 687 260 687 285 682 c 0,43,44
 299 679 299 679 308 677.5 c 128,-1,45
 317 676 317 676 324.5 675 c 128,-1,46
 332 674 332 674 338.5 673.5 c 128,-1,47
 345 673 345 673 353 673 c 0,20,21
298 377 m 0,48,49
 272 377 272 377 250 367 c 128,-1,50
 228 357 228 357 212 340 c 128,-1,51
 196 323 196 323 186.5 300 c 128,-1,52
 177 277 177 277 177 251 c 0,53,54
 177 224 177 224 186 200.5 c 128,-1,55
 195 177 195 177 211.5 159.5 c 128,-1,56
 228 142 228 142 250 132.5 c 128,-1,57
 272 123 272 123 298 123 c 0,58,59
 323 123 323 123 345 132.5 c 128,-1,60
 367 142 367 142 383 159.5 c 128,-1,61
 399 177 399 177 408 200 c 128,-1,62
 417 223 417 223 417 250 c 256,63,64
 417 277 417 277 407.5 300 c 128,-1,65
 398 323 398 323 382 340 c 128,-1,66
 366 357 366 357 344.5 367 c 128,-1,67
 323 377 323 377 298 377 c 0,48,49
EndSplineSet
Validated: 1
EndChar

StartChar: uacute
Encoding: 250 250 125
Width: 562
Flags: W
LayerCount: 2
Fore
SplineSet
512 500 m 1,0,-1
 512 0 l 1,1,-1
 370 0 l 1,2,-1
 370 53 l 1,3,4
 335 -17 335 -17 238 -17 c 0,5,6
 147 -17 147 -17 92 46 c 0,7,8
 79 61 79 61 70.5 76 c 128,-1,9
 62 91 62 91 56.5 109 c 128,-1,10
 51 127 51 127 49 149 c 128,-1,11
 47 171 47 171 47 201 c 2,12,-1
 47 500 l 1,13,-1
 197 500 l 1,14,-1
 197 221 l 2,15,16
 197 169 197 169 216 146 c 128,-1,17
 235 123 235 123 277 123 c 0,18,19
 318 123 318 123 340 148.5 c 128,-1,20
 362 174 362 174 362 221 c 2,21,-1
 362 500 l 1,22,-1
 512 500 l 1,0,-1
342 765 m 1,23,-1
 402 674 l 1,24,-1
 198 543 l 1,25,-1
 147 617 l 1,26,-1
 342 765 l 1,23,-1
EndSplineSet
Validated: 1
EndChar

StartChar: ugrave
Encoding: 249 249 126
Width: 562
Flags: W
LayerCount: 2
Fore
SplineSet
512 500 m 1,0,-1
 512 0 l 1,1,-1
 370 0 l 1,2,-1
 370 53 l 1,3,4
 335 -17 335 -17 238 -17 c 0,5,6
 147 -17 147 -17 92 46 c 0,7,8
 79 61 79 61 70.5 76 c 128,-1,9
 62 91 62 91 56.5 109 c 128,-1,10
 51 127 51 127 49 149 c 128,-1,11
 47 171 47 171 47 201 c 2,12,-1
 47 500 l 1,13,-1
 197 500 l 1,14,-1
 197 221 l 2,15,16
 197 169 197 169 216 146 c 128,-1,17
 235 123 235 123 277 123 c 0,18,19
 318 123 318 123 340 148.5 c 128,-1,20
 362 174 362 174 362 221 c 2,21,-1
 362 500 l 1,22,-1
 512 500 l 1,0,-1
220 765 m 1,23,-1
 415 617 l 1,24,-1
 364 543 l 1,25,-1
 160 674 l 1,26,-1
 220 765 l 1,23,-1
EndSplineSet
Validated: 1
EndChar

StartChar: ucircumflex
Encoding: 251 251 127
Width: 562
Flags: W
LayerCount: 2
Fore
SplineSet
512 500 m 1,0,-1
 512 0 l 1,1,-1
 370 0 l 1,2,-1
 370 53 l 1,3,4
 335 -17 335 -17 238 -17 c 0,5,6
 147 -17 147 -17 92 46 c 0,7,8
 79 61 79 61 70.5 76 c 128,-1,9
 62 91 62 91 56.5 109 c 128,-1,10
 51 127 51 127 49 149 c 128,-1,11
 47 171 47 171 47 201 c 2,12,-1
 47 500 l 1,13,-1
 197 500 l 1,14,-1
 197 221 l 2,15,16
 197 169 197 169 216 146 c 128,-1,17
 235 123 235 123 277 123 c 0,18,19
 318 123 318 123 340 148.5 c 128,-1,20
 362 174 362 174 362 221 c 2,21,-1
 362 500 l 1,22,-1
 512 500 l 1,0,-1
281 618 m 1,23,-1
 240 560 l 1,24,-1
 98 560 l 1,25,-1
 231 709 l 1,26,-1
 335 709 l 1,27,-1
 464 560 l 1,28,-1
 323 560 l 1,29,-1
 281 618 l 1,23,-1
EndSplineSet
Validated: 1
EndChar

StartChar: udieresis
Encoding: 252 252 128
Width: 562
Flags: W
LayerCount: 2
Fore
SplineSet
512 500 m 1,0,-1
 512 0 l 1,1,-1
 370 0 l 1,2,-1
 370 53 l 1,3,4
 335 -17 335 -17 238 -17 c 0,5,6
 147 -17 147 -17 92 46 c 0,7,8
 79 61 79 61 70.5 76 c 128,-1,9
 62 91 62 91 56.5 109 c 128,-1,10
 51 127 51 127 49 149 c 128,-1,11
 47 171 47 171 47 201 c 2,12,-1
 47 500 l 1,13,-1
 197 500 l 1,14,-1
 197 221 l 2,15,16
 197 169 197 169 216 146 c 128,-1,17
 235 123 235 123 277 123 c 0,18,19
 318 123 318 123 340 148.5 c 128,-1,20
 362 174 362 174 362 221 c 2,21,-1
 362 500 l 1,22,-1
 512 500 l 1,0,-1
108 567 m 1,23,-1
 108 703 l 1,24,-1
 251 703 l 1,25,-1
 251 567 l 1,26,-1
 108 567 l 1,23,-1
308 567 m 1,27,-1
 308 703 l 1,28,-1
 451 703 l 1,29,-1
 451 567 l 1,30,-1
 308 567 l 1,27,-1
EndSplineSet
Validated: 1
EndChar

StartChar: dagger
Encoding: 8224 8224 129
Width: 550
Flags: W
LayerCount: 2
Fore
SplineSet
349 667 m 1,0,-1
 349 501 l 1,1,-1
 498 501 l 1,2,-1
 498 371 l 1,3,-1
 349 371 l 1,4,-1
 349 -167 l 1,5,-1
 201 -167 l 1,6,-1
 201 371 l 1,7,-1
 52 371 l 1,8,-1
 52 501 l 1,9,-1
 201 501 l 1,10,-1
 201 667 l 1,11,-1
 349 667 l 1,0,-1
EndSplineSet
Validated: 1
EndChar

StartChar: degree
Encoding: 176 176 130
Width: 500
Flags: W
LayerCount: 2
Fore
SplineSet
250 358 m 256,0,1
 218 358 218 358 190 370 c 128,-1,2
 162 382 162 382 141 402.5 c 128,-1,3
 120 423 120 423 108 450.5 c 128,-1,4
 96 478 96 478 96 510 c 0,5,6
 96 541 96 541 108 568.5 c 128,-1,7
 120 596 120 596 141 616.5 c 128,-1,8
 162 637 162 637 190 649 c 128,-1,9
 218 661 218 661 250 661 c 256,10,11
 282 661 282 661 310 649 c 128,-1,12
 338 637 338 637 359 616.5 c 128,-1,13
 380 596 380 596 392 568.5 c 128,-1,14
 404 541 404 541 404 510 c 0,15,16
 404 478 404 478 392 450.5 c 128,-1,17
 380 423 380 423 359 402.5 c 128,-1,18
 338 382 338 382 310 370 c 128,-1,19
 282 358 282 358 250 358 c 256,0,1
250 586 m 256,20,21
 218 586 218 586 195 564 c 128,-1,22
 172 542 172 542 172 510 c 0,23,24
 172 494 172 494 178 480 c 128,-1,25
 184 466 184 466 194.5 455.5 c 128,-1,26
 205 445 205 445 219.5 439 c 128,-1,27
 234 433 234 433 250 433 c 256,28,29
 266 433 266 433 280.5 439 c 128,-1,30
 295 445 295 445 305.5 455.5 c 128,-1,31
 316 466 316 466 322 480 c 128,-1,32
 328 494 328 494 328 510 c 0,33,34
 328 542 328 542 305 564 c 128,-1,35
 282 586 282 586 250 586 c 256,20,21
EndSplineSet
Validated: 1
EndChar

StartChar: cent
Encoding: 162 162 131
Width: 550
Flags: W
LayerCount: 2
Fore
SplineSet
331 649 m 1,0,-1
 331 558 l 1,1,2
 364 549 364 549 393 531 c 128,-1,3
 422 513 422 513 444 489 c 128,-1,4
 466 465 466 465 480 436.5 c 128,-1,5
 494 408 494 408 497 378 c 1,6,-1
 342 378 l 1,7,8
 322 414 322 414 278 414 c 0,9,10
 246 414 246 414 223.5 391.5 c 128,-1,11
 201 369 201 369 201 337 c 256,12,13
 201 305 201 305 223.5 283.5 c 128,-1,14
 246 262 246 262 278 262 c 0,15,16
 312 262 312 262 339 293 c 1,17,-1
 497 293 l 1,18,19
 485 228 485 228 441.5 182 c 128,-1,20
 398 136 398 136 337 123 c 1,21,-1
 337 28 l 1,22,-1
 213 28 l 1,23,-1
 213 123 l 1,24,25
 138 148 138 148 95.5 204.5 c 128,-1,26
 53 261 53 261 53 336 c 0,27,28
 53 374 53 374 64.5 408.5 c 128,-1,29
 76 443 76 443 97 471.5 c 128,-1,30
 118 500 118 500 147.5 521 c 128,-1,31
 177 542 177 542 213 554 c 1,32,-1
 213 649 l 1,33,-1
 331 649 l 1,0,-1
EndSplineSet
Validated: 1
EndChar

StartChar: sterling
Encoding: 163 163 132
Width: 550
Flags: W
LayerCount: 2
Fore
SplineSet
404 195 m 0,0,1
 404 203 404 203 403 209.5 c 128,-1,2
 402 216 402 216 398 227 c 1,3,-1
 543 227 l 1,4,5
 548 210 548 210 550.5 198.5 c 128,-1,6
 553 187 553 187 553 170 c 0,7,8
 553 134 553 134 538 102.5 c 128,-1,9
 523 71 523 71 496.5 48.5 c 128,-1,10
 470 26 470 26 434 13 c 128,-1,11
 398 0 398 0 356 0 c 2,12,-1
 36 0 l 1,13,-1
 36 133 l 1,14,-1
 80 133 l 2,15,16
 124 133 124 133 143 144 c 128,-1,17
 162 155 162 155 162 181 c 0,18,19
 162 205 162 205 146 227 c 2,20,-1
 124 256 l 1,21,-1
 8 256 l 1,22,-1
 8 376 l 1,23,-1
 52 376 l 1,24,25
 37 405 37 405 32 422 c 128,-1,26
 27 439 27 439 27 461 c 0,27,28
 27 506 27 506 46 546 c 128,-1,29
 65 586 65 586 97.5 615.5 c 128,-1,30
 130 645 130 645 173.5 662.5 c 128,-1,31
 217 680 217 680 267 680 c 0,32,33
 331 680 331 680 384 652.5 c 128,-1,34
 437 625 437 625 468 574 c 0,35,36
 476 561 476 561 481.5 549.5 c 128,-1,37
 487 538 487 538 490.5 525 c 128,-1,38
 494 512 494 512 497 496 c 128,-1,39
 500 480 500 480 502 458 c 1,40,-1
 345 458 l 1,41,42
 338 530 338 530 276 530 c 0,43,44
 242 530 242 530 219.5 506.5 c 128,-1,45
 197 483 197 483 197 448 c 0,46,47
 197 428 197 428 203.5 412 c 128,-1,48
 210 396 210 396 227 376 c 1,49,-1
 368 376 l 1,50,-1
 368 256 l 1,51,-1
 299 256 l 1,52,53
 316 236 316 236 322 223 c 128,-1,54
 328 210 328 210 328 194 c 0,55,56
 328 177 328 177 320.5 163.5 c 128,-1,57
 313 150 313 150 293 133 c 1,58,-1
 331 133 l 2,59,60
 404 133 404 133 404 195 c 0,0,1
EndSplineSet
Validated: 1
EndChar

StartChar: section
Encoding: 167 167 133
Width: 550
Flags: W
LayerCount: 2
Fore
SplineSet
283 680 m 0,0,1
 329 680 329 680 368 666.5 c 128,-1,2
 407 653 407 653 435.5 628 c 128,-1,3
 464 603 464 603 481 569 c 128,-1,4
 498 535 498 535 500 495 c 1,5,-1
 353 495 l 1,6,7
 338 547 338 547 274 547 c 0,8,9
 244 547 244 547 227.5 535 c 128,-1,10
 211 523 211 523 211 500 c 0,11,12
 211 483 211 483 222.5 471.5 c 128,-1,13
 234 460 234 460 264 446 c 2,14,-1
 428 372 l 2,15,16
 488 345 488 345 514.5 310 c 128,-1,17
 541 275 541 275 541 222 c 0,18,19
 541 183 541 183 525.5 151 c 128,-1,20
 510 119 510 119 469 85 c 2,21,-1
 463 80 l 1,22,23
 488 47 488 47 499 17 c 128,-1,24
 510 -13 510 -13 510 -48 c 0,25,26
 510 -91 510 -91 493.5 -127 c 128,-1,27
 477 -163 477 -163 447 -189 c 128,-1,28
 417 -215 417 -215 375.5 -229.5 c 128,-1,29
 334 -244 334 -244 284 -244 c 0,30,31
 231 -244 231 -244 186 -229 c 128,-1,32
 141 -214 141 -214 108 -186 c 128,-1,33
 75 -158 75 -158 55.5 -118.5 c 128,-1,34
 36 -79 36 -79 32 -31 c 1,35,-1
 180 -31 l 1,36,37
 186 -69 186 -69 212 -88.5 c 128,-1,38
 238 -108 238 -108 281 -108 c 0,39,40
 317 -108 317 -108 340 -91.5 c 128,-1,41
 363 -75 363 -75 363 -49 c 0,42,43
 363 -28 363 -28 346.5 -13 c 128,-1,44
 330 2 330 2 284 23 c 2,45,-1
 130 94 l 2,46,47
 91 112 91 112 70 127.5 c 128,-1,48
 49 143 49 143 35 164 c 0,49,50
 9 202 9 202 9 251 c 0,51,52
 9 296 9 296 30 333 c 128,-1,53
 51 370 51 370 95 402 c 1,54,55
 80 425 80 425 73.5 449 c 128,-1,56
 67 473 67 473 67 502 c 0,57,58
 67 542 67 542 82.5 574.5 c 128,-1,59
 98 607 98 607 126.5 630.5 c 128,-1,60
 155 654 155 654 194.5 667 c 128,-1,61
 234 680 234 680 283 680 c 0,0,1
181 331 m 1,62,63
 145 314 145 314 145 282 c 0,64,65
 145 262 145 262 156 249.5 c 128,-1,66
 167 237 167 237 193 225 c 2,67,-1
 375 141 l 1,68,69
 408 163 408 163 408 196 c 0,70,71
 408 214 408 214 394.5 227.5 c 128,-1,72
 381 241 381 241 347 256 c 2,73,-1
 181 331 l 1,62,63
EndSplineSet
Validated: 1
EndChar

StartChar: bullet
Encoding: 8226 8226 134
Width: 667
Flags: W
LayerCount: 2
Fore
SplineSet
196 340 m 256,0,1
 196 369 196 369 207 394.5 c 128,-1,2
 218 420 218 420 236.5 439 c 128,-1,3
 255 458 255 458 280 469 c 128,-1,4
 305 480 305 480 334 480 c 0,5,6
 362 480 362 480 387 469 c 128,-1,7
 412 458 412 458 430.5 439 c 128,-1,8
 449 420 449 420 460 394.5 c 128,-1,9
 471 369 471 369 471 340 c 256,10,11
 471 311 471 311 460 285.5 c 128,-1,12
 449 260 449 260 430.5 241 c 128,-1,13
 412 222 412 222 387 211 c 128,-1,14
 362 200 362 200 334 200 c 0,15,16
 305 200 305 200 280 211 c 128,-1,17
 255 222 255 222 236.5 241 c 128,-1,18
 218 260 218 260 207 285.5 c 128,-1,19
 196 311 196 311 196 340 c 256,0,1
EndSplineSet
Validated: 1
EndChar

StartChar: paragraph
Encoding: 182 182 135
Width: 662
Flags: W
LayerCount: 2
Fore
SplineSet
217 -92 m 1,0,-1
 217 321 l 1,1,2
 213 321 213 321 210.5 320.5 c 128,-1,3
 208 320 208 320 206 320 c 0,4,5
 166 320 166 320 133 332.5 c 128,-1,6
 100 345 100 345 76.5 367.5 c 128,-1,7
 53 390 53 390 40 421 c 128,-1,8
 27 452 27 452 27 490 c 0,9,10
 27 667 27 667 257 667 c 2,11,-1
 589 667 l 1,12,-1
 589 569 l 1,13,-1
 516 569 l 1,14,-1
 516 -92 l 1,15,-1
 409 -92 l 1,16,-1
 409 569 l 1,17,-1
 325 569 l 1,18,-1
 325 -92 l 1,19,-1
 217 -92 l 1,0,-1
EndSplineSet
Validated: 1
EndChar

StartChar: germandbls
Encoding: 223 223 136
Width: 617
Flags: W
LayerCount: 2
Fore
SplineSet
197 0 m 1,0,-1
 47 0 l 1,1,-1
 47 385 l 2,2,3
 47 428 47 428 49.5 459 c 128,-1,4
 52 490 52 490 58.5 514 c 128,-1,5
 65 538 65 538 76 557.5 c 128,-1,6
 87 577 87 577 104 596 c 0,7,8
 141 638 141 638 193.5 661 c 128,-1,9
 246 684 246 684 302 684 c 0,10,11
 346 684 346 684 384.5 669 c 128,-1,12
 423 654 423 654 452 628.5 c 128,-1,13
 481 603 481 603 497.5 569 c 128,-1,14
 514 535 514 535 514 496 c 256,15,16
 514 457 514 457 499 429.5 c 128,-1,17
 484 402 484 402 450 379 c 1,18,19
 481 372 481 372 506.5 355.5 c 128,-1,20
 532 339 532 339 550.5 316 c 128,-1,21
 569 293 569 293 579.5 264.5 c 128,-1,22
 590 236 590 236 590 205 c 0,23,24
 590 159 590 159 571.5 118.5 c 128,-1,25
 553 78 553 78 521.5 48 c 128,-1,26
 490 18 490 18 447.5 0.5 c 128,-1,27
 405 -17 405 -17 357 -17 c 0,28,29
 332 -17 332 -17 311 -13 c 128,-1,30
 290 -9 290 -9 271.5 -0.5 c 128,-1,31
 253 8 253 8 235 22.5 c 128,-1,32
 217 37 217 37 197 58 c 1,33,-1
 197 0 l 1,0,-1
197 188 m 1,34,-1
 280 188 l 1,35,36
 299 123 299 123 358 123 c 0,37,38
 393 123 393 123 416.5 146.5 c 128,-1,39
 440 170 440 170 440 205 c 0,40,41
 440 243 440 243 413 266 c 128,-1,42
 386 289 386 289 339 289 c 2,43,-1
 258 289 l 1,44,-1
 258 401 l 1,45,-1
 288 401 l 2,46,47
 323 401 323 401 343.5 420 c 128,-1,48
 364 439 364 439 364 471 c 256,49,50
 364 503 364 503 342 523.5 c 128,-1,51
 320 544 320 544 286 544 c 0,52,53
 242 544 242 544 219.5 514 c 128,-1,54
 197 484 197 484 197 427 c 2,55,-1
 197 188 l 1,34,-1
EndSplineSet
Validated: 1
EndChar

StartChar: registered
Encoding: 174 174 137
Width: 513
Flags: W
LayerCount: 2
Fore
SplineSet
45 557 m 256,0,1
 45 601 45 601 61.5 639.5 c 128,-1,2
 78 678 78 678 107 707 c 128,-1,3
 136 736 136 736 174.5 752.5 c 128,-1,4
 213 769 213 769 257 769 c 256,5,6
 301 769 301 769 339.5 752.5 c 128,-1,7
 378 736 378 736 407 707 c 128,-1,8
 436 678 436 678 452.5 639.5 c 128,-1,9
 469 601 469 601 469 557 c 256,10,11
 469 513 469 513 452.5 474.5 c 128,-1,12
 436 436 436 436 407 407 c 128,-1,13
 378 378 378 378 339.5 361.5 c 128,-1,14
 301 345 301 345 257 345 c 256,15,16
 213 345 213 345 174.5 361.5 c 128,-1,17
 136 378 136 378 107 407 c 128,-1,18
 78 436 78 436 61.5 474.5 c 128,-1,19
 45 513 45 513 45 557 c 256,0,1
429 557 m 256,20,21
 429 593 429 593 415.5 624 c 128,-1,22
 402 655 402 655 378.5 678.5 c 128,-1,23
 355 702 355 702 324 715.5 c 128,-1,24
 293 729 293 729 257 729 c 256,25,26
 221 729 221 729 189.5 715.5 c 128,-1,27
 158 702 158 702 134.5 678.5 c 128,-1,28
 111 655 111 655 97.5 624 c 128,-1,29
 84 593 84 593 84 557 c 256,30,31
 84 521 84 521 97.5 489.5 c 128,-1,32
 111 458 111 458 134.5 434.5 c 128,-1,33
 158 411 158 411 189.5 397.5 c 128,-1,34
 221 384 221 384 257 384 c 256,35,36
 293 384 293 384 324 397.5 c 128,-1,37
 355 411 355 411 378.5 434.5 c 128,-1,38
 402 458 402 458 415.5 489.5 c 128,-1,39
 429 521 429 521 429 557 c 256,20,21
172 447 m 1,40,-1
 172 667 l 1,41,-1
 247 667 l 2,42,43
 348 667 348 667 348 590 c 0,44,45
 348 564 348 564 333 544.5 c 128,-1,46
 318 525 318 525 295 520 c 1,47,-1
 357 447 l 1,48,-1
 284 447 l 1,49,-1
 234 514 l 1,50,-1
 234 447 l 1,51,-1
 172 447 l 1,40,-1
232 558 m 1,52,-1
 252 558 l 2,53,54
 289 558 289 558 289 586 c 256,55,56
 289 614 289 614 252 614 c 2,57,-1
 232 614 l 1,58,-1
 232 558 l 1,52,-1
EndSplineSet
Validated: 1
EndChar

StartChar: copyright
Encoding: 169 169 138
Width: 747
Flags: W
LayerCount: 2
Fore
SplineSet
373 680 m 256,0,1
 445 680 445 680 508 653 c 128,-1,2
 571 626 571 626 618.5 578.5 c 128,-1,3
 666 531 666 531 693 468 c 128,-1,4
 720 405 720 405 720 333 c 256,5,6
 720 261 720 261 693 198 c 128,-1,7
 666 135 666 135 618.5 88 c 128,-1,8
 571 41 571 41 508 14 c 128,-1,9
 445 -13 445 -13 373 -13 c 256,10,11
 301 -13 301 -13 238 14 c 128,-1,12
 175 41 175 41 128 88 c 128,-1,13
 81 135 81 135 54 198 c 128,-1,14
 27 261 27 261 27 333 c 256,15,16
 27 405 27 405 54 468 c 128,-1,17
 81 531 81 531 128 578.5 c 128,-1,18
 175 626 175 626 238 653 c 128,-1,19
 301 680 301 680 373 680 c 256,0,1
373 46 m 256,20,21
 432 46 432 46 484 68.5 c 128,-1,22
 536 91 536 91 574.5 130 c 128,-1,23
 613 169 613 169 635.5 221.5 c 128,-1,24
 658 274 658 274 658 333 c 0,25,26
 658 393 658 393 635.5 445.5 c 128,-1,27
 613 498 613 498 574.5 537 c 128,-1,28
 536 576 536 576 484 598.5 c 128,-1,29
 432 621 432 621 373 621 c 256,30,31
 314 621 314 621 262 598.5 c 128,-1,32
 210 576 210 576 171.5 537 c 128,-1,33
 133 498 133 498 110.5 445.5 c 128,-1,34
 88 393 88 393 88 333 c 0,35,36
 88 274 88 274 110.5 221.5 c 128,-1,37
 133 169 133 169 171.5 130 c 128,-1,38
 210 91 210 91 262 68.5 c 128,-1,39
 314 46 314 46 373 46 c 256,20,21
376 215 m 0,40,41
 443 215 443 215 476 283 c 1,42,-1
 586 283 l 1,43,44
 577 248 577 248 557.5 219 c 128,-1,45
 538 190 538 190 510.5 169 c 128,-1,46
 483 148 483 148 449 136.5 c 128,-1,47
 415 125 415 125 378 125 c 0,48,49
 332 125 332 125 292.5 141 c 128,-1,50
 253 157 253 157 223.5 185.5 c 128,-1,51
 194 214 194 214 177.5 252 c 128,-1,52
 161 290 161 290 161 334 c 0,53,54
 161 377 161 377 177.5 415 c 128,-1,55
 194 453 194 453 223.5 481 c 128,-1,56
 253 509 253 509 292 525 c 128,-1,57
 331 541 331 541 376 541 c 0,58,59
 414 541 414 541 449.5 528.5 c 128,-1,60
 485 516 485 516 513.5 494.5 c 128,-1,61
 542 473 542 473 561 444 c 128,-1,62
 580 415 580 415 586 381 c 1,63,-1
 476 381 l 1,64,65
 463 413 463 413 436.5 432 c 128,-1,66
 410 451 410 451 376 451 c 0,67,68
 328 451 328 451 297 418 c 128,-1,69
 266 385 266 385 266 334 c 0,70,71
 266 309 266 309 274.5 287 c 128,-1,72
 283 265 283 265 298 249 c 128,-1,73
 313 233 313 233 333 224 c 128,-1,74
 353 215 353 215 376 215 c 0,40,41
EndSplineSet
Validated: 1
EndChar

StartChar: trademark
Encoding: 8482 8482 139
Width: 817
Flags: W
LayerCount: 2
Fore
SplineSet
93 287 m 1,0,-1
 93 576 l 1,1,-1
 10 576 l 1,2,-1
 10 667 l 1,3,-1
 290 667 l 1,4,-1
 290 576 l 1,5,-1
 207 576 l 1,6,-1
 207 287 l 1,7,-1
 93 287 l 1,0,-1
314 287 m 1,8,-1
 314 667 l 1,9,-1
 457 667 l 1,10,-1
 539 428 l 1,11,-1
 619 667 l 1,12,-1
 764 667 l 1,13,-1
 764 287 l 1,14,-1
 658 287 l 1,15,-1
 662 549 l 1,16,-1
 576 287 l 1,17,-1
 501 287 l 1,18,-1
 416 549 l 1,19,-1
 419 287 l 1,20,-1
 314 287 l 1,8,-1
EndSplineSet
Validated: 1
EndChar

StartChar: acute
Encoding: 180 180 140
Width: 500
Flags: W
LayerCount: 2
Fore
SplineSet
351 765 m 1,0,-1
 411 674 l 1,1,-1
 207 543 l 1,2,-1
 156 617 l 1,3,-1
 351 765 l 1,0,-1
EndSplineSet
Validated: 1
EndChar

StartChar: dieresis
Encoding: 168 168 141
Width: 500
Flags: W
LayerCount: 2
Fore
SplineSet
78 567 m 1,0,-1
 78 703 l 1,1,-1
 222 703 l 1,2,-1
 222 567 l 1,3,-1
 78 567 l 1,0,-1
278 567 m 1,4,-1
 278 703 l 1,5,-1
 422 703 l 1,6,-1
 422 567 l 1,7,-1
 278 567 l 1,4,-1
EndSplineSet
Validated: 1
EndChar

StartChar: notequal
Encoding: 65539 -1 142
Width: 500
Flags: W
LayerCount: 2
Fore
SplineSet
263 470 m 1,0,-1
 317 578 l 1,1,-1
 417 578 l 1,2,-1
 363 470 l 1,3,-1
 467 470 l 1,4,-1
 467 356 l 1,5,-1
 312 356 l 1,6,-1
 277 288 l 1,7,-1
 467 288 l 1,8,-1
 467 174 l 1,9,-1
 226 174 l 1,10,-1
 177 77 l 1,11,-1
 77 77 l 1,12,-1
 125 174 l 1,13,-1
 34 174 l 1,14,-1
 34 288 l 1,15,-1
 176 288 l 1,16,-1
 211 356 l 1,17,-1
 34 356 l 1,18,-1
 34 470 l 1,19,-1
 263 470 l 1,0,-1
EndSplineSet
Validated: 1
EndChar

StartChar: AE
Encoding: 198 198 143
Width: 858
Flags: W
LayerCount: 2
Fore
SplineSet
446 111 m 1,0,-1
 252 111 l 1,1,-1
 180 0 l 1,2,-1
 -27 0 l 1,3,-1
 437 667 l 1,4,-1
 817 667 l 1,5,-1
 817 517 l 1,6,-1
 609 517 l 1,7,-1
 609 414 l 1,8,-1
 810 414 l 1,9,-1
 810 264 l 1,10,-1
 609 264 l 1,11,-1
 609 150 l 1,12,-1
 817 150 l 1,13,-1
 817 0 l 1,14,-1
 446 0 l 1,15,-1
 446 111 l 1,0,-1
446 243 m 1,16,-1
 446 425 l 1,17,-1
 321 243 l 1,18,-1
 446 243 l 1,16,-1
EndSplineSet
Validated: 1
EndChar

StartChar: Oslash
Encoding: 216 216 144
Width: 761
Flags: W
LayerCount: 2
Fore
SplineSet
121 96 m 1,0,-1
 119 99 l 1,1,2
 29 196 29 196 29 333 c 0,3,4
 29 407 29 407 56 470.5 c 128,-1,5
 83 534 83 534 130 580.5 c 128,-1,6
 177 627 177 627 241.5 653.5 c 128,-1,7
 306 680 306 680 381 680 c 0,8,9
 406 680 406 680 425 679 c 128,-1,10
 444 678 444 678 460.5 674.5 c 128,-1,11
 477 671 477 671 493.5 664.5 c 128,-1,12
 510 658 510 658 531 648 c 1,13,-1
 590 726 l 1,14,-1
 696 650 l 1,15,-1
 638 572 l 1,16,-1
 640 569 l 1,17,18
 733 468 733 468 733 333 c 0,19,20
 733 260 733 260 705.5 196.5 c 128,-1,21
 678 133 678 133 630.5 86.5 c 128,-1,22
 583 40 583 40 518.5 13.5 c 128,-1,23
 454 -13 454 -13 379 -13 c 0,24,25
 355 -13 355 -13 337 -11.5 c 128,-1,26
 319 -10 319 -10 302.5 -7 c 128,-1,27
 286 -4 286 -4 269 2 c 128,-1,28
 252 8 252 8 231 17 c 1,29,-1
 228 19 l 1,30,-1
 172 -57 l 1,31,-1
 66 21 l 1,32,-1
 121 96 l 1,0,-1
199 336 m 0,33,34
 199 310 199 310 205.5 282.5 c 128,-1,35
 212 255 212 255 223 233 c 1,36,-1
 437 521 l 1,37,38
 420 527 420 527 409.5 528.5 c 128,-1,39
 399 530 399 530 381 530 c 0,40,41
 342 530 342 530 309 515 c 128,-1,42
 276 500 276 500 251.5 474 c 128,-1,43
 227 448 227 448 213 412.5 c 128,-1,44
 199 377 199 377 199 336 c 0,33,34
563 332 m 0,45,46
 563 385 563 385 537 435 c 1,47,-1
 323 146 l 1,48,49
 340 140 340 140 351 138.5 c 128,-1,50
 362 137 362 137 382 137 c 0,51,52
 420 137 420 137 453 152 c 128,-1,53
 486 167 486 167 510.5 193 c 128,-1,54
 535 219 535 219 549 255 c 128,-1,55
 563 291 563 291 563 332 c 0,45,46
EndSplineSet
Validated: 1
EndChar

StartChar: infinity
Encoding: 65540 -1 145
Width: 667
Flags: W
LayerCount: 2
Fore
SplineSet
488 177 m 0,0,1
 404 177 404 177 337 257 c 1,2,3
 299 215 299 215 261.5 196 c 128,-1,4
 224 177 224 177 179 177 c 0,5,6
 143 177 143 177 113.5 189 c 128,-1,7
 84 201 84 201 62.5 222.5 c 128,-1,8
 41 244 41 244 29 273.5 c 128,-1,9
 17 303 17 303 17 339 c 256,10,11
 17 375 17 375 29 404.5 c 128,-1,12
 41 434 41 434 62.5 456 c 128,-1,13
 84 478 84 478 113.5 490 c 128,-1,14
 143 502 143 502 178 502 c 0,15,16
 221 502 221 502 257 483 c 128,-1,17
 293 464 293 464 331 422 c 1,18,19
 399 502 399 502 487 502 c 0,20,21
 523 502 523 502 553 490 c 128,-1,22
 583 478 583 478 604.5 456.5 c 128,-1,23
 626 435 626 435 638 405.5 c 128,-1,24
 650 376 650 376 650 340 c 256,25,26
 650 304 650 304 638 274.5 c 128,-1,27
 626 245 626 245 604.5 223 c 128,-1,28
 583 201 583 201 553.5 189 c 128,-1,29
 524 177 524 177 488 177 c 0,0,1
467 388 m 0,30,31
 448 388 448 388 431.5 376.5 c 128,-1,32
 415 365 415 365 396 339 c 1,33,34
 415 313 415 313 431.5 302 c 128,-1,35
 448 291 448 291 467 291 c 0,36,37
 490 291 490 291 504.5 305 c 128,-1,38
 519 319 519 319 519 340 c 0,39,40
 519 360 519 360 504 374 c 128,-1,41
 489 388 489 388 467 388 c 0,30,31
200 290 m 0,42,43
 219 290 219 290 235 301.5 c 128,-1,44
 251 313 251 313 271 339 c 1,45,46
 252 365 252 365 235.5 376.5 c 128,-1,47
 219 388 219 388 199 388 c 0,48,49
 177 388 177 388 162 373.5 c 128,-1,50
 147 359 147 359 147 339 c 256,51,52
 147 319 147 319 162.5 304.5 c 128,-1,53
 178 290 178 290 200 290 c 0,42,43
EndSplineSet
Validated: 1
EndChar

StartChar: plusminus
Encoding: 177 177 146
Width: 500
Flags: W
LayerCount: 2
Fore
SplineSet
33 473 m 1,0,-1
 187 473 l 1,1,-1
 187 627 l 1,2,-1
 313 627 l 1,3,-1
 313 473 l 1,4,-1
 467 473 l 1,5,-1
 467 356 l 1,6,-1
 313 356 l 1,7,-1
 313 202 l 1,8,-1
 187 202 l 1,9,-1
 187 356 l 1,10,-1
 33 356 l 1,11,-1
 33 473 l 1,0,-1
33 168 m 1,12,-1
 467 168 l 1,13,-1
 467 51 l 1,14,-1
 33 51 l 1,15,-1
 33 168 l 1,12,-1
EndSplineSet
Validated: 1
EndChar

StartChar: lessequal
Encoding: 65541 -1 147
Width: 500
Flags: W
LayerCount: 2
Fore
SplineSet
467 666 m 1,0,-1
 467 547 l 1,1,-1
 167 405 l 1,2,-1
 466 263 l 1,3,-1
 467 145 l 1,4,-1
 33 352 l 1,5,-1
 33 459 l 1,6,-1
 467 666 l 1,0,-1
467 117 m 1,7,-1
 467 3 l 1,8,-1
 33 3 l 1,9,-1
 33 117 l 1,10,-1
 467 117 l 1,7,-1
EndSplineSet
Validated: 1
EndChar

StartChar: greaterequal
Encoding: 65542 -1 148
Width: 500
Flags: W
LayerCount: 2
Fore
SplineSet
33 145 m 1,0,-1
 33 263 l 1,1,-1
 333 406 l 1,2,-1
 34 547 l 1,3,-1
 33 666 l 1,4,-1
 467 458 l 1,5,-1
 467 352 l 1,6,-1
 33 145 l 1,0,-1
33 3 m 1,7,-1
 33 117 l 1,8,-1
 467 117 l 1,9,-1
 467 3 l 1,10,-1
 33 3 l 1,7,-1
EndSplineSet
Validated: 1
EndChar

StartChar: yen
Encoding: 165 165 149
Width: 550
Flags: W
LayerCount: 2
Fore
SplineSet
194 167 m 1,0,-1
 69 167 l 1,1,-1
 69 272 l 1,2,-1
 181 272 l 1,3,-1
 143 361 l 1,4,-1
 42 361 l 1,5,-1
 42 466 l 1,6,-1
 97 466 l 1,7,-1
 11 667 l 1,8,-1
 180 667 l 1,9,-1
 276 399 l 1,10,-1
 372 667 l 1,11,-1
 539 667 l 1,12,-1
 449 456 l 1,13,-1
 508 456 l 1,14,-1
 508 351 l 1,15,-1
 404 351 l 1,16,-1
 370 272 l 1,17,-1
 481 272 l 1,18,-1
 481 167 l 1,19,-1
 357 167 l 1,20,-1
 357 0 l 1,21,-1
 194 0 l 1,22,-1
 194 167 l 1,0,-1
EndSplineSet
Validated: 1
EndChar

StartChar: mu
Encoding: 65543 -1 150
Width: 500
Flags: W
LayerCount: 2
Fore
SplineSet
28 -173 m 1,0,-1
 28 480 l 1,1,-1
 154 480 l 1,2,-1
 154 225 l 2,3,4
 154 90 154 90 253 90 c 0,5,6
 348 90 348 90 348 229 c 2,7,-1
 348 480 l 1,8,-1
 474 480 l 1,9,-1
 474 0 l 1,10,-1
 348 0 l 1,11,-1
 348 58 l 1,12,13
 330 22 330 22 307 6 c 128,-1,14
 284 -10 284 -10 250 -10 c 0,15,16
 218 -10 218 -10 195.5 4.5 c 128,-1,17
 173 19 173 19 154 51 c 1,18,-1
 154 -173 l 1,19,-1
 28 -173 l 1,0,-1
EndSplineSet
Validated: 1
EndChar

StartChar: partialdiff
Encoding: 65544 -1 151
Width: 500
Flags: W
LayerCount: 2
Fore
SplineSet
221 510 m 0,0,1
 186 529 186 529 148 539.5 c 128,-1,2
 110 550 110 550 57 555 c 1,3,-1
 73 665 l 1,4,5
 123 659 123 659 164 650.5 c 128,-1,6
 205 642 205 642 239.5 629 c 128,-1,7
 274 616 274 616 303 598.5 c 128,-1,8
 332 581 332 581 359 558 c 0,9,10
 421 504 421 504 453.5 430 c 128,-1,11
 486 356 486 356 486 268 c 0,12,13
 486 205 486 205 468.5 154 c 128,-1,14
 451 103 451 103 419 66.5 c 128,-1,15
 387 30 387 30 341.5 10.5 c 128,-1,16
 296 -9 296 -9 241 -9 c 0,17,18
 193 -9 193 -9 150.5 9 c 128,-1,19
 108 27 108 27 77 57.5 c 128,-1,20
 46 88 46 88 28 130 c 128,-1,21
 10 172 10 172 10 220 c 0,22,23
 10 265 10 265 26 303.5 c 128,-1,24
 42 342 42 342 69.5 370.5 c 128,-1,25
 97 399 97 399 134.5 415.5 c 128,-1,26
 172 432 172 432 216 432 c 0,27,28
 292 432 292 432 339 385 c 1,29,30
 319 429 319 429 291.5 458 c 128,-1,31
 264 487 264 487 221 510 c 0,0,1
233 326 m 1,32,33
 192 321 192 321 166 291 c 128,-1,34
 140 261 140 261 140 217 c 0,35,36
 140 193 140 193 148 172.5 c 128,-1,37
 156 152 156 152 170 137 c 128,-1,38
 184 122 184 122 203 113.5 c 128,-1,39
 222 105 222 105 244 105 c 0,40,41
 289 105 289 105 318.5 137 c 128,-1,42
 348 169 348 169 348 217 c 256,43,44
 348 265 348 265 318.5 295.5 c 128,-1,45
 289 326 289 326 243 326 c 2,46,-1
 233 326 l 1,32,33
EndSplineSet
Validated: 1
EndChar

StartChar: summation
Encoding: 65545 -1 152
Width: 667
Flags: W
LayerCount: 2
Fore
SplineSet
619 750 m 1,0,-1
 619 504 l 1,1,-1
 505 504 l 1,2,-1
 492 636 l 1,3,-1
 164 636 l 1,4,-1
 414 267 l 1,5,-1
 164 -136 l 1,6,-1
 501 -136 l 1,7,-1
 509 -1 l 1,8,-1
 628 -1 l 1,9,-1
 628 -250 l 1,10,-1
 21 -250 l 1,11,-1
 21 -123 l 1,12,-1
 265 267 l 1,13,-1
 21 623 l 1,14,-1
 21 750 l 1,15,-1
 619 750 l 1,0,-1
EndSplineSet
Validated: 1
EndChar

StartChar: product
Encoding: 65546 -1 153
Width: 731
Flags: W
LayerCount: 2
Fore
SplineSet
40 750 m 1,0,-1
 692 750 l 1,1,-1
 692 636 l 1,2,-1
 610 636 l 1,3,-1
 610 -136 l 1,4,-1
 692 -136 l 1,5,-1
 692 -250 l 1,6,-1
 401 -250 l 1,7,-1
 401 -136 l 1,8,-1
 481 -136 l 1,9,-1
 481 636 l 1,10,-1
 250 636 l 1,11,-1
 250 -136 l 1,12,-1
 329 -136 l 1,13,-1
 329 -250 l 1,14,-1
 40 -250 l 1,15,-1
 40 -136 l 1,16,-1
 123 -136 l 1,17,-1
 123 636 l 1,18,-1
 40 636 l 1,19,-1
 40 750 l 1,0,-1
EndSplineSet
Validated: 1
EndChar

StartChar: pi
Encoding: 65547 -1 154
Width: 662
Flags: W
LayerCount: 2
Fore
SplineSet
114 0 m 1,0,-1
 114 368 l 1,1,-1
 37 368 l 1,2,-1
 37 482 l 1,3,-1
 624 482 l 1,4,-1
 624 368 l 1,5,-1
 549 368 l 1,6,-1
 549 0 l 1,7,-1
 422 0 l 1,8,-1
 422 368 l 1,9,-1
 240 368 l 1,10,-1
 240 0 l 1,11,-1
 114 0 l 1,0,-1
EndSplineSet
Validated: 1
EndChar

StartChar: integral
Encoding: 65548 -1 155
Width: 500
Flags: W
LayerCount: 2
Fore
SplineSet
141 -250 m 0,0,1
 118 -250 118 -250 97.5 -247.5 c 128,-1,2
 77 -245 77 -245 49 -240 c 1,3,-1
 72 -127 l 1,4,5
 94 -134 94 -134 103.5 -135.5 c 128,-1,6
 113 -137 113 -137 127 -137 c 0,7,8
 144 -137 144 -137 155.5 -133 c 128,-1,9
 167 -129 167 -129 173.5 -119 c 128,-1,10
 180 -109 180 -109 182.5 -91.5 c 128,-1,11
 185 -74 185 -74 185 -48 c 2,12,-1
 185 -4 l 1,13,-1
 185 480 l 2,14,15
 185 535 185 535 186 570 c 128,-1,16
 187 605 187 605 191 627 c 128,-1,17
 195 649 195 649 201.5 663 c 128,-1,18
 208 677 208 677 220 692 c 0,19,20
 244 722 244 722 278.5 736 c 128,-1,21
 313 750 313 750 361 750 c 0,22,23
 381 750 381 750 399.5 748 c 128,-1,24
 418 746 418 746 451 740 c 1,25,-1
 428 627 l 1,26,27
 406 634 406 634 396 635.5 c 128,-1,28
 386 637 386 637 372 637 c 0,29,30
 343 637 343 637 329 620.5 c 128,-1,31
 315 604 315 604 315 566 c 2,32,-1
 315 505 l 1,33,-1
 315 439 l 1,34,-1
 315 20 l 2,35,36
 315 -35 315 -35 314 -69.5 c 128,-1,37
 313 -104 313 -104 309 -126.5 c 128,-1,38
 305 -149 305 -149 298.5 -163 c 128,-1,39
 292 -177 292 -177 280 -191 c 0,40,41
 233 -250 233 -250 141 -250 c 0,0,1
EndSplineSet
Validated: 1
EndChar

StartChar: ordfeminine
Encoding: 170 170 156
Width: 367
Flags: W
LayerCount: 2
Fore
SplineSet
319 667 m 1,0,-1
 319 400 l 1,1,-1
 240 400 l 1,2,-1
 240 423 l 1,3,4
 227 406 227 406 208 398.5 c 128,-1,5
 189 391 189 391 160 391 c 0,6,7
 99 391 99 391 61 430.5 c 128,-1,8
 23 470 23 470 23 534 c 0,9,10
 23 565 23 565 33 591 c 128,-1,11
 43 617 43 617 61.5 636 c 128,-1,12
 80 655 80 655 105.5 665.5 c 128,-1,13
 131 676 131 676 161 676 c 0,14,15
 217 676 217 676 240 644 c 1,16,-1
 240 667 l 1,17,-1
 319 667 l 1,0,-1
312 330 m 1,18,-1
 312 297 l 1,19,-1
 30 297 l 1,20,-1
 30 330 l 1,21,-1
 312 330 l 1,18,-1
170 598 m 0,22,23
 143 598 143 598 125 579.5 c 128,-1,24
 107 561 107 561 107 533 c 0,25,26
 107 506 107 506 125.5 487.5 c 128,-1,27
 144 469 144 469 171 469 c 0,28,29
 199 469 199 469 217 487 c 128,-1,30
 235 505 235 505 235 534 c 0,31,32
 235 562 235 562 217 580 c 128,-1,33
 199 598 199 598 170 598 c 0,22,23
EndSplineSet
Validated: 1
EndChar

StartChar: ordmasculine
Encoding: 186 186 157
Width: 367
Flags: W
LayerCount: 2
Fore
SplineSet
184 391 m 0,0,1
 152 391 152 391 125.5 401.5 c 128,-1,2
 99 412 99 412 79.5 431 c 128,-1,3
 60 450 60 450 49 476 c 128,-1,4
 38 502 38 502 38 532 c 0,5,6
 38 563 38 563 49 589.5 c 128,-1,7
 60 616 60 616 79.5 635 c 128,-1,8
 99 654 99 654 125.5 664.5 c 128,-1,9
 152 675 152 675 183 675 c 256,10,11
 214 675 214 675 241 664.5 c 128,-1,12
 268 654 268 654 287 635 c 128,-1,13
 306 616 306 616 317 590 c 128,-1,14
 328 564 328 564 328 533 c 0,15,16
 328 503 328 503 317 477 c 128,-1,17
 306 451 306 451 287 432 c 128,-1,18
 268 413 268 413 241.5 402 c 128,-1,19
 215 391 215 391 184 391 c 0,0,1
322 330 m 1,20,-1
 322 297 l 1,21,-1
 45 297 l 1,22,-1
 45 330 l 1,23,-1
 322 330 l 1,20,-1
183 598 m 256,24,25
 157 598 157 598 139.5 579.5 c 128,-1,26
 122 561 122 561 122 534 c 0,27,28
 122 506 122 506 139.5 487.5 c 128,-1,29
 157 469 157 469 184 469 c 0,30,31
 210 469 210 469 227.5 487.5 c 128,-1,32
 245 506 245 506 245 533 c 256,33,34
 245 560 245 560 227 579 c 128,-1,35
 209 598 209 598 183 598 c 256,24,25
EndSplineSet
Validated: 1
EndChar

StartChar: Omega
Encoding: 65549 -1 158
Width: 667
Flags: W
LayerCount: 2
Fore
SplineSet
29 0 m 1,0,-1
 29 114 l 1,1,-1
 167 114 l 1,2,3
 147 126 147 126 132 137 c 128,-1,4
 117 148 117 148 105 159.5 c 128,-1,5
 93 171 93 171 84 183 c 128,-1,6
 75 195 75 195 66 210 c 0,7,8
 28 275 28 275 28 366 c 0,9,10
 28 435 28 435 51 493 c 128,-1,11
 74 551 74 551 114.5 593 c 128,-1,12
 155 635 155 635 211 659 c 128,-1,13
 267 683 267 683 333 683 c 256,14,15
 399 683 399 683 455 659 c 128,-1,16
 511 635 511 635 551.5 593 c 128,-1,17
 592 551 592 551 615 493 c 128,-1,18
 638 435 638 435 638 366 c 0,19,20
 638 243 638 243 569 168 c 0,21,22
 554 152 554 152 540 141.5 c 128,-1,23
 526 131 526 131 500 114 c 1,24,-1
 638 114 l 1,25,-1
 638 0 l 1,26,-1
 369 0 l 1,27,-1
 369 101 l 1,28,29
 407 123 407 123 429.5 144 c 128,-1,30
 452 165 452 165 469 194 c 0,31,32
 487 226 487 226 496.5 266.5 c 128,-1,33
 506 307 506 307 506 352 c 0,34,35
 506 399 506 399 493 439 c 128,-1,36
 480 479 480 479 457 508 c 128,-1,37
 434 537 434 537 402.5 553 c 128,-1,38
 371 569 371 569 334 569 c 0,39,40
 296 569 296 569 264.5 552.5 c 128,-1,41
 233 536 233 536 210 507 c 128,-1,42
 187 478 187 478 174 438.5 c 128,-1,43
 161 399 161 399 161 352 c 0,44,45
 161 223 161 223 232 150 c 0,46,47
 248 134 248 134 260.5 124.5 c 128,-1,48
 273 115 273 115 299 101 c 1,49,-1
 299 0 l 1,50,-1
 29 0 l 1,0,-1
EndSplineSet
Validated: 1
EndChar

StartChar: ae
Encoding: 230 230 159
Width: 979
Flags: W
LayerCount: 2
Fore
SplineSet
952 241 m 0,0,1
 952 227 952 227 951.5 220.5 c 128,-1,2
 951 214 951 214 948 203 c 1,3,-1
 573 203 l 1,4,5
 579 160 579 160 610 135 c 128,-1,6
 641 110 641 110 687 110 c 0,7,8
 717 110 717 110 738 120.5 c 128,-1,9
 759 131 759 131 784 158 c 1,10,-1
 935 158 l 1,11,12
 918 117 918 117 900 91.5 c 128,-1,13
 882 66 882 66 855 43 c 0,14,15
 784 -17 784 -17 698 -17 c 0,16,17
 650 -17 650 -17 618 0 c 128,-1,18
 586 17 586 17 563 54 c 1,19,-1
 563 0 l 1,20,-1
 427 0 l 1,21,-1
 427 54 l 1,22,23
 397 -17 397 -17 280 -17 c 0,24,25
 223 -17 223 -17 176.5 2.5 c 128,-1,26
 130 22 130 22 97 57 c 128,-1,27
 64 92 64 92 45.5 141 c 128,-1,28
 27 190 27 190 27 250 c 0,29,30
 27 309 27 309 46 358 c 128,-1,31
 65 407 65 407 99 442.5 c 128,-1,32
 133 478 133 478 180 497.5 c 128,-1,33
 227 517 227 517 284 517 c 0,34,35
 339 517 339 517 372 500.5 c 128,-1,36
 405 484 405 484 427 447 c 1,37,-1
 427 500 l 1,38,-1
 563 500 l 1,39,-1
 563 447 l 1,40,41
 586 483 586 483 618.5 500 c 128,-1,42
 651 517 651 517 698 517 c 0,43,44
 752 517 752 517 798 495.5 c 128,-1,45
 844 474 844 474 878.5 437 c 128,-1,46
 913 400 913 400 932.5 349.5 c 128,-1,47
 952 299 952 299 952 241 c 0,0,1
804 303 m 1,48,49
 780 390 780 390 692 390 c 0,50,51
 647 390 647 390 615 366 c 128,-1,52
 583 342 583 342 576 303 c 1,53,-1
 804 303 l 1,48,49
299 377 m 0,54,55
 273 377 273 377 251 367 c 128,-1,56
 229 357 229 357 212.5 340 c 128,-1,57
 196 323 196 323 186.5 300 c 128,-1,58
 177 277 177 277 177 250 c 256,59,60
 177 223 177 223 187 200 c 128,-1,61
 197 177 197 177 214 159.5 c 128,-1,62
 231 142 231 142 254 132.5 c 128,-1,63
 277 123 277 123 304 123 c 0,64,65
 330 123 330 123 352.5 132.5 c 128,-1,66
 375 142 375 142 391.5 159 c 128,-1,67
 408 176 408 176 417.5 199.5 c 128,-1,68
 427 223 427 223 427 250 c 0,69,70
 427 307 427 307 391.5 342 c 128,-1,71
 356 377 356 377 299 377 c 0,54,55
EndSplineSet
Validated: 1
EndChar

StartChar: oslash
Encoding: 248 248 160
Width: 595
Flags: W
LayerCount: 2
Fore
SplineSet
299 517 m 0,0,1
 316 517 316 517 329 516 c 128,-1,2
 342 515 342 515 354 513 c 128,-1,3
 366 511 366 511 378.5 506.5 c 128,-1,4
 391 502 391 502 408 496 c 1,5,-1
 463 570 l 1,6,-1
 559 501 l 1,7,-1
 503 426 l 1,8,9
 536 386 536 386 551.5 343 c 128,-1,10
 567 300 567 300 567 249 c 0,11,12
 567 192 567 192 546.5 143.5 c 128,-1,13
 526 95 526 95 490 59 c 128,-1,14
 454 23 454 23 405 3 c 128,-1,15
 356 -17 356 -17 298 -17 c 0,16,17
 281 -17 281 -17 268 -16 c 128,-1,18
 255 -15 255 -15 243 -13 c 128,-1,19
 231 -11 231 -11 218.5 -6.5 c 128,-1,20
 206 -2 206 -2 189 4 c 1,21,-1
 131 -75 l 1,22,-1
 36 -3 l 1,23,-1
 91 71 l 1,24,25
 59 107 59 107 43 152.5 c 128,-1,26
 27 198 27 198 27 249 c 0,27,28
 27 307 27 307 47.5 356 c 128,-1,29
 68 405 68 405 104 441 c 128,-1,30
 140 477 140 477 190 497 c 128,-1,31
 240 517 240 517 299 517 c 0,0,1
177 250 m 0,32,33
 177 234 177 234 179 223.5 c 128,-1,34
 181 213 181 213 189 195 c 1,35,-1
 323 374 l 1,36,37
 315 376 315 376 310 376.5 c 128,-1,38
 305 377 305 377 298 377 c 0,39,40
 272 377 272 377 250 367 c 128,-1,41
 228 357 228 357 212 340 c 128,-1,42
 196 323 196 323 186.5 300 c 128,-1,43
 177 277 177 277 177 250 c 0,32,33
417 251 m 0,44,45
 417 266 417 266 415 276 c 128,-1,46
 413 286 413 286 407 303 c 1,47,-1
 275 126 l 1,48,49
 283 124 283 124 287 123.5 c 128,-1,50
 291 123 291 123 297 123 c 0,51,52
 323 123 323 123 345 132.5 c 128,-1,53
 367 142 367 142 383 159.5 c 128,-1,54
 399 177 399 177 408 200.5 c 128,-1,55
 417 224 417 224 417 251 c 0,44,45
EndSplineSet
Validated: 1
EndChar

StartChar: questiondown
Encoding: 191 191 161
Width: 496
Flags: W
LayerCount: 2
Fore
SplineSet
255 -26 m 0,0,1
 288 -26 288 -26 301.5 -6.5 c 128,-1,2
 315 13 315 13 317 61 c 1,3,-1
 482 61 l 1,4,-1
 482 44 l 2,5,6
 482 -5 482 -5 464.5 -46 c 128,-1,7
 447 -87 447 -87 415.5 -117 c 128,-1,8
 384 -147 384 -147 340.5 -163.5 c 128,-1,9
 297 -180 297 -180 246 -180 c 0,10,11
 200 -180 200 -180 160.5 -165 c 128,-1,12
 121 -150 121 -150 92 -124.5 c 128,-1,13
 63 -99 63 -99 46.5 -64 c 128,-1,14
 30 -29 30 -29 30 11 c 0,15,16
 30 61 30 61 56 104 c 0,17,18
 62 114 62 114 68 122.5 c 128,-1,19
 74 131 74 131 82.5 140 c 128,-1,20
 91 149 91 149 102.5 160 c 128,-1,21
 114 171 114 171 132 188 c 0,22,23
 151 206 151 206 164 219.5 c 128,-1,24
 177 233 177 233 184.5 244.5 c 128,-1,25
 192 256 192 256 195.5 266 c 128,-1,26
 199 276 199 276 201 288 c 1,27,-1
 356 288 l 1,28,29
 356 267 356 267 352 250 c 128,-1,30
 348 233 348 233 337.5 215 c 128,-1,31
 327 197 327 197 309.5 176.5 c 128,-1,32
 292 156 292 156 264 129 c 0,33,34
 230 97 230 97 216.5 74.5 c 128,-1,35
 203 52 203 52 203 30 c 0,36,37
 203 -26 203 -26 255 -26 c 0,0,1
201 347 m 1,38,-1
 201 500 l 1,39,-1
 356 500 l 1,40,-1
 356 347 l 1,41,-1
 201 347 l 1,38,-1
EndSplineSet
Validated: 1
EndChar

StartChar: exclamdown
Encoding: 161 161 162
Width: 295
Flags: W
LayerCount: 2
Fore
SplineSet
225 500 m 1,0,-1
 225 347 l 1,1,-1
 70 347 l 1,2,-1
 70 500 l 1,3,-1
 225 500 l 1,0,-1
225 280 m 1,4,-1
 225 -167 l 1,5,-1
 70 -167 l 1,6,-1
 70 280 l 1,7,-1
 225 280 l 1,4,-1
EndSplineSet
Validated: 1
EndChar

StartChar: logicalnot
Encoding: 172 172 163
Width: 500
Flags: W
LayerCount: 2
Fore
SplineSet
340 0 m 1,0,-1
 340 153 l 1,1,-1
 33 153 l 1,2,-1
 33 267 l 1,3,-1
 467 267 l 1,4,-1
 467 0 l 1,5,-1
 340 0 l 1,0,-1
EndSplineSet
Validated: 1
EndChar

StartChar: radical
Encoding: 65550 -1 164
Width: 667
Flags: W
LayerCount: 2
Fore
SplineSet
667 827 m 1,0,-1
 667 713 l 1,1,-1
 487 713 l 1,2,-1
 319 0 l 1,3,-1
 152 0 l 1,4,-1
 94 272 l 1,5,-1
 0 272 l 1,6,-1
 0 386 l 1,7,-1
 198 386 l 1,8,-1
 217 299 l 2,9,10
 219 290 219 290 221 273 c 128,-1,11
 223 256 223 256 225.5 235.5 c 128,-1,12
 228 215 228 215 229.5 193.5 c 128,-1,13
 231 172 231 172 232 154 c 1,14,-1
 242 154 l 1,15,16
 243 176 243 176 244.5 190 c 128,-1,17
 246 204 246 204 249 227 c 0,18,19
 252 254 252 254 256.5 283.5 c 128,-1,20
 261 313 261 313 266.5 342 c 128,-1,21
 272 371 272 371 277.5 398 c 128,-1,22
 283 425 283 425 288 447 c 2,23,-1
 377 827 l 1,24,-1
 667 827 l 1,0,-1
EndSplineSet
Validated: 1
EndChar

StartChar: florin
Encoding: 402 402 165
Width: 550
Flags: W
LayerCount: 2
Fore
SplineSet
405 529 m 1,0,-1
 470 529 l 1,1,-1
 450 416 l 1,2,-1
 385 416 l 1,3,-1
 335 134 l 2,4,5
 329 102 329 102 324.5 80 c 128,-1,6
 320 58 320 58 315.5 42 c 128,-1,7
 311 26 311 26 306 13.5 c 128,-1,8
 301 1 301 1 294 -12 c 0,9,10
 284 -29 284 -29 272 -44.5 c 128,-1,11
 260 -60 260 -60 245 -73 c 0,12,13
 214 -100 214 -100 173 -114.5 c 128,-1,14
 132 -129 132 -129 87 -129 c 0,15,16
 70 -129 70 -129 58.5 -127.5 c 128,-1,17
 47 -126 47 -126 38 -124 c 1,18,-1
 62 10 l 1,19,20
 68 9 68 9 70.5 9 c 128,-1,21
 73 9 73 9 78 9 c 0,22,23
 102 9 102 9 119 14 c 128,-1,24
 136 19 136 19 148 31.5 c 128,-1,25
 160 44 160 44 167.5 64.5 c 128,-1,26
 175 85 175 85 180 115 c 2,27,-1
 232 416 l 1,28,-1
 167 416 l 1,29,-1
 186 529 l 1,30,-1
 252 529 l 1,31,-1
 257 558 l 2,32,33
 264 597 264 597 283 629.5 c 128,-1,34
 302 662 302 662 330 685 c 128,-1,35
 358 708 358 708 393.5 720.5 c 128,-1,36
 429 733 429 733 469 733 c 0,37,38
 483 733 483 733 491 733 c 128,-1,39
 499 733 499 733 506 731 c 1,40,-1
 487 611 l 1,41,-1
 482 611 l 2,42,43
 419 611 419 611 407 541 c 2,44,-1
 405 529 l 1,0,-1
EndSplineSet
Validated: 1
EndChar

StartChar: approxequal
Encoding: 65551 -1 166
Width: 500
Flags: W
LayerCount: 2
Fore
SplineSet
150 402 m 0,0,1
 125 402 125 402 110.5 389.5 c 128,-1,2
 96 377 96 377 77 340 c 1,3,-1
 7 386 l 1,4,5
 21 421 21 421 31.5 440 c 128,-1,6
 42 459 42 459 56 476 c 0,7,8
 93 524 93 524 158 524 c 0,9,10
 176 524 176 524 200 517.5 c 128,-1,11
 224 511 224 511 262 497 c 0,12,13
 284 489 284 489 297.5 484 c 128,-1,14
 311 479 311 479 319.5 476.5 c 128,-1,15
 328 474 328 474 334 473.5 c 128,-1,16
 340 473 340 473 348 473 c 0,17,18
 374 473 374 473 389 484 c 128,-1,19
 404 495 404 495 421 525 c 1,20,-1
 493 484 l 1,21,22
 480 457 480 457 469.5 438 c 128,-1,23
 459 419 459 419 448.5 406 c 128,-1,24
 438 393 438 393 426.5 383.5 c 128,-1,25
 415 374 415 374 400 367 c 0,26,27
 369 351 369 351 335 351 c 0,28,29
 327 351 327 351 318.5 352.5 c 128,-1,30
 310 354 310 354 298.5 357 c 128,-1,31
 287 360 287 360 271.5 365 c 128,-1,32
 256 370 256 370 234 378 c 256,33,34
 212 386 212 386 198.5 390.5 c 128,-1,35
 185 395 185 395 176.5 397.5 c 128,-1,36
 168 400 168 400 162 401 c 128,-1,37
 156 402 156 402 150 402 c 0,0,1
150 201 m 0,38,39
 125 201 125 201 110 188 c 128,-1,40
 95 175 95 175 77 139 c 1,41,-1
 7 185 l 1,42,43
 21 220 21 220 31.5 239 c 128,-1,44
 42 258 42 258 56 275 c 0,45,46
 95 323 95 323 158 323 c 0,47,48
 175 323 175 323 199.5 316.5 c 128,-1,49
 224 310 224 310 262 296 c 0,50,51
 284 288 284 288 297.5 283 c 128,-1,52
 311 278 311 278 320 275.5 c 128,-1,53
 329 273 329 273 335 272.5 c 128,-1,54
 341 272 341 272 349 272 c 0,55,56
 373 272 373 272 388.5 283 c 128,-1,57
 404 294 404 294 421 324 c 1,58,-1
 493 283 l 1,59,60
 480 256 480 256 469.5 237.5 c 128,-1,61
 459 219 459 219 448.5 205.5 c 128,-1,62
 438 192 438 192 426.5 183 c 128,-1,63
 415 174 415 174 400 166 c 0,64,65
 368 150 368 150 335 150 c 0,66,67
 327 150 327 150 318.5 151.5 c 128,-1,68
 310 153 310 153 298.5 156 c 128,-1,69
 287 159 287 159 271.5 164 c 128,-1,70
 256 169 256 169 234 177 c 256,71,72
 212 185 212 185 198.5 189.5 c 128,-1,73
 185 194 185 194 176.5 196.5 c 128,-1,74
 168 199 168 199 162 200 c 128,-1,75
 156 201 156 201 150 201 c 0,38,39
EndSplineSet
Validated: 1
EndChar

StartChar: Delta
Encoding: 65552 -1 167
Width: 667
Flags: W
LayerCount: 2
Fore
SplineSet
17 0 m 1,0,-1
 263 667 l 1,1,-1
 400 667 l 1,2,-1
 650 0 l 1,3,-1
 17 0 l 1,0,-1
198 115 m 1,4,-1
 466 115 l 1,5,-1
 332 512 l 1,6,-1
 198 115 l 1,4,-1
EndSplineSet
Validated: 1
EndChar

StartChar: guillemotleft
Encoding: 171 171 168
Width: 368
Flags: W
LayerCount: 2
Fore
SplineSet
149 434 m 1,0,-1
 149 301 l 1,1,-1
 103 260 l 1,2,-1
 149 218 l 1,3,-1
 149 86 l 1,4,-1
 33 201 l 1,5,-1
 33 316 l 1,6,-1
 149 434 l 1,0,-1
313 434 m 1,7,-1
 313 301 l 1,8,-1
 266 260 l 1,9,-1
 313 218 l 1,10,-1
 313 86 l 1,11,-1
 197 201 l 1,12,-1
 197 316 l 1,13,-1
 313 434 l 1,7,-1
EndSplineSet
Validated: 1
EndChar

StartChar: guillemotright
Encoding: 187 187 169
Width: 353
Flags: W
LayerCount: 2
Fore
SplineSet
203 86 m 1,0,-1
 203 219 l 1,1,-1
 250 260 l 1,2,-1
 203 302 l 1,3,-1
 203 434 l 1,4,-1
 319 316 l 1,5,-1
 319 200 l 1,6,-1
 203 86 l 1,0,-1
40 86 m 1,7,-1
 40 219 l 1,8,-1
 86 260 l 1,9,-1
 40 302 l 1,10,-1
 40 434 l 1,11,-1
 156 316 l 1,12,-1
 156 200 l 1,13,-1
 40 86 l 1,7,-1
EndSplineSet
Validated: 1
EndChar

StartChar: ellipsis
Encoding: 8230 8230 170
Width: 786
Flags: W
LayerCount: 2
Fore
SplineSet
209 153 m 1,0,-1
 209 0 l 1,1,-1
 53 0 l 1,2,-1
 53 153 l 1,3,-1
 209 153 l 1,0,-1
471 153 m 1,4,-1
 471 0 l 1,5,-1
 315 0 l 1,6,-1
 315 153 l 1,7,-1
 471 153 l 1,4,-1
733 153 m 1,8,-1
 733 0 l 1,9,-1
 577 0 l 1,10,-1
 577 153 l 1,11,-1
 733 153 l 1,8,-1
EndSplineSet
Validated: 1
EndChar

StartChar: Agrave
Encoding: 192 192 172
Width: 660
Flags: W
LayerCount: 2
Fore
SplineSet
447 97 m 1,0,-1
 215 97 l 1,1,-1
 180 0 l 1,2,-1
 -3 0 l 1,3,-1
 264 667 l 1,4,-1
 399 667 l 1,5,-1
 664 0 l 1,6,-1
 479 0 l 1,7,-1
 447 97 l 1,0,-1
235 932 m 1,8,-1
 476 802 l 1,9,-1
 431 710 l 1,10,-1
 185 818 l 1,11,-1
 235 932 l 1,8,-1
262 232 m 1,12,-1
 401 232 l 1,13,-1
 332 460 l 1,14,-1
 262 232 l 1,12,-1
EndSplineSet
Validated: 1
EndChar

StartChar: Atilde
Encoding: 195 195 173
Width: 660
Flags: W
LayerCount: 2
Fore
SplineSet
447 97 m 1,0,-1
 215 97 l 1,1,-1
 180 0 l 1,2,-1
 -3 0 l 1,3,-1
 264 667 l 1,4,-1
 399 667 l 1,5,-1
 664 0 l 1,6,-1
 479 0 l 1,7,-1
 447 97 l 1,0,-1
392 853 m 0,8,9
 413 853 413 853 430 857.5 c 128,-1,10
 447 862 447 862 472 874 c 1,11,-1
 536 786 l 1,12,13
 508 767 508 767 475.5 756 c 128,-1,14
 443 745 443 745 414 745 c 0,15,16
 392 745 392 745 365 751 c 2,17,-1
 333 758 l 2,18,19
 313 763 313 763 296 765.5 c 128,-1,20
 279 768 279 768 268 768 c 0,21,22
 251 768 251 768 236 763.5 c 128,-1,23
 221 759 221 759 194 745 c 1,24,-1
 124 834 l 1,25,26
 183 874 183 874 244 874 c 0,27,28
 258 874 258 874 273 872 c 128,-1,29
 288 870 288 870 318 864 c 0,30,31
 348 857 348 857 363 855 c 128,-1,32
 378 853 378 853 392 853 c 0,8,9
262 232 m 1,33,-1
 401 232 l 1,34,-1
 332 460 l 1,35,-1
 262 232 l 1,33,-1
EndSplineSet
Validated: 1
EndChar

StartChar: Otilde
Encoding: 213 213 174
Width: 761
Flags: W
LayerCount: 2
Fore
SplineSet
379 -13 m 0,0,1
 305 -13 305 -13 241 13.5 c 128,-1,2
 177 40 177 40 130 86.5 c 128,-1,3
 83 133 83 133 56 196 c 128,-1,4
 29 259 29 259 29 332 c 0,5,6
 29 406 29 406 56 469.5 c 128,-1,7
 83 533 83 533 130 580 c 128,-1,8
 177 627 177 627 241 653.5 c 128,-1,9
 305 680 305 680 379 680 c 0,10,11
 454 680 454 680 518.5 653 c 128,-1,12
 583 626 583 626 630.5 579.5 c 128,-1,13
 678 533 678 533 705.5 469.5 c 128,-1,14
 733 406 733 406 733 333 c 256,15,16
 733 260 733 260 705.5 197 c 128,-1,17
 678 134 678 134 630.5 87.5 c 128,-1,18
 583 41 583 41 518.5 14 c 128,-1,19
 454 -13 454 -13 379 -13 c 0,0,1
442 853 m 0,20,21
 464 853 464 853 480.5 857.5 c 128,-1,22
 497 862 497 862 522 874 c 1,23,-1
 586 786 l 1,24,25
 558 767 558 767 525.5 756 c 128,-1,26
 493 745 493 745 464 745 c 0,27,28
 443 745 443 745 416 751 c 2,29,-1
 384 758 l 2,30,31
 364 763 364 763 346.5 765.5 c 128,-1,32
 329 768 329 768 318 768 c 0,33,34
 301 768 301 768 286.5 763.5 c 128,-1,35
 272 759 272 759 244 745 c 1,36,-1
 175 834 l 1,37,38
 234 874 234 874 294 874 c 0,39,40
 308 874 308 874 323.5 872 c 128,-1,41
 339 870 339 870 368 864 c 0,42,43
 398 857 398 857 413 855 c 128,-1,44
 428 853 428 853 442 853 c 0,20,21
381 530 m 256,45,46
 342 530 342 530 308.5 515 c 128,-1,47
 275 500 275 500 251 474 c 128,-1,48
 227 448 227 448 213 412.5 c 128,-1,49
 199 377 199 377 199 335 c 256,50,51
 199 293 199 293 213 256.5 c 128,-1,52
 227 220 227 220 251.5 193.5 c 128,-1,53
 276 167 276 167 310 152 c 128,-1,54
 344 137 344 137 383 137 c 0,55,56
 421 137 421 137 454 152 c 128,-1,57
 487 167 487 167 511 193 c 128,-1,58
 535 219 535 219 549 255 c 128,-1,59
 563 291 563 291 563 332 c 0,60,61
 563 374 563 374 549 410 c 128,-1,62
 535 446 535 446 510.5 473 c 128,-1,63
 486 500 486 500 453 515 c 128,-1,64
 420 530 420 530 381 530 c 256,45,46
EndSplineSet
Validated: 1
EndChar

StartChar: OE
Encoding: 338 338 175
Width: 971
Flags: W
LayerCount: 2
Fore
SplineSet
930 667 m 1,0,-1
 930 517 l 1,1,-1
 723 517 l 1,2,-1
 723 414 l 1,3,-1
 923 414 l 1,4,-1
 923 264 l 1,5,-1
 723 264 l 1,6,-1
 723 150 l 1,7,-1
 930 150 l 1,8,-1
 930 0 l 1,9,-1
 559 0 l 1,10,-1
 559 43 l 1,11,12
 517 14 517 14 473.5 0.5 c 128,-1,13
 430 -13 430 -13 375 -13 c 0,14,15
 303 -13 303 -13 239.5 14 c 128,-1,16
 176 41 176 41 129.5 87.5 c 128,-1,17
 83 134 83 134 56 197 c 128,-1,18
 29 260 29 260 29 332 c 0,19,20
 29 406 29 406 55.5 469.5 c 128,-1,21
 82 533 82 533 129 580 c 128,-1,22
 176 627 176 627 240 653.5 c 128,-1,23
 304 680 304 680 378 680 c 0,24,25
 406 680 406 680 429.5 677 c 128,-1,26
 453 674 453 674 474.5 667 c 128,-1,27
 496 660 496 660 516.5 649.5 c 128,-1,28
 537 639 537 639 559 623 c 1,29,-1
 559 667 l 1,30,-1
 930 667 l 1,0,-1
379 530 m 256,31,32
 340 530 340 530 307 515 c 128,-1,33
 274 500 274 500 250 474 c 128,-1,34
 226 448 226 448 212.5 411.5 c 128,-1,35
 199 375 199 375 199 332 c 0,36,37
 199 291 199 291 212.5 255 c 128,-1,38
 226 219 226 219 250 193 c 128,-1,39
 274 167 274 167 306.5 152 c 128,-1,40
 339 137 339 137 377 137 c 0,41,42
 416 137 416 137 449.5 152 c 128,-1,43
 483 167 483 167 507 193.5 c 128,-1,44
 531 220 531 220 544.5 256.5 c 128,-1,45
 558 293 558 293 558 336 c 0,46,47
 558 378 558 378 544.5 414 c 128,-1,48
 531 450 531 450 507.5 475.5 c 128,-1,49
 484 501 484 501 451 515.5 c 128,-1,50
 418 530 418 530 379 530 c 256,31,32
EndSplineSet
Validated: 1
EndChar

StartChar: oe
Encoding: 339 339 176
Width: 966
Flags: W
LayerCount: 2
Fore
SplineSet
672 110 m 0,0,1
 702 110 702 110 723.5 120 c 128,-1,2
 745 130 745 130 769 156 c 1,3,-1
 921 156 l 1,4,5
 905 116 905 116 879.5 84 c 128,-1,6
 854 52 854 52 822 29.5 c 128,-1,7
 790 7 790 7 752.5 -5 c 128,-1,8
 715 -17 715 -17 675 -17 c 0,9,10
 612 -17 612 -17 567.5 4 c 128,-1,11
 523 25 523 25 487 73 c 1,12,13
 472 54 472 54 463.5 45 c 128,-1,14
 455 36 455 36 442 27 c 0,15,16
 413 6 413 6 374 -5.5 c 128,-1,17
 335 -17 335 -17 293 -17 c 0,18,19
 235 -17 235 -17 186.5 3 c 128,-1,20
 138 23 138 23 102.5 58.5 c 128,-1,21
 67 94 67 94 47 142.5 c 128,-1,22
 27 191 27 191 27 249 c 0,23,24
 27 308 27 308 47 357 c 128,-1,25
 67 406 67 406 102.5 441.5 c 128,-1,26
 138 477 138 477 187.5 497 c 128,-1,27
 237 517 237 517 296 517 c 0,28,29
 424 517 424 517 487 431 c 1,30,31
 500 450 500 450 521 466 c 128,-1,32
 542 482 542 482 566.5 493 c 128,-1,33
 591 504 591 504 619 510.5 c 128,-1,34
 647 517 647 517 675 517 c 0,35,36
 730 517 730 517 778 496 c 128,-1,37
 826 475 826 475 862 438 c 128,-1,38
 898 401 898 401 918.5 351.5 c 128,-1,39
 939 302 939 302 939 245 c 0,40,41
 939 233 939 233 938 225 c 128,-1,42
 937 217 937 217 934 203 c 1,43,-1
 559 203 l 1,44,45
 564 161 564 161 594 135.5 c 128,-1,46
 624 110 624 110 672 110 c 0,0,1
789 303 m 1,47,48
 780 343 780 343 749.5 366.5 c 128,-1,49
 719 390 719 390 676 390 c 256,50,51
 633 390 633 390 602 366 c 128,-1,52
 571 342 571 342 563 303 c 1,53,-1
 789 303 l 1,47,48
298 377 m 256,54,55
 273 377 273 377 251 367 c 128,-1,56
 229 357 229 357 212.5 340 c 128,-1,57
 196 323 196 323 186.5 300 c 128,-1,58
 177 277 177 277 177 251 c 0,59,60
 177 224 177 224 186.5 201 c 128,-1,61
 196 178 196 178 212.5 160.5 c 128,-1,62
 229 143 229 143 251.5 133 c 128,-1,63
 274 123 274 123 299 123 c 256,64,65
 324 123 324 123 345.5 133 c 128,-1,66
 367 143 367 143 383.5 160 c 128,-1,67
 400 177 400 177 409.5 200.5 c 128,-1,68
 419 224 419 224 419 250 c 256,69,70
 419 276 419 276 409.5 299 c 128,-1,71
 400 322 400 322 383.5 339.5 c 128,-1,72
 367 357 367 357 345 367 c 128,-1,73
 323 377 323 377 298 377 c 256,54,55
EndSplineSet
Validated: 1
EndChar

StartChar: endash
Encoding: 8211 8211 177
Width: 500
Flags: W
LayerCount: 2
Fore
SplineSet
33 398 m 1,0,-1
 467 398 l 1,1,-1
 467 281 l 1,2,-1
 33 281 l 1,3,-1
 33 398 l 1,0,-1
EndSplineSet
Validated: 1
EndChar

StartChar: emdash
Encoding: 8212 8212 178
Width: 767
Flags: W
LayerCount: 2
Fore
SplineSet
767 320 m 1,0,-1
 767 193 l 1,1,-1
 0 193 l 1,2,-1
 0 320 l 1,3,-1
 767 320 l 1,0,-1
EndSplineSet
Validated: 1
EndChar

StartChar: quotedblleft
Encoding: 8220 8220 179
Width: 485
Flags: W
LayerCount: 2
Fore
SplineSet
276 368 m 1,0,-1
 276 558 l 2,1,2
 276 607 276 607 301 637 c 128,-1,3
 326 667 326 667 368 667 c 2,4,-1
 431 667 l 1,5,-1
 431 586 l 1,6,-1
 400 586 l 2,7,8
 383 586 383 586 372.5 577 c 128,-1,9
 362 568 362 568 362 552 c 2,10,-1
 362 522 l 1,11,-1
 431 522 l 1,12,-1
 431 368 l 1,13,-1
 276 368 l 1,0,-1
53 368 m 1,14,-1
 53 558 l 2,15,16
 53 607 53 607 78 637 c 128,-1,17
 103 667 103 667 145 667 c 2,18,-1
 209 667 l 1,19,-1
 209 586 l 1,20,-1
 178 586 l 2,21,22
 161 586 161 586 150 577 c 128,-1,23
 139 568 139 568 139 552 c 2,24,-1
 139 522 l 1,25,-1
 209 522 l 1,26,-1
 209 368 l 1,27,-1
 53 368 l 1,14,-1
EndSplineSet
Validated: 1
EndChar

StartChar: quotedblright
Encoding: 8221 8221 180
Width: 485
Flags: W
LayerCount: 2
Fore
SplineSet
209 667 m 1,0,-1
 209 477 l 2,1,2
 209 428 209 428 184 398 c 128,-1,3
 159 368 159 368 117 368 c 2,4,-1
 53 368 l 1,5,-1
 53 449 l 1,6,-1
 84 449 l 2,7,8
 101 449 101 449 112 458 c 128,-1,9
 123 467 123 467 123 483 c 2,10,-1
 123 513 l 1,11,-1
 53 513 l 1,12,-1
 53 667 l 1,13,-1
 209 667 l 1,0,-1
431 667 m 1,14,-1
 431 477 l 2,15,16
 431 428 431 428 406.5 398 c 128,-1,17
 382 368 382 368 340 368 c 2,18,-1
 276 368 l 1,19,-1
 276 449 l 1,20,-1
 307 449 l 2,21,22
 324 449 324 449 335 458 c 128,-1,23
 346 467 346 467 346 483 c 2,24,-1
 346 513 l 1,25,-1
 276 513 l 1,26,-1
 276 667 l 1,27,-1
 431 667 l 1,14,-1
EndSplineSet
Validated: 1
EndChar

StartChar: quoteleft
Encoding: 8216 8216 181
Width: 262
Flags: W
LayerCount: 2
Fore
SplineSet
53 368 m 1,0,-1
 53 558 l 2,1,2
 53 607 53 607 78 637 c 128,-1,3
 103 667 103 667 145 667 c 2,4,-1
 209 667 l 1,5,-1
 209 586 l 1,6,-1
 178 586 l 2,7,8
 161 586 161 586 150 577 c 128,-1,9
 139 568 139 568 139 552 c 2,10,-1
 139 522 l 1,11,-1
 209 522 l 1,12,-1
 209 368 l 1,13,-1
 53 368 l 1,0,-1
EndSplineSet
Validated: 1
EndChar

StartChar: quoteright
Encoding: 8217 8217 182
Width: 262
Flags: W
LayerCount: 2
Fore
SplineSet
209 667 m 1,0,-1
 209 477 l 2,1,2
 209 428 209 428 184 398 c 128,-1,3
 159 368 159 368 117 368 c 2,4,-1
 53 368 l 1,5,-1
 53 449 l 1,6,-1
 84 449 l 2,7,8
 101 449 101 449 112 458 c 128,-1,9
 123 467 123 467 123 483 c 2,10,-1
 123 513 l 1,11,-1
 53 513 l 1,12,-1
 53 667 l 1,13,-1
 209 667 l 1,0,-1
EndSplineSet
Validated: 1
EndChar

StartChar: divide
Encoding: 247 247 183
Width: 500
Flags: W
LayerCount: 2
Fore
SplineSet
177 510 m 256,0,1
 177 540 177 540 198 561.5 c 128,-1,2
 219 583 219 583 250 583 c 0,3,4
 280 583 280 583 301.5 561.5 c 128,-1,5
 323 540 323 540 323 510 c 256,6,7
 323 480 323 480 301.5 458.5 c 128,-1,8
 280 437 280 437 250 437 c 256,9,10
 220 437 220 437 198.5 458.5 c 128,-1,11
 177 480 177 480 177 510 c 256,0,1
177 168 m 0,12,13
 177 199 177 199 198 220 c 128,-1,14
 219 241 219 241 250 241 c 0,15,16
 280 241 280 241 301.5 220 c 128,-1,17
 323 199 323 199 323 168 c 0,18,19
 323 139 323 139 301.5 117.5 c 128,-1,20
 280 96 280 96 250 96 c 256,21,22
 220 96 220 96 198.5 117.5 c 128,-1,23
 177 139 177 139 177 168 c 0,12,13
33 398 m 1,24,-1
 467 398 l 1,25,-1
 467 281 l 1,26,-1
 33 281 l 1,27,-1
 33 398 l 1,24,-1
EndSplineSet
Validated: 1
EndChar

StartChar: lozenge
Encoding: 65553 -1 184
Width: 667
Flags: W
LayerCount: 2
Fore
SplineSet
333 693 m 1,0,-1
 593 334 l 1,1,-1
 333 -26 l 1,2,-1
 74 334 l 1,3,-1
 333 693 l 1,0,-1
333 487 m 1,4,-1
 222 334 l 1,5,-1
 333 180 l 1,6,-1
 445 334 l 1,7,-1
 333 487 l 1,4,-1
EndSplineSet
Validated: 1
EndChar

StartChar: ydieresis
Encoding: 255 255 185
Width: 496
Flags: W
LayerCount: 2
Fore
SplineSet
347 500 m 1,0,-1
 506 500 l 1,1,-1
 255 -167 l 1,2,-1
 97 -167 l 1,3,-1
 176 25 l 1,4,-1
 -10 500 l 1,5,-1
 149 500 l 1,6,-1
 250 210 l 1,7,-1
 347 500 l 1,0,-1
76 567 m 1,8,-1
 76 703 l 1,9,-1
 220 703 l 1,10,-1
 220 567 l 1,11,-1
 76 567 l 1,8,-1
276 567 m 1,12,-1
 276 703 l 1,13,-1
 420 703 l 1,14,-1
 420 567 l 1,15,-1
 276 567 l 1,12,-1
EndSplineSet
Validated: 1
EndChar

StartChar: Ydieresis
Encoding: 376 376 186
Width: 547
Flags: W
LayerCount: 2
Fore
SplineSet
189 0 m 1,0,-1
 189 243 l 1,1,-1
 -10 667 l 1,2,-1
 175 667 l 1,3,-1
 274 399 l 1,4,-1
 374 667 l 1,5,-1
 557 667 l 1,6,-1
 359 243 l 1,7,-1
 359 0 l 1,8,-1
 189 0 l 1,0,-1
87 733 m 1,9,-1
 87 883 l 1,10,-1
 244 883 l 1,11,-1
 244 733 l 1,12,-1
 87 733 l 1,9,-1
304 733 m 1,13,-1
 304 883 l 1,14,-1
 460 883 l 1,15,-1
 460 733 l 1,16,-1
 304 733 l 1,13,-1
EndSplineSet
Validated: 1
EndChar

StartChar: fraction
Encoding: 65554 -1 187
Width: 145
Flags: W
LayerCount: 2
Fore
SplineSet
160 667 m 1,0,-1
 265 667 l 1,1,-1
 -15 0 l 1,2,-1
 -120 0 l 1,3,-1
 160 667 l 1,0,-1
EndSplineSet
Validated: 1
EndChar

StartChar: currency
Encoding: 164 164 188
Width: 667
Flags: W
LayerCount: 2
Fore
SplineSet
22 137 m 1,0,-1
 125 239 l 1,1,2
 80 303 80 303 80 377 c 0,3,4
 80 415 80 415 91 447 c 128,-1,5
 102 479 102 479 125 514 c 1,6,-1
 21 618 l 1,7,-1
 90 687 l 1,8,-1
 194 583 l 1,9,10
 229 606 229 606 262.5 616.5 c 128,-1,11
 296 627 296 627 334 627 c 256,12,13
 372 627 372 627 404.5 617 c 128,-1,14
 437 607 437 607 472 584 c 1,15,-1
 574 686 l 1,16,-1
 642 617 l 1,17,-1
 541 516 l 1,18,19
 566 476 566 476 576.5 445 c 128,-1,20
 587 414 587 414 587 376 c 0,21,22
 587 339 587 339 576.5 307 c 128,-1,23
 566 275 566 275 543 240 c 1,24,-1
 645 137 l 1,25,-1
 577 68 l 1,26,-1
 475 170 l 1,27,28
 408 125 408 125 333 125 c 0,29,30
 296 125 296 125 263.5 135.5 c 128,-1,31
 231 146 231 146 193 170 c 1,32,-1
 91 68 l 1,33,-1
 22 137 l 1,0,-1
471 376 m 256,34,35
 471 405 471 405 460.5 430.5 c 128,-1,36
 450 456 450 456 431 474.5 c 128,-1,37
 412 493 412 493 387 504 c 128,-1,38
 362 515 362 515 334 515 c 0,39,40
 305 515 305 515 280 504 c 128,-1,41
 255 493 255 493 236 474.5 c 128,-1,42
 217 456 217 456 206.5 430.5 c 128,-1,43
 196 405 196 405 196 376 c 256,44,45
 196 347 196 347 207 322 c 128,-1,46
 218 297 218 297 236.5 278.5 c 128,-1,47
 255 260 255 260 280 249 c 128,-1,48
 305 238 305 238 334 238 c 0,49,50
 362 238 362 238 387 249 c 128,-1,51
 412 260 412 260 431 278.5 c 128,-1,52
 450 297 450 297 460.5 322 c 128,-1,53
 471 347 471 347 471 376 c 256,34,35
EndSplineSet
Validated: 1
EndChar

StartChar: guilsinglleft
Encoding: 8249 8249 189
Width: 189
Flags: W
LayerCount: 2
Fore
SplineSet
149 441 m 1,0,-1
 149 301 l 1,1,-1
 103 260 l 1,2,-1
 149 218 l 1,3,-1
 149 86 l 1,4,-1
 33 201 l 1,5,-1
 33 316 l 1,6,-1
 149 441 l 1,0,-1
EndSplineSet
Validated: 1
EndChar

StartChar: guilsinglright
Encoding: 8250 8250 190
Width: 189
Flags: W
LayerCount: 2
Fore
SplineSet
40 86 m 1,0,-1
 40 219 l 1,1,-1
 86 260 l 1,2,-1
 40 302 l 1,3,-1
 40 434 l 1,4,-1
 156 316 l 1,5,-1
 156 200 l 1,6,-1
 40 86 l 1,0,-1
EndSplineSet
Validated: 1
EndChar

StartChar: fi
Encoding: 65555 -1 191
Width: 544
Flags: W
LayerCount: 2
Fore
SplineSet
63 0 m 1,0,-1
 63 387 l 1,1,-1
 8 387 l 1,2,-1
 8 500 l 1,3,-1
 63 500 l 1,4,-1
 63 526 l 2,5,6
 63 564 63 564 75 594 c 128,-1,7
 87 624 87 624 110 642 c 0,8,9
 137 663 137 663 169 671.5 c 128,-1,10
 201 680 201 680 254 680 c 2,11,-1
 277 680 l 1,12,-1
 277 567 l 1,13,-1
 259 567 l 2,14,15
 213 567 213 567 213 520 c 2,16,-1
 213 500 l 1,17,-1
 277 500 l 1,18,-1
 277 387 l 1,19,-1
 213 387 l 1,20,-1
 213 0 l 1,21,-1
 63 0 l 1,0,-1
494 500 m 1,22,-1
 494 0 l 1,23,-1
 344 0 l 1,24,-1
 344 500 l 1,25,-1
 494 500 l 1,22,-1
494 667 m 1,26,-1
 494 553 l 1,27,-1
 344 553 l 1,28,-1
 344 667 l 1,29,-1
 494 667 l 1,26,-1
EndSplineSet
Validated: 1
EndChar

StartChar: fl
Encoding: 65556 -1 192
Width: 544
Flags: W
LayerCount: 2
Fore
SplineSet
63 0 m 1,0,-1
 63 387 l 1,1,-1
 8 387 l 1,2,-1
 8 500 l 1,3,-1
 63 500 l 1,4,-1
 63 526 l 2,5,6
 63 564 63 564 75 594 c 128,-1,7
 87 624 87 624 110 642 c 0,8,9
 137 663 137 663 169 671.5 c 128,-1,10
 201 680 201 680 254 680 c 2,11,-1
 277 680 l 1,12,-1
 277 567 l 1,13,-1
 259 567 l 2,14,15
 213 567 213 567 213 520 c 2,16,-1
 213 500 l 1,17,-1
 277 500 l 1,18,-1
 277 387 l 1,19,-1
 213 387 l 1,20,-1
 213 0 l 1,21,-1
 63 0 l 1,0,-1
344 0 m 1,22,-1
 344 667 l 1,23,-1
 494 667 l 1,24,-1
 494 0 l 1,25,-1
 344 0 l 1,22,-1
EndSplineSet
Validated: 1
EndChar

StartChar: daggerdbl
Encoding: 8225 8225 193
Width: 550
Flags: W
LayerCount: 2
Fore
SplineSet
349 667 m 1,0,-1
 349 501 l 1,1,-1
 498 501 l 1,2,-1
 498 371 l 1,3,-1
 349 371 l 1,4,-1
 349 129 l 1,5,-1
 498 129 l 1,6,-1
 498 -1 l 1,7,-1
 349 -1 l 1,8,-1
 349 -167 l 1,9,-1
 201 -167 l 1,10,-1
 201 -1 l 1,11,-1
 52 -1 l 1,12,-1
 52 129 l 1,13,-1
 201 129 l 1,14,-1
 201 371 l 1,15,-1
 52 371 l 1,16,-1
 52 501 l 1,17,-1
 201 501 l 1,18,-1
 201 667 l 1,19,-1
 349 667 l 1,0,-1
EndSplineSet
Validated: 1
EndChar

StartChar: periodcentered
Encoding: 183 183 194
AltUni2: 002219.ffffffff.0
Width: 173
Flags: W
LayerCount: 2
Fore
SplineSet
173 426 m 1,0,-1
 173 254 l 1,1,-1
 0 254 l 1,2,-1
 0 426 l 1,3,-1
 173 426 l 1,0,-1
EndSplineSet
Validated: 1
EndChar

StartChar: quotesinglbase
Encoding: 8218 8218 195
Width: 262
Flags: W
LayerCount: 2
Fore
SplineSet
209 153 m 1,0,-1
 209 -36 l 2,1,2
 209 -85 209 -85 184 -115 c 128,-1,3
 159 -145 159 -145 117 -145 c 2,4,-1
 53 -145 l 1,5,-1
 53 -65 l 1,6,-1
 84 -65 l 2,7,8
 101 -65 101 -65 112 -55.5 c 128,-1,9
 123 -46 123 -46 123 -31 c 2,10,-1
 123 0 l 1,11,-1
 53 0 l 1,12,-1
 53 153 l 1,13,-1
 209 153 l 1,0,-1
EndSplineSet
Validated: 1
EndChar

StartChar: quotedblbase
Encoding: 8222 8222 196
Width: 485
Flags: W
LayerCount: 2
Fore
SplineSet
209 153 m 1,0,-1
 209 -36 l 2,1,2
 209 -85 209 -85 184 -115 c 128,-1,3
 159 -145 159 -145 117 -145 c 2,4,-1
 53 -145 l 1,5,-1
 53 -65 l 1,6,-1
 84 -65 l 2,7,8
 101 -65 101 -65 112 -55.5 c 128,-1,9
 123 -46 123 -46 123 -31 c 2,10,-1
 123 0 l 1,11,-1
 53 0 l 1,12,-1
 53 153 l 1,13,-1
 209 153 l 1,0,-1
431 153 m 1,14,-1
 431 -36 l 2,15,16
 431 -85 431 -85 406.5 -115 c 128,-1,17
 382 -145 382 -145 340 -145 c 2,18,-1
 276 -145 l 1,19,-1
 276 -65 l 1,20,-1
 307 -65 l 2,21,22
 324 -65 324 -65 335 -55.5 c 128,-1,23
 346 -46 346 -46 346 -31 c 2,24,-1
 346 0 l 1,25,-1
 276 0 l 1,26,-1
 276 153 l 1,27,-1
 431 153 l 1,14,-1
EndSplineSet
Validated: 1
EndChar

StartChar: perthousand
Encoding: 8240 8240 197
Width: 1167
Flags: W
LayerCount: 2
Fore
SplineSet
194 357 m 0,0,1
 158 357 158 357 128 369 c 128,-1,2
 98 381 98 381 76.5 402.5 c 128,-1,3
 55 424 55 424 42.5 453 c 128,-1,4
 30 482 30 482 30 517 c 256,5,6
 30 552 30 552 42 582 c 128,-1,7
 54 612 54 612 76 633.5 c 128,-1,8
 98 655 98 655 128 667.5 c 128,-1,9
 158 680 158 680 193 680 c 256,10,11
 228 680 228 680 258 668 c 128,-1,12
 288 656 288 656 310 634 c 128,-1,13
 332 612 332 612 344.5 582.5 c 128,-1,14
 357 553 357 553 357 519 c 0,15,16
 357 484 357 484 344.5 454.5 c 128,-1,17
 332 425 332 425 310.5 403 c 128,-1,18
 289 381 289 381 259 369 c 128,-1,19
 229 357 229 357 194 357 c 0,0,1
607 -13 m 0,20,21
 571 -13 571 -13 541 -1 c 128,-1,22
 511 11 511 11 489.5 32 c 128,-1,23
 468 53 468 53 455.5 82 c 128,-1,24
 443 111 443 111 443 146 c 0,25,26
 443 182 443 182 455.5 212 c 128,-1,27
 468 242 468 242 489.5 263.5 c 128,-1,28
 511 285 511 285 541 297.5 c 128,-1,29
 571 310 571 310 607 310 c 0,30,31
 642 310 642 310 672 298 c 128,-1,32
 702 286 702 286 723.5 264 c 128,-1,33
 745 242 745 242 757.5 212.5 c 128,-1,34
 770 183 770 183 770 148 c 256,35,36
 770 113 770 113 757.5 84 c 128,-1,37
 745 55 745 55 723.5 33 c 128,-1,38
 702 11 702 11 672 -1 c 128,-1,39
 642 -13 642 -13 607 -13 c 0,20,21
487 667 m 1,40,-1
 593 667 l 1,41,-1
 313 0 l 1,42,-1
 207 0 l 1,43,-1
 487 667 l 1,40,-1
974 -13 m 0,44,45
 938 -13 938 -13 908 -1 c 128,-1,46
 878 11 878 11 856.5 32 c 128,-1,47
 835 53 835 53 822.5 82 c 128,-1,48
 810 111 810 111 810 146 c 0,49,50
 810 182 810 182 822 212 c 128,-1,51
 834 242 834 242 856 263.5 c 128,-1,52
 878 285 878 285 908 297.5 c 128,-1,53
 938 310 938 310 973 310 c 256,54,55
 1008 310 1008 310 1038 298 c 128,-1,56
 1068 286 1068 286 1090 264 c 128,-1,57
 1112 242 1112 242 1124.5 212.5 c 128,-1,58
 1137 183 1137 183 1137 148 c 256,59,60
 1137 113 1137 113 1124.5 84 c 128,-1,61
 1112 55 1112 55 1090.5 33 c 128,-1,62
 1069 11 1069 11 1039 -1 c 128,-1,63
 1009 -13 1009 -13 974 -13 c 0,44,45
194 580 m 0,64,65
 168 580 168 580 151 562.5 c 128,-1,66
 134 545 134 545 134 519 c 256,67,68
 134 493 134 493 151 475 c 128,-1,69
 168 457 168 457 194 457 c 0,70,71
 219 457 219 457 236 475 c 128,-1,72
 253 493 253 493 253 519 c 256,73,74
 253 545 253 545 235.5 562.5 c 128,-1,75
 218 580 218 580 194 580 c 0,64,65
607 210 m 256,76,77
 582 210 582 210 564.5 192.5 c 128,-1,78
 547 175 547 175 547 149 c 0,79,80
 547 122 547 122 564 104 c 128,-1,81
 581 86 581 86 607 86 c 256,82,83
 633 86 633 86 649.5 104 c 128,-1,84
 666 122 666 122 666 148 c 256,85,86
 666 174 666 174 649 192 c 128,-1,87
 632 210 632 210 607 210 c 256,76,77
974 210 m 0,88,89
 948 210 948 210 931 192.5 c 128,-1,90
 914 175 914 175 914 149 c 0,91,92
 914 122 914 122 931 104 c 128,-1,93
 948 86 948 86 974 86 c 0,94,95
 999 86 999 86 1016 104 c 128,-1,96
 1033 122 1033 122 1033 148 c 256,97,98
 1033 174 1033 174 1015.5 192 c 128,-1,99
 998 210 998 210 974 210 c 0,88,89
EndSplineSet
Validated: 1
EndChar

StartChar: Acircumflex
Encoding: 194 194 198
Width: 660
Flags: W
LayerCount: 2
Fore
SplineSet
447 97 m 1,0,-1
 215 97 l 1,1,-1
 180 0 l 1,2,-1
 -3 0 l 1,3,-1
 264 667 l 1,4,-1
 399 667 l 1,5,-1
 664 0 l 1,6,-1
 479 0 l 1,7,-1
 447 97 l 1,0,-1
330 797 m 1,8,-1
 286 733 l 1,9,-1
 127 733 l 1,10,-1
 258 883 l 1,11,-1
 406 883 l 1,12,-1
 534 733 l 1,13,-1
 376 733 l 1,14,-1
 330 797 l 1,8,-1
262 232 m 1,15,-1
 401 232 l 1,16,-1
 332 460 l 1,17,-1
 262 232 l 1,15,-1
EndSplineSet
Validated: 1
EndChar

StartChar: Ecircumflex
Encoding: 202 202 199
Width: 469
Flags: W
LayerCount: 2
Fore
SplineSet
57 0 m 1,0,-1
 57 667 l 1,1,-1
 427 667 l 1,2,-1
 427 517 l 1,3,-1
 220 517 l 1,4,-1
 220 414 l 1,5,-1
 421 414 l 1,6,-1
 421 264 l 1,7,-1
 220 264 l 1,8,-1
 220 150 l 1,9,-1
 427 150 l 1,10,-1
 427 0 l 1,11,-1
 57 0 l 1,0,-1
242 791 m 1,12,-1
 201 733 l 1,13,-1
 59 733 l 1,14,-1
 192 883 l 1,15,-1
 296 883 l 1,16,-1
 425 733 l 1,17,-1
 284 733 l 1,18,-1
 242 791 l 1,12,-1
EndSplineSet
Validated: 1
EndChar

StartChar: Aacute
Encoding: 193 193 200
Width: 660
Flags: W
LayerCount: 2
Fore
SplineSet
447 97 m 1,0,-1
 215 97 l 1,1,-1
 180 0 l 1,2,-1
 -3 0 l 1,3,-1
 264 667 l 1,4,-1
 399 667 l 1,5,-1
 664 0 l 1,6,-1
 479 0 l 1,7,-1
 447 97 l 1,0,-1
425 932 m 1,8,-1
 476 818 l 1,9,-1
 229 710 l 1,10,-1
 185 802 l 1,11,-1
 425 932 l 1,8,-1
262 232 m 1,12,-1
 401 232 l 1,13,-1
 332 460 l 1,14,-1
 262 232 l 1,12,-1
EndSplineSet
Validated: 1
EndChar

StartChar: Edieresis
Encoding: 203 203 201
Width: 469
Flags: W
LayerCount: 2
Fore
SplineSet
57 0 m 1,0,-1
 57 667 l 1,1,-1
 427 667 l 1,2,-1
 427 517 l 1,3,-1
 220 517 l 1,4,-1
 220 414 l 1,5,-1
 421 414 l 1,6,-1
 421 264 l 1,7,-1
 220 264 l 1,8,-1
 220 150 l 1,9,-1
 427 150 l 1,10,-1
 427 0 l 1,11,-1
 57 0 l 1,0,-1
55 733 m 1,12,-1
 55 883 l 1,13,-1
 212 883 l 1,14,-1
 212 733 l 1,15,-1
 55 733 l 1,12,-1
272 733 m 1,16,-1
 272 883 l 1,17,-1
 429 883 l 1,18,-1
 429 733 l 1,19,-1
 272 733 l 1,16,-1
EndSplineSet
Validated: 1
EndChar

StartChar: Egrave
Encoding: 200 200 202
Width: 469
Flags: W
LayerCount: 2
Fore
SplineSet
57 0 m 1,0,-1
 57 667 l 1,1,-1
 427 667 l 1,2,-1
 427 517 l 1,3,-1
 220 517 l 1,4,-1
 220 414 l 1,5,-1
 421 414 l 1,6,-1
 421 264 l 1,7,-1
 220 264 l 1,8,-1
 220 150 l 1,9,-1
 427 150 l 1,10,-1
 427 0 l 1,11,-1
 57 0 l 1,0,-1
147 932 m 1,12,-1
 387 802 l 1,13,-1
 343 710 l 1,14,-1
 97 818 l 1,15,-1
 147 932 l 1,12,-1
EndSplineSet
Validated: 1
EndChar

StartChar: Iacute
Encoding: 205 205 203
Width: 283
Flags: W
LayerCount: 2
Fore
SplineSet
57 0 m 1,0,-1
 57 667 l 1,1,-1
 227 667 l 1,2,-1
 227 0 l 1,3,-1
 57 0 l 1,0,-1
236 932 m 1,4,-1
 287 818 l 1,5,-1
 41 710 l 1,6,-1
 -4 802 l 1,7,-1
 236 932 l 1,4,-1
EndSplineSet
Validated: 1
EndChar

StartChar: Icircumflex
Encoding: 206 206 204
Width: 283
Flags: W
LayerCount: 2
Fore
SplineSet
57 0 m 1,0,-1
 57 667 l 1,1,-1
 227 667 l 1,2,-1
 227 0 l 1,3,-1
 57 0 l 1,0,-1
89 883 m 1,4,-1
 197 883 l 1,5,-1
 290 733 l 1,6,-1
 182 733 l 1,7,-1
 142 810 l 1,8,-1
 103 733 l 1,9,-1
 -7 733 l 1,10,-1
 89 883 l 1,4,-1
EndSplineSet
Validated: 1
EndChar

StartChar: Idieresis
Encoding: 207 207 205
Width: 283
Flags: W
LayerCount: 2
Fore
SplineSet
57 0 m 1,0,-1
 57 667 l 1,1,-1
 227 667 l 1,2,-1
 227 0 l 1,3,-1
 57 0 l 1,0,-1
5 733 m 1,4,-1
 5 883 l 1,5,-1
 116 883 l 1,6,-1
 116 733 l 1,7,-1
 5 733 l 1,4,-1
167 733 m 1,8,-1
 167 883 l 1,9,-1
 278 883 l 1,10,-1
 278 733 l 1,11,-1
 167 733 l 1,8,-1
EndSplineSet
Validated: 1
EndChar

StartChar: Igrave
Encoding: 204 204 206
Width: 283
Flags: W
LayerCount: 2
Fore
SplineSet
57 0 m 1,0,-1
 57 667 l 1,1,-1
 227 667 l 1,2,-1
 227 0 l 1,3,-1
 57 0 l 1,0,-1
47 932 m 1,4,-1
 287 802 l 1,5,-1
 243 710 l 1,6,-1
 -4 818 l 1,7,-1
 47 932 l 1,4,-1
EndSplineSet
Validated: 1
EndChar

StartChar: Oacute
Encoding: 211 211 207
Width: 761
Flags: W
LayerCount: 2
Fore
SplineSet
379 -13 m 0,0,1
 305 -13 305 -13 241 13.5 c 128,-1,2
 177 40 177 40 130 86.5 c 128,-1,3
 83 133 83 133 56 196 c 128,-1,4
 29 259 29 259 29 332 c 0,5,6
 29 406 29 406 56 469.5 c 128,-1,7
 83 533 83 533 130 580 c 128,-1,8
 177 627 177 627 241 653.5 c 128,-1,9
 305 680 305 680 379 680 c 0,10,11
 454 680 454 680 518.5 653 c 128,-1,12
 583 626 583 626 630.5 579.5 c 128,-1,13
 678 533 678 533 705.5 469.5 c 128,-1,14
 733 406 733 406 733 333 c 256,15,16
 733 260 733 260 705.5 197 c 128,-1,17
 678 134 678 134 630.5 87.5 c 128,-1,18
 583 41 583 41 518.5 14 c 128,-1,19
 454 -13 454 -13 379 -13 c 0,0,1
475 932 m 1,20,-1
 526 818 l 1,21,-1
 280 710 l 1,22,-1
 235 802 l 1,23,-1
 475 932 l 1,20,-1
381 530 m 256,24,25
 342 530 342 530 308.5 515 c 128,-1,26
 275 500 275 500 251 474 c 128,-1,27
 227 448 227 448 213 412.5 c 128,-1,28
 199 377 199 377 199 335 c 256,29,30
 199 293 199 293 213 256.5 c 128,-1,31
 227 220 227 220 251.5 193.5 c 128,-1,32
 276 167 276 167 310 152 c 128,-1,33
 344 137 344 137 383 137 c 0,34,35
 421 137 421 137 454 152 c 128,-1,36
 487 167 487 167 511 193 c 128,-1,37
 535 219 535 219 549 255 c 128,-1,38
 563 291 563 291 563 332 c 0,39,40
 563 374 563 374 549 410 c 128,-1,41
 535 446 535 446 510.5 473 c 128,-1,42
 486 500 486 500 453 515 c 128,-1,43
 420 530 420 530 381 530 c 256,24,25
EndSplineSet
Validated: 1
EndChar

StartChar: Ocircumflex
Encoding: 212 212 208
Width: 761
Flags: W
LayerCount: 2
Fore
SplineSet
379 -13 m 0,0,1
 305 -13 305 -13 241 13.5 c 128,-1,2
 177 40 177 40 130 86.5 c 128,-1,3
 83 133 83 133 56 196 c 128,-1,4
 29 259 29 259 29 332 c 0,5,6
 29 406 29 406 56 469.5 c 128,-1,7
 83 533 83 533 130 580 c 128,-1,8
 177 627 177 627 241 653.5 c 128,-1,9
 305 680 305 680 379 680 c 0,10,11
 454 680 454 680 518.5 653 c 128,-1,12
 583 626 583 626 630.5 579.5 c 128,-1,13
 678 533 678 533 705.5 469.5 c 128,-1,14
 733 406 733 406 733 333 c 256,15,16
 733 260 733 260 705.5 197 c 128,-1,17
 678 134 678 134 630.5 87.5 c 128,-1,18
 583 41 583 41 518.5 14 c 128,-1,19
 454 -13 454 -13 379 -13 c 0,0,1
381 797 m 1,20,-1
 336 733 l 1,21,-1
 177 733 l 1,22,-1
 309 883 l 1,23,-1
 457 883 l 1,24,-1
 584 733 l 1,25,-1
 426 733 l 1,26,-1
 381 797 l 1,20,-1
381 530 m 256,27,28
 342 530 342 530 308.5 515 c 128,-1,29
 275 500 275 500 251 474 c 128,-1,30
 227 448 227 448 213 412.5 c 128,-1,31
 199 377 199 377 199 335 c 256,32,33
 199 293 199 293 213 256.5 c 128,-1,34
 227 220 227 220 251.5 193.5 c 128,-1,35
 276 167 276 167 310 152 c 128,-1,36
 344 137 344 137 383 137 c 0,37,38
 421 137 421 137 454 152 c 128,-1,39
 487 167 487 167 511 193 c 128,-1,40
 535 219 535 219 549 255 c 128,-1,41
 563 291 563 291 563 332 c 0,42,43
 563 374 563 374 549 410 c 128,-1,44
 535 446 535 446 510.5 473 c 128,-1,45
 486 500 486 500 453 515 c 128,-1,46
 420 530 420 530 381 530 c 256,27,28
EndSplineSet
Validated: 1
EndChar

StartChar: Ograve
Encoding: 210 210 209
Width: 761
Flags: W
LayerCount: 2
Fore
SplineSet
379 -13 m 0,0,1
 305 -13 305 -13 241 13.5 c 128,-1,2
 177 40 177 40 130 86.5 c 128,-1,3
 83 133 83 133 56 196 c 128,-1,4
 29 259 29 259 29 332 c 0,5,6
 29 406 29 406 56 469.5 c 128,-1,7
 83 533 83 533 130 580 c 128,-1,8
 177 627 177 627 241 653.5 c 128,-1,9
 305 680 305 680 379 680 c 0,10,11
 454 680 454 680 518.5 653 c 128,-1,12
 583 626 583 626 630.5 579.5 c 128,-1,13
 678 533 678 533 705.5 469.5 c 128,-1,14
 733 406 733 406 733 333 c 256,15,16
 733 260 733 260 705.5 197 c 128,-1,17
 678 134 678 134 630.5 87.5 c 128,-1,18
 583 41 583 41 518.5 14 c 128,-1,19
 454 -13 454 -13 379 -13 c 0,0,1
286 932 m 1,20,-1
 526 802 l 1,21,-1
 482 710 l 1,22,-1
 235 818 l 1,23,-1
 286 932 l 1,20,-1
381 530 m 256,24,25
 342 530 342 530 308.5 515 c 128,-1,26
 275 500 275 500 251 474 c 128,-1,27
 227 448 227 448 213 412.5 c 128,-1,28
 199 377 199 377 199 335 c 256,29,30
 199 293 199 293 213 256.5 c 128,-1,31
 227 220 227 220 251.5 193.5 c 128,-1,32
 276 167 276 167 310 152 c 128,-1,33
 344 137 344 137 383 137 c 0,34,35
 421 137 421 137 454 152 c 128,-1,36
 487 167 487 167 511 193 c 128,-1,37
 535 219 535 219 549 255 c 128,-1,38
 563 291 563 291 563 332 c 0,39,40
 563 374 563 374 549 410 c 128,-1,41
 535 446 535 446 510.5 473 c 128,-1,42
 486 500 486 500 453 515 c 128,-1,43
 420 530 420 530 381 530 c 256,24,25
EndSplineSet
Validated: 1
EndChar

StartChar: Uacute
Encoding: 218 218 210
Width: 612
Flags: W
LayerCount: 2
Fore
SplineSet
50 667 m 1,0,-1
 220 667 l 1,1,-1
 220 263 l 2,2,3
 220 197 220 197 240.5 167 c 128,-1,4
 261 137 261 137 307 137 c 0,5,6
 354 137 354 137 373 165 c 128,-1,7
 392 193 392 193 392 263 c 2,8,-1
 392 667 l 1,9,-1
 562 667 l 1,10,-1
 562 263 l 2,11,12
 562 189 562 189 547 142.5 c 128,-1,13
 532 96 532 96 496 59 c 0,14,15
 425 -13 425 -13 307 -13 c 0,16,17
 248 -13 248 -13 200 5 c 128,-1,18
 152 23 152 23 117 58 c 0,19,20
 98 77 98 77 85 96.5 c 128,-1,21
 72 116 72 116 64.5 140 c 128,-1,22
 57 164 57 164 53.5 193.5 c 128,-1,23
 50 223 50 223 50 263 c 2,24,-1
 50 667 l 1,0,-1
401 932 m 1,25,-1
 451 818 l 1,26,-1
 205 710 l 1,27,-1
 161 802 l 1,28,-1
 401 932 l 1,25,-1
EndSplineSet
Validated: 1
EndChar

StartChar: Ucircumflex
Encoding: 219 219 211
Width: 612
Flags: W
LayerCount: 2
Fore
SplineSet
50 667 m 1,0,-1
 220 667 l 1,1,-1
 220 263 l 2,2,3
 220 197 220 197 240.5 167 c 128,-1,4
 261 137 261 137 307 137 c 0,5,6
 354 137 354 137 373 165 c 128,-1,7
 392 193 392 193 392 263 c 2,8,-1
 392 667 l 1,9,-1
 562 667 l 1,10,-1
 562 263 l 2,11,12
 562 189 562 189 547 142.5 c 128,-1,13
 532 96 532 96 496 59 c 0,14,15
 425 -13 425 -13 307 -13 c 0,16,17
 248 -13 248 -13 200 5 c 128,-1,18
 152 23 152 23 117 58 c 0,19,20
 98 77 98 77 85 96.5 c 128,-1,21
 72 116 72 116 64.5 140 c 128,-1,22
 57 164 57 164 53.5 193.5 c 128,-1,23
 50 223 50 223 50 263 c 2,24,-1
 50 667 l 1,0,-1
306 797 m 1,25,-1
 262 733 l 1,26,-1
 102 733 l 1,27,-1
 234 883 l 1,28,-1
 382 883 l 1,29,-1
 510 733 l 1,30,-1
 352 733 l 1,31,-1
 306 797 l 1,25,-1
EndSplineSet
Validated: 1
EndChar

StartChar: Ugrave
Encoding: 217 217 212
Width: 612
Flags: W
LayerCount: 2
Fore
SplineSet
50 667 m 1,0,-1
 220 667 l 1,1,-1
 220 263 l 2,2,3
 220 197 220 197 240.5 167 c 128,-1,4
 261 137 261 137 307 137 c 0,5,6
 354 137 354 137 373 165 c 128,-1,7
 392 193 392 193 392 263 c 2,8,-1
 392 667 l 1,9,-1
 562 667 l 1,10,-1
 562 263 l 2,11,12
 562 189 562 189 547 142.5 c 128,-1,13
 532 96 532 96 496 59 c 0,14,15
 425 -13 425 -13 307 -13 c 0,16,17
 248 -13 248 -13 200 5 c 128,-1,18
 152 23 152 23 117 58 c 0,19,20
 98 77 98 77 85 96.5 c 128,-1,21
 72 116 72 116 64.5 140 c 128,-1,22
 57 164 57 164 53.5 193.5 c 128,-1,23
 50 223 50 223 50 263 c 2,24,-1
 50 667 l 1,0,-1
211 932 m 1,25,-1
 451 802 l 1,26,-1
 407 710 l 1,27,-1
 161 818 l 1,28,-1
 211 932 l 1,25,-1
EndSplineSet
Validated: 1
EndChar

StartChar: dotlessi
Encoding: 65558 -1 213
Width: 250
Flags: W
LayerCount: 2
Fore
SplineSet
200 500 m 1,0,-1
 200 0 l 1,1,-1
 50 0 l 1,2,-1
 50 500 l 1,3,-1
 200 500 l 1,0,-1
EndSplineSet
Validated: 1
EndChar

StartChar: circumflex
Encoding: 710 710 214
Width: 500
Flags: W
LayerCount: 2
Fore
SplineSet
250 618 m 1,0,-1
 209 560 l 1,1,-1
 67 560 l 1,2,-1
 200 709 l 1,3,-1
 304 709 l 1,4,-1
 433 560 l 1,5,-1
 292 560 l 1,6,-1
 250 618 l 1,0,-1
EndSplineSet
Validated: 1
EndChar

StartChar: tilde
Encoding: 732 732 215
Width: 500
Flags: W
LayerCount: 2
Fore
SplineSet
314 671 m 256,0,1
 332 671 332 671 345 674 c 128,-1,2
 358 677 358 677 381 687 c 1,3,-1
 436 609 l 1,4,5
 384 575 384 575 329 575 c 0,6,7
 306 575 306 575 279 581 c 2,8,-1
 250 588 l 2,9,10
 210 598 210 598 187 598 c 0,11,12
 172 598 172 598 157.5 594.5 c 128,-1,13
 143 591 143 591 119 581 c 1,14,-1
 64 662 l 1,15,16
 124 694 124 694 165 694 c 0,17,18
 179 694 179 694 195 691.5 c 128,-1,19
 211 689 211 689 239 682 c 0,20,21
 268 675 268 675 282 673 c 128,-1,22
 296 671 296 671 314 671 c 256,0,1
EndSplineSet
Validated: 1
EndChar

StartChar: macron
Encoding: 175 175 216
Width: 500
Flags: W
LayerCount: 2
Fore
SplineSet
410 680 m 1,0,-1
 410 593 l 1,1,-1
 90 593 l 1,2,-1
 90 680 l 1,3,-1
 410 680 l 1,0,-1
EndSplineSet
Validated: 1
EndChar

StartChar: breve
Encoding: 65559 -1 217
Width: 500
Flags: W
LayerCount: 2
Fore
SplineSet
250 570 m 256,0,1
 173 570 173 570 130.5 604.5 c 128,-1,2
 88 639 88 639 83 705 c 1,3,-1
 178 705 l 1,4,5
 189 681 189 681 205.5 671 c 128,-1,6
 222 661 222 661 254 661 c 0,7,8
 304 661 304 661 322 705 c 1,9,-1
 417 705 l 1,10,11
 412 639 412 639 369.5 604.5 c 128,-1,12
 327 570 327 570 250 570 c 256,0,1
EndSplineSet
Validated: 1
EndChar

StartChar: dotaccent
Encoding: 65560 -1 218
Width: 500
Flags: W
LayerCount: 2
Fore
SplineSet
178 567 m 1,0,-1
 178 703 l 1,1,-1
 322 703 l 1,2,-1
 322 567 l 1,3,-1
 178 567 l 1,0,-1
EndSplineSet
Validated: 1
EndChar

StartChar: ring
Encoding: 65561 -1 219
Width: 500
Flags: W
LayerCount: 2
Fore
SplineSet
137 662 m 256,0,1
 137 685 137 685 146 705 c 128,-1,2
 155 725 155 725 170.5 740 c 128,-1,3
 186 755 186 755 206.5 764 c 128,-1,4
 227 773 227 773 250 773 c 256,5,6
 273 773 273 773 293.5 764 c 128,-1,7
 314 755 314 755 329.5 740 c 128,-1,8
 345 725 345 725 354 705 c 128,-1,9
 363 685 363 685 363 662 c 256,10,11
 363 639 363 639 354 618.5 c 128,-1,12
 345 598 345 598 329.5 583 c 128,-1,13
 314 568 314 568 293.5 559 c 128,-1,14
 273 550 273 550 250 550 c 256,15,16
 227 550 227 550 206.5 559 c 128,-1,17
 186 568 186 568 170.5 583 c 128,-1,18
 155 598 155 598 146 618.5 c 128,-1,19
 137 639 137 639 137 662 c 256,0,1
293 662 m 0,20,21
 293 680 293 680 280 693 c 128,-1,22
 267 706 267 706 250 706 c 0,23,24
 232 706 232 706 219.5 693 c 128,-1,25
 207 680 207 680 207 662 c 0,26,27
 207 643 207 643 219.5 630 c 128,-1,28
 232 617 232 617 250 617 c 0,29,30
 267 617 267 617 280 630 c 128,-1,31
 293 643 293 643 293 662 c 0,20,21
EndSplineSet
Validated: 1
EndChar

StartChar: cedilla
Encoding: 184 184 220
Width: 500
Flags: W
LayerCount: 2
Fore
SplineSet
281 0 m 1,0,-1
 255 -52 l 1,1,2
 268 -49 268 -49 275 -49 c 0,3,4
 304 -49 304 -49 325.5 -71 c 128,-1,5
 347 -93 347 -93 347 -123 c 0,6,7
 347 -162 347 -162 319.5 -187.5 c 128,-1,8
 292 -213 292 -213 250 -213 c 0,9,10
 168 -213 168 -213 159 -136 c 1,11,-1
 219 -136 l 1,12,13
 225 -150 225 -150 231.5 -155.5 c 128,-1,14
 238 -161 238 -161 250 -161 c 0,15,16
 265 -161 265 -161 275 -151.5 c 128,-1,17
 285 -142 285 -142 285 -127 c 0,18,19
 285 -113 285 -113 276.5 -104.5 c 128,-1,20
 268 -96 268 -96 254 -96 c 0,21,22
 246 -96 246 -96 240.5 -99 c 128,-1,23
 235 -102 235 -102 227 -110 c 1,24,-1
 183 -78 l 1,25,-1
 220 0 l 1,26,-1
 281 0 l 1,0,-1
EndSplineSet
Validated: 1
EndChar

StartChar: hungarumlaut
Encoding: 65562 -1 221
Width: 500
Flags: W
LayerCount: 2
Fore
SplineSet
229 762 m 1,0,-1
 303 687 l 1,1,-1
 158 543 l 1,2,-1
 96 602 l 1,3,-1
 229 762 l 1,0,-1
397 762 m 1,4,-1
 471 687 l 1,5,-1
 326 543 l 1,6,-1
 264 602 l 1,7,-1
 397 762 l 1,4,-1
EndSplineSet
Validated: 1
EndChar

StartChar: ogonek
Encoding: 65563 -1 222
Width: 500
Flags: W
LayerCount: 2
Fore
SplineSet
334 0 m 1,0,1
 279 -29 279 -29 279 -64 c 0,2,3
 279 -82 279 -82 292.5 -95 c 128,-1,4
 306 -108 306 -108 325 -108 c 0,5,6
 335 -108 335 -108 343.5 -106 c 128,-1,7
 352 -104 352 -104 369 -97 c 1,8,-1
 369 -171 l 1,9,10
 342 -180 342 -180 326.5 -183 c 128,-1,11
 311 -186 311 -186 291 -186 c 0,12,13
 243 -186 243 -186 213.5 -162 c 128,-1,14
 184 -138 184 -138 184 -98 c 0,15,16
 184 -72 184 -72 200.5 -50 c 128,-1,17
 217 -28 217 -28 259 0 c 1,18,-1
 334 0 l 1,0,1
EndSplineSet
Validated: 1
EndChar

StartChar: caron
Encoding: 65564 -1 223
Width: 500
Flags: W
LayerCount: 2
Fore
SplineSet
250 652 m 1,0,-1
 291 709 l 1,1,-1
 433 709 l 1,2,-1
 300 560 l 1,3,-1
 196 560 l 1,4,-1
 67 709 l 1,5,-1
 208 709 l 1,6,-1
 250 652 l 1,0,-1
EndSplineSet
Validated: 1
EndChar

StartChar: minus
Encoding: 173 173 224
Width: 549
Flags: W
LayerCount: 2
Fore
SplineSet
46 267 m 1,0,-1
 503 267 l 1,1,-1
 503 205 l 1,2,-1
 46 205 l 1,3,-1
 46 267 l 1,0,-1
EndSplineSet
Validated: 1
EndChar

StartChar: multiply
Encoding: 215 215 225
Width: 549
Flags: W
LayerCount: 2
Fore
SplineSet
275 193 m 1,0,-1
 101 19 l 1,1,-1
 57 63 l 1,2,-1
 231 236 l 1,3,-1
 57 409 l 1,4,-1
 101 453 l 1,5,-1
 275 280 l 1,6,-1
 448 452 l 1,7,-1
 492 409 l 1,8,-1
 318 236 l 1,9,-1
 492 63 l 1,10,-1
 448 19 l 1,11,-1
 275 193 l 1,0,-1
EndSplineSet
Validated: 1
EndChar
